<svg xmlns:dc="http://purl.org/dc/elements/1.1/" xmlns:cc="http://creativecommons.org/ns#" xmlns:rdf="http://www.w3.org/1999/02/22-rdf-syntax-ns#" xmlns:svg="http://www.w3.org/2000/svg" xmlns="http://www.w3.org/2000/svg" version="1.0" width="360" height="352"  viewBox="0 0 360 352" >
<metadata><rdf:RDF><cc:Work rdf:about=""><dc:format>image/svg+xml</dc:format><dc:type rdf:resource="http://purl.org/dc/dcmitype/StillImage"/></cc:Work></rdf:RDF></metadata>
<g transform="translate(-174.285716,-410.647891)">
 <path fill="#FFF" d="M 276.8162,565.20123 L 378.96722,534.371 L 413.05927,557.12417 L 423.92858,589.21932 L 420.28854,627.44488 L 397.35565,667.01381 L 420.51895,712.36441 L 429.26748,747.63701 L 334.23869,746.78941 L 333.93883,714.87697 L 318.36535,687.10656 L 290.71429,664.07646 L 268.22991,621.73161 L 276.8162,565.20123z"/>
 <path d="M 305.91009,748.91193 C 302.15825,748.52495 302.10254,748.4645 304.1658,747.01933 C 307.32724,744.80497 309.17489,740.56207 311.38256,730.44689 C 312.68985,724.45711 314.88045,718.49484 317.82458,712.91334 C 320.27821,708.26174 322.28572,703.5388 322.28572,702.41791 C 322.28572,693.9802 315.89853,686.33527 301.14895,677.11895 C 279.71455,663.72561 273.27759,657.88355 268.17359,647.19116 C 260.90665,631.96759 260.69324,618.81833 267.28309,592.32226 C 269.58468,583.06816 271.20468,575.23352 270.8831,574.91194 C 270.56152,574.59036 266.13306,575.92003 261.04207,577.86676 C 255.95108,579.81349 247.06072,583.21405 241.28572,585.42355 C 235.51072,587.63306 229.31776,589.74938 227.52359,590.12648 C 224.42086,590.77862 224.16541,590.60045 222.29556,586.48001 C 219.66225,580.6772 219.73733,577.14575 222.53572,575.18393 C 223.77322,574.31638 230.18572,571.53008 236.78572,568.99214 C 261.43016,559.51547 269.28572,556.36073 269.28572,555.94034 C 269.28572,555.70269 268.00446,553.62716 266.43848,551.32807 C 264.8725,549.02897 259.6451,540.62289 254.82202,532.64789 C 244.26429,515.19056 235.39127,501.87097 229.91234,495.25509 L 225.86037,490.3623 L 231.21061,485.44274 C 248.02574,469.98118 267.89328,460.79726 313.2129,447.53654 L 333.64007,441.55945 L 335.966,444.35367 C 341.51328,451.0178 347.71427,461.31705 353.38658,473.28758 C 367.73153,503.56035 374.18806,516.26259 376.11299,517.99831 C 378.12284,519.8106 378.4703,519.74228 392.97542,514.68276 C 414.36983,507.2202 423.77072,504.67509 432.53572,503.9726 C 441.30541,503.26973 441.4861,503.46033 438.38986,510.14789 C 434.33209,518.91226 428.47194,522.02202 406.51424,527.06307 C 393.66654,530.01265 385.28572,532.75875 385.28572,534.01893 C 385.28572,534.19476 389.22322,536.73694 394.03572,539.66823 C 410.25394,549.54672 418.61641,560.7893 421.51692,576.61419 C 422.87782,584.03912 422.91086,584.09358 427.48063,586.44527 C 433.25328,589.41598 439.01809,590.22135 443.62546,588.70078 L 447.19838,587.52161 L 445.07115,583.14314 C 443.30435,579.50654 443.16306,578.50061 444.23726,577.20628 C 445.90199,575.2004 449.702,575.20703 451.71429,577.21932 C 452.84285,578.34788 453.28572,580.75898 453.28572,585.77464 L 453.28572,592.75854 L 447.53572,595.39999 C 441.26724,598.27963 431.74132,599.49727 428.60656,597.8196 C 426.7367,596.81888 426.59469,597.32583 425.48597,608.95953 C 423.48715,629.93308 418.19415,644.1581 407.74156,656.64789 C 404.74967,660.22289 402.00329,663.76701 401.63847,664.52371 C 400.66526,666.54236 403.51922,670.74184 408.09433,674.02325 C 411.72591,676.62792 436.19039,686.11252 442.28572,687.27885 C 447.13102,688.20599 454.58638,679.83532 463.77803,663.14789 C 474.95436,642.85727 483.68017,637.89415 497.15174,644.16541 C 501.69046,646.27826 502.32681,646.89345 501.27929,648.15564 C 500.59814,648.97638 498.93518,649.64789 497.58382,649.64789 C 495.38885,649.64789 495.19523,649.9594 495.76833,652.5687 L 496.40984,655.48951 L 491.67038,654.06314 C 489.06368,653.27864 486.143,651.92371 485.17998,651.0522 C 480.94407,647.21875 473.9639,654.5311 464.93545,672.26013 C 455.43997,690.90628 449.60598,696.25382 439.65907,695.42894 C 435.5106,695.08492 433.10266,694.11291 428.57264,690.95368 C 420.9509,685.63828 416.93874,683.64789 413.84589,683.64789 L 411.30674,683.64789 L 414.18551,691.39789 C 415.76883,695.66039 418.63178,702.53453 420.54761,706.67376 C 426.24734,718.98823 429.22403,728.26329 430.51235,737.7229 L 431.72787,746.64789 L 444.75679,746.58464 C 451.9227,746.54985 462.51072,746.19452 468.28572,745.79502 C 480.35871,744.95984 491.58106,745.63598 489.36115,747.0648 C 487.03908,748.55937 318.9049,750.25228 305.91009,748.91193 z M 324.80359,743.97374 C 326.99376,742.50296 329.15019,740.81546 329.59565,740.22374 C 330.84883,738.5591 329.41084,720.79052 327.76543,717.60866 C 325.5174,713.26145 324.5338,713.24129 322.36222,717.49793 C 320.50895,721.13065 313.28572,743.57907 313.28572,745.70597 C 313.28572,747.75694 320.86806,746.61659 324.80359,743.97374 z M 372.77888,745.65896 C 374.01099,743.66537 369.85893,737.46005 360.57887,727.42585 C 351.6729,717.79614 346.40328,710.19699 347.7191,708.88118 C 348.03419,708.56608 350.2213,710.40969 352.57935,712.97808 C 354.93739,715.54648 357.63597,717.64789 358.57621,717.64789 C 360.64006,717.64789 360.63468,717.72732 358.85865,713.47667 C 358.07376,711.59817 356.93167,705.51816 356.32067,699.96554 C 354.30032,681.60491 353.078,679.64789 343.63073,679.64789 C 336.57431,679.64789 336.20492,680.1254 338.67961,686.04819 C 340.13225,689.52483 345.16518,693.92351 349.03572,695.09921 C 351.73579,695.91938 351.90259,698.28644 349.60051,703.11396 C 347.44193,707.64055 346.00554,707.65828 346.8517,703.14789 C 347.48695,699.7617 347.40788,699.64789 344.42006,699.64789 C 340.68694,699.64789 338.55762,696.85157 337.47885,690.53232 C 336.83352,686.75214 336.1695,685.84698 332.59536,683.87537 C 328.0672,681.3775 321.86169,680.67192 320.08113,682.45248 C 319.23926,683.29435 320.12257,685.34768 323.53284,690.47624 C 333.65029,705.69148 336.23682,712.92605 337.16596,728.60831 L 337.78572,739.06874 L 343.28572,739.37769 C 346.31072,739.54762 350.09037,740.12793 351.68494,740.66727 C 353.27952,741.20661 357.51176,741.64789 361.08993,741.64789 C 367.32927,741.64789 367.52792,741.72278 365.94071,743.47663 C 365.03046,744.48244 364.28572,745.60744 364.28572,745.97663 C 364.28572,747.04557 372.1026,746.75319 372.77888,745.65896 z M 389.28572,745.20459 C 389.28572,741.86783 381.62212,739.43036 376.86751,741.25488 C 374.54752,742.14514 374.92812,743.39001 378.03572,745.07592 C 381.71488,747.07189 389.28572,747.15849 389.28572,745.20459 z M 401.18789,743.49867 C 402.77319,738.9511 402.56156,734.69097 400.71517,733.98244 C 398.28869,733.05132 391.28572,740.38027 391.28572,743.85084 C 391.28572,746.48999 391.53424,746.64789 395.68789,746.64789 C 399.72649,746.64789 400.18074,746.38779 401.18789,743.49867 z M 427.27094,744.89789 C 427.24718,742.08503 424.61675,731.78713 421.71524,723.14789 C 419.15542,715.526 411.78054,699.64789 410.80024,699.64789 C 410.5455,699.64789 409.5498,701.11039 408.58756,702.89789 C 407.17683,705.51854 406.72492,709.73034 406.25388,724.64789 C 405.9326,734.82289 405.31018,743.93539 404.87073,744.89789 C 404.13473,746.50993 404.98675,746.64789 415.67873,746.64789 C 426.07197,746.64789 427.28417,746.46489 427.27094,744.89789 z M 392.91,729.83709 C 394.38547,721.97216 389.74558,709.96098 383.70226,706.00125 C 380.46818,703.8822 379.6452,704.92252 378.72421,712.29394 C 377.58722,721.3941 380.73436,731.49583 385.99586,735.63452 L 388.74595,737.79775 L 390.48391,735.65146 C 391.43979,734.47101 392.53153,731.85454 392.91,729.83709 z M 372.55877,730.94878 C 371.13191,728.77666 370.6881,725.34253 370.28572,713.36024 C 369.78596,698.47806 369.78433,698.46963 366.92571,696.0127 C 365.3527,694.66072 363.5527,693.72151 362.92571,693.92556 C 362.29871,694.1296 361.3666,696.90878 360.85434,700.10151 C 359.18307,710.51798 363.15428,725.84126 368.90674,731.17247 C 372.66019,734.65105 374.90065,734.51382 372.55877,730.94878 z M 401.29668,728.39789 C 405.33751,721.77045 403.2863,713.16771 393.85657,697.19421 C 388.46617,688.06315 387.90716,687.43893 387.09251,689.64115 C 385.80491,693.12186 387.59295,700.1691 392.79469,712.11532 C 395.27142,717.80333 397.58128,724.52507 397.9277,727.05252 C 398.27413,729.57997 398.72802,731.64789 398.93634,731.64789 C 399.14467,731.64789 400.20682,730.18539 401.29668,728.39789 z M 406.7438,700.77997 C 407.67478,697.84671 405.79908,694.24315 401.36633,690.44889 C 397.04792,686.75248 396.35312,684.26315 398.75392,681.08902 C 399.56142,680.0214 400.23642,678.55537 400.25392,677.83117 C 400.30989,675.5136 395.12903,669.64789 393.02607,669.64789 C 391.11772,669.64789 391.03289,670.114 391.52005,677.9226 C 392.1392,687.84682 395.05115,695.35674 399.94679,699.65517 C 403.86991,703.09971 405.90087,703.4358 406.7438,700.77997 z M 380.99003,690.69044 C 382.13085,685.88786 382.07884,685.63794 379.32547,682.69044 C 374.83082,677.8789 373.28572,678.57856 373.28572,685.42538 C 373.28572,695.86588 378.85633,699.67279 380.99003,690.69044 z M 361.08572,685.44789 C 361.74572,684.78789 362.28572,683.21289 362.28572,681.94789 C 362.28572,679.98599 361.77123,679.64789 358.78572,679.64789 C 355.02569,679.64789 354.75536,680.12274 356.26097,684.08279 C 357.31128,686.84531 359.16408,687.36953 361.08572,685.44789 z M 387.63353,677.65883 C 388.6371,672.641 387.74292,671.68454 383.74317,673.49746 L 380.30317,675.05667 L 382.98154,677.85228 C 386.35462,681.37302 386.89519,681.35054 387.63353,677.65883 z M 357.85206,674.62778 C 388.70633,669.32336 409.48564,652.72705 417.23405,627.19976 C 419.72346,618.99832 421.44456,604.08589 420.60697,597.97503 C 420.0259,593.73561 419.93686,593.64789 416.2149,593.64789 C 410.48758,593.64789 407.65523,595.13546 404.38618,599.86044 C 399.40014,607.06709 399.00834,607.31215 390.47823,608.55941 C 383.7455,609.54387 381.44909,609.49178 376.68009,608.24642 C 373.2003,607.33772 370.33735,607.09 369.37232,607.6141 C 366.65079,609.09215 362.43393,614.0132 356.41048,622.74047 C 347.06099,636.28676 340.76762,638.88793 333.52103,632.20111 C 330.40748,629.32805 329.96851,628.45417 330.88388,626.95111 C 332.25956,624.69217 336.15578,622.6608 337.85911,623.31443 C 338.56688,623.58602 339.604,625.12216 340.16382,626.72806 C 341.43727,630.38109 342.86369,630.46554 343.74846,626.9403 C 345.22457,621.05904 351.91898,609.11617 356.62713,603.96471 C 365.27987,594.49724 372.77893,592.10841 383.01829,595.5578 C 390.40585,598.04649 390.28572,598.03616 390.28572,596.18269 C 390.28572,593.85007 396.4258,587.49095 400.2701,585.84213 C 402.20369,585.01281 406.71072,584.06734 410.28572,583.74109 L 416.78572,583.14789 L 416.47176,579.14789 C 415.55679,567.49058 409.08171,554.52496 401.59071,549.35028 C 393.86777,544.01538 387.76856,542.28672 376.78572,542.31995 C 365.22288,542.35495 359.94277,543.58949 341.47733,550.5754 C 316.864,559.8872 296.74434,569.37718 288.86451,575.39166 C 276.21623,585.04577 270.06843,609.74849 275.26116,630.05188 C 276.34766,634.30003 278.61657,640.33452 280.30318,643.46184 C 283.40841,649.21957 287.07825,654.25634 287.6459,653.53955 C 288.36799,652.62777 285.13888,623.30973 283.27406,613.8463 C 282.15757,608.18043 281.59095,602.99375 282.0149,602.32036 C 282.43885,601.64697 285.97056,596.83268 289.86315,591.62195 C 301.85072,575.57502 307.8115,571.73505 322.28572,570.73511 L 330.78572,570.14789 L 330.56562,566.39789 C 330.44457,564.33539 330.77559,562.64789 331.30123,562.64789 C 332.73061,562.64789 337.78451,573.20789 340.41128,581.68313 C 343.62936,592.06621 343.6622,604.31426 340.48933,610.78626 C 337.80191,616.26804 332.64413,620.13375 326.06945,621.59386 C 317.10976,623.58362 309.15986,620.41721 294.79487,609.13734 C 290.94991,606.11814 287.46241,603.64789 287.04487,603.64789 C 285.72801,603.64789 286.21393,611.33226 288.39282,624.96467 C 289.55173,632.21544 290.5091,642.70267 290.52031,648.26961 L 290.54068,658.39134 L 296.86638,662.55024 C 306.19121,668.68097 315.3642,672.67143 323.53938,674.15361 C 332.41882,675.76348 349.84529,676.0043 357.85206,674.62778 z M 370.26968,628.61793 C 369.67216,627.50144 369.31883,624.26969 369.4845,621.43624 C 369.76398,616.65636 370.02388,616.18771 373.08537,614.94308 L 376.38502,613.60163 L 375.72495,617.12015 C 375.29392,619.41772 375.6237,622.03531 376.67529,624.66351 C 378.89771,630.21789 378.76447,630.64789 374.8209,630.64789 C 372.3625,630.64789 371.04053,630.05826 370.26968,628.61793 z M 383.95239,627.98122 C 381.47186,625.50069 386.25857,621.64789 391.8209,621.64789 C 396.1076,621.64789 396.29496,621.76211 395.24041,623.73255 C 393.56994,626.85385 385.76333,629.79216 383.95239,627.98122 z M 381.28572,620.63319 C 381.28572,617.16109 386.8848,614.56662 393.70635,614.87781 C 396.9627,615.02635 399.78685,615.63285 399.98225,616.22558 C 400.5159,617.84439 395.74542,619.64789 390.9298,619.64789 C 388.5858,619.64789 385.79447,620.30858 384.72685,621.11609 C 382.0813,623.11708 381.28572,623.00543 381.28572,620.63319 z M 407.03852,617.80655 C 406.11539,616.24382 405.05509,613.05782 404.68231,610.72656 C 404.01029,606.52399 404.02879,606.49072 406.85557,606.8179 C 410.05297,607.18798 411.02022,609.32775 411.18604,616.39789 C 411.30446,621.44698 409.54247,622.04542 407.03852,617.80655 z M 372.92051,590.63886 C 366.34445,587.35638 362.15186,583.6575 362.33741,581.302 C 362.94073,573.64331 362.39883,572.29876 356.44026,566.6699 C 349.52959,560.14161 347.01271,556.52292 347.85542,554.32686 C 348.63345,552.29934 352.55644,550.96004 353.08373,552.54193 C 353.2963,553.17962 355.30435,554.63707 357.54607,555.78071 C 363.01125,558.56884 373.80364,559.12169 388.28572,557.35537 C 394.61072,556.58393 399.90623,556.04217 400.05351,556.15145 C 400.2008,556.26073 399.91666,561.78152 399.4221,568.41987 C 398.38569,582.33121 396.21375,587.66024 390.30132,590.79844 C 385.74884,593.21481 377.93745,593.14309 372.92051,590.63886 z M 387.23103,585.67579 C 393.58166,582.43594 396.40254,577.72186 394.67873,573.22968 C 393.91985,571.25207 392.28572,571.15591 392.28572,573.08887 C 392.28572,575.73942 390.3273,575.78138 386.94721,573.20327 C 383.56648,570.62465 379.87955,569.87804 378.83919,571.56137 C 378.52869,572.06378 376.32133,573.42042 373.93397,574.57612 C 370.08965,576.43713 367.28572,579.86748 367.28572,582.70964 C 367.28572,583.24185 368.74822,584.56899 370.53572,585.65885 C 374.79692,588.25696 382.15689,588.26442 387.23103,585.67579 z M 372.80909,570.85103 C 373.92195,570.28402 377.74695,569.07148 381.30909,568.1565 C 391.1075,565.63967 391.21661,564.39725 381.60323,564.80744 C 375.29605,565.07657 372.79272,565.62546 370.68056,567.20242 C 366.98297,569.96307 365.82594,572.00733 366.68862,574.25544 C 367.37883,576.05411 367.48232,576.04349 369.09777,574.0084 C 370.02614,572.83887 371.69624,571.41805 372.80909,570.85103 z M 325.4705,614.74566 C 327.98748,613.14944 330.40321,611.26681 330.83878,610.56204 C 331.43942,609.59018 331.77872,609.70254 332.24338,611.02718 C 332.81144,612.64662 333.04834,612.62245 335.49848,610.69517 C 338.0792,608.66518 341.05475,602.08359 339.90955,600.93839 C 339.59303,600.62186 338.56392,600.98951 337.62266,601.75539 C 336.0878,603.00424 336.00225,602.94157 336.79333,601.14789 C 338.441,597.41201 338.52695,587.30636 336.92941,585.14946 C 336.11532,584.05033 335.26707,583.37533 335.04442,583.64946 C 332.34924,586.96783 317.28572,615.43752 317.28572,617.21299 C 317.28572,618.53903 321.48515,617.2731 325.4705,614.74566 z M 318.74476,608.2575 C 323.42868,601.69356 333.80392,580.64789 332.35593,580.64789 C 330.72188,580.64789 325.86476,588.1287 319.12696,601.02277 C 315.36428,608.22339 312.28572,614.48631 312.28572,614.94037 C 312.28572,616.56191 314.32302,614.45401 318.74476,608.2575 z M 314.99226,604.6081 C 322.91626,590.89824 326.12219,584.33087 327.17229,579.65723 C 328.0402,575.79444 327.94047,575.46713 325.62781,574.58785 C 324.26805,574.07087 321.79862,573.64789 320.14018,573.64789 C 317.51219,573.64789 316.91779,574.19386 315.51314,577.89789 C 314.6267,580.23539 311.0629,587.64185 307.59358,594.35669 C 304.12426,601.07153 301.28572,607.0492 301.28572,607.64039 C 301.28572,609.19324 307.27421,614.81839 308.49438,614.41167 C 309.06093,614.22282 311.98497,609.81121 314.99226,604.6081 z M 303.68187,591.61731 C 306.24821,587.2005 308.62427,582.20516 308.96198,580.51657 L 309.57602,577.44641 L 306.48256,579.0461 C 300.1872,582.30156 296.08285,590.71914 297.68274,597.0936 C 298.03534,598.49846 298.47952,599.64789 298.6698,599.64789 C 298.86009,599.64789 301.11552,596.03413 303.68187,591.61731z"/>
</g>
</svg>