<?xml version="1.0" encoding="UTF-8" standalone="no"?>
<!-- Created with Inkscape (http://www.inkscape.org/) -->

<svg
   xmlns:dc="http://purl.org/dc/elements/1.1/"
   xmlns:cc="http://creativecommons.org/ns#"
   xmlns:rdf="http://www.w3.org/1999/02/22-rdf-syntax-ns#"
   xmlns:svg="http://www.w3.org/2000/svg"
   xmlns="http://www.w3.org/2000/svg"
   version="1.1"
   width="659"
   height="472.45892"
   viewBox="0 0 659 472.5"
   id="svg4211">
  <defs
     id="defs4213" />
  <metadata
     id="metadata4216">
    <rdf:RDF>
      <cc:Work
         rdf:about="">
        <dc:format>image/svg+xml</dc:format>
        <dc:type
           rdf:resource="http://purl.org/dc/dcmitype/StillImage" />
        <dc:title></dc:title>
      </cc:Work>
    </rdf:RDF>
  </metadata>
  <g
     transform="translate(-13.03678,-156.67918)"
     id="layer1">
    <g
       transform="translate(-182,-86)"
       id="g4783">
      <path
         d="m 473.8125,146.71875 c -7.15939,1.14011 -12.31953,7.60467 -18.75,10 -3.73755,0.18911 -7.50899,-1.65012 -11.125,-1 -2.43146,2.07686 -3.38947,6.32564 -7.40625,6 -6.44814,0.89779 -14.38255,-0.0948 -18.875,5.65625 -10.16999,7.08401 -23.53293,5.12544 -34.84375,9.28125 -12.3012,2.87864 -25.35716,1.51539 -37.96875,2.59375 -5.06195,0.1754 -12.68967,0.93797 -13.25,7.375 -0.4391,11.95078 2.12239,23.84756 2.4375,35.8125 0.25983,10.90036 2.1017,22.01688 0.4375,32.84375 -2.53708,8.03728 -6.27692,16.54854 -3.625,25.09375 3.61115,15.84608 8.57107,31.50463 12.1875,47.3125 0.58456,6.49268 1.45825,14.62561 -4.03125,19.375 -2.14683,3.99115 1.7661,8.24455 2.34375,12.21875 3.63227,9.9779 7.03864,20.03504 9.71875,30.3125 -2.30404,-5.20332 -2.63151,-11.42076 -5.71875,-16.21875 -3.17129,-0.8966 -3.17088,4.28736 -4.3125,6.1875 -2.47025,8.67848 -3.45703,17.84398 -2.96875,26.90625 l -6.8125,0 0,116 26.625,0 0,38.65625 197.5,0 0,-114.03125 -39.34375,0 c 1.36178,-1.07982 2.58318,-2.35445 3.59375,-3.9375 1.54658,-0.2127 3.53422,1.93529 5.5,1.15625 10.13414,-2.6222 19.48542,-11.31728 19.875,-22.25 1.45174,-11.38421 0.44079,-23.21259 2.21875,-34.53125 2.32097,-8.80907 6.53419,-17.33162 5.5625,-26.65625 0.14984,-19.99605 1.74108,-40.58564 -4.96875,-59.78125 -5.15523,-20.01798 -8.26622,-41.14776 -17.96875,-59.625 -2.88896,-6.12027 -10.98782,-5.54688 -15.96875,-2.53125 -5.7408,3.19288 -11.70976,7.6668 -14.125,13.90625 1.25705,2.99304 4.33511,-0.82954 5.90625,-1.84375 3.96939,-3.53103 10.05434,-5.57609 15.21875,-3.96875 -0.25843,6.8e-4 -0.47503,0.11601 -0.75,0.21875 -0.90912,1.43669 0.35302,3.22096 0.375,4.75 0.51557,1.63034 -0.16542,4.33341 1.875,5.03125 0.43488,0.0727 0.85421,0.0234 1.21875,-0.0937 -4.17168,3.52144 -9.14286,5.64256 -14.3125,7.0625 1.16808,-0.34716 2.21047,-1.58107 1.25,-2.71875 -1.6595,-1.89305 -3.48543,-3.63107 -5.09375,-5.5625 -0.41174,-0.33209 -0.90416,-0.71152 -1.46875,-0.625 -2.19201,0.88383 -3.69572,2.99669 -5.15625,4.78125 -1.19695,1.01941 -0.69417,2.47931 0.5,3.1875 2.86961,1.49877 6.30522,1.47947 9.4375,1.03125 0.16749,-0.009 0.33154,-0.0458 0.5,-0.0937 -3.14708,0.86263 -6.35852,1.48153 -9.53125,1.96875 -0.93679,1.70158 -3.88762,-2.88609 -5.4375,-3.9375 -2.23879,-2.25822 -5.32739,-5.34377 -3.125,-8.71875 6.40272,-11.85112 15.14785,-24.86295 29.3125,-28.03125 2.65062,-0.2748 3.95579,-2.87505 2.1875,-4.96875 -9.21311,-20.21336 -18.68067,-40.43552 -29.40625,-59.875 -4.49902,-6.39918 -11.18055,-13.24897 -19.4375,-13.71875 z m 47.46875,100.4375 c 0.72468,0.25485 1.41753,0.59001 2.09375,1 2.19676,1.64657 3.32166,4.75351 2.03125,7 0.48601,-1.10581 0.51568,-2.46624 -0.0625,-3.46875 -0.87717,-1.85966 -2.42899,-3.32308 -4.0625,-4.53125 z M 465.8125,257.25 c 5.10572,18.44097 5.07869,12.77278 -3.28125,14.25 -16.60221,0.0748 -33.34274,-0.15632 -49.84375,1.4375 -11.35257,1.9595 -20.83747,8.92372 -29.21875,16.46875 4.55157,-9.19332 8.94398,-19.72871 18.84375,-24.40625 5.24499,-3.76424 12.22045,-1.38521 18.28125,-2.28125 13.76675,-0.75835 27.91189,0.37308 41.375,-2.84375 1.63471,-0.11648 3.23033,-2.68002 3.84375,-2.625 z m -33.34375,20.9375 c 3.6885,0.25102 10.03767,-0.29433 10.90625,4.46875 0.06,1.39954 0.70958,3.96411 -0.96875,2.03125 -3.28678,0.16943 -5.69057,3.40396 -9.03125,3.96875 -10.26101,3.35044 -20.74779,7.25697 -31.6875,7.0625 -2.03308,-0.35327 -4.88575,-0.46232 -6.15625,-2.3125 9.27021,-9.73846 23.69912,-14.67896 36.9375,-15.21875 z m 1.875,0.21875 c -1.2038,0.1287 -2.19789,1.12021 -2.25,2.375 -0.21696,2.27557 -0.18238,4.60683 -0.0937,6.875 0.34212,1.39129 1.918,0.56077 2.6875,0.0313 2.33432,-1.30067 5.34841,-2.68879 5.84375,-5.625 0.12512,-2.30299 -2.39014,-3.60588 -4.40625,-3.625 -0.41777,-0.0295 -0.86255,-0.0453 -1.28125,-0.0313 -0.17855,-0.0192 -0.32803,-0.0184 -0.5,0 z M 411.75,284.5 c -3.12371,0.76888 -5.9894,2.34462 -8.78125,3.90625 -1.58607,1.07142 -3.49364,2.14525 -4.1875,4.03125 -0.33524,1.75741 1.71836,2.50233 3.09375,2.6875 4.65315,0.60475 9.50475,-0.26639 13.75,-2.21875 1.23631,-0.60145 1.18201,-2.20837 0.4375,-3.1875 -1.03034,-1.71183 -1.8576,-3.63866 -3.34375,-5 -0.28289,-0.19006 -0.63245,-0.25101 -0.96875,-0.21875 z m -122.375,17.875 c -0.45339,10e-4 -0.89294,0.0273 -1.34375,0.0625 -9.86169,0.61092 -17.92137,10.13697 -16.5625,20 -1.0465,13.48152 7.30502,25.20716 15.53125,35 8.92249,10.59147 21.90114,16.1191 32.34375,24.78125 4.47149,4.45413 11.10267,3.4093 16.625,2.0625 4.60916,-3.14032 5.14188,-9.60489 6.125,-14.6875 1.25542,-9.64326 -4.70234,-18.2291 -9.0625,-26.28125 -9.78989,-14.28143 -21.91345,-26.77428 -34.625,-38.375 -2.65212,-1.75104 -5.8575,-2.56998 -9.03125,-2.5625 z m 1.15625,7.5 c 2.59246,0.007 5.49616,1.7714 5.875,4.21875 -0.5553,1.10338 -3.90506,3.07801 -1.65625,0.9375 1.68792,-4.05024 -4.42898,-5.36507 -7.3125,-4.625 -6.8292,1.54121 -8.2919,9.95945 -8.34375,15.9375 0.67389,12.15151 9.38172,22.08679 18.0625,29.875 1.38966,1.30815 7.07824,5.09106 2.8125,2.25 -11.86083,-8.19781 -22.94377,-21.46235 -21.3125,-36.71875 0.73955,-5.73524 3.91655,-12.60115 10.78125,-11.78125 0.3491,-0.0748 0.7234,-0.0947 1.09375,-0.0937 z m 228.34375,1.46875 c 1.94948,2.35202 4.76317,3.27258 7.34375,4.625 -2.32193,-0.98411 -5.19566,0.13788 -5.25,2.96875 -0.72147,7.06021 -6.46987,12.78935 -13.46875,13.90625 -1.2201,0.25093 -1.87862,0.36876 -2.125,0.40625 0.38037,-0.1374 2.48489,-0.73782 3.9375,-1.28125 5.66143,-1.43154 9.47353,-6.4482 10.09375,-12.15625 0.86732,-2.728 0.43505,-6.54582 -0.53125,-8.46875 z m -50.59375,8.53125 c -0.3051,4.59908 -2.91943,11.12336 1.46875,14.53125 6.03865,1.983 12.50911,-0.44147 18.28125,-1.9375 1.75263,0.4078 5.40391,1.74377 5.84375,1.6875 -7.10837,-0.43129 -14.1065,1.48251 -21.0625,1.5 -5.0885,-0.22967 -6.25186,-5.95139 -6.625,-10.0625 0.10983,-3.09795 -3.51264,-2.83132 -4.5625,-0.5625 -1.69866,2.12741 -3.34478,4.92581 -0.9375,1 1.10708,-2.33166 3.26367,-3.19703 5.59375,-3.46875 1.08815,-0.30534 1.95063,-2.69492 2,-2.6875 z m -159.09375,8.75 c 1.39123,0.0712 3.1297,2.91345 0.96875,1.25 -1.78844,-0.59679 -3.72779,-0.0365 -5.375,0.71875 1.29613,-0.79051 2.61557,-1.6733 4.125,-1.9375 0.0883,-0.0221 0.1885,-0.036 0.28125,-0.0313 z m 222.71875,5.125 c 2.99106,0.13635 8.29158,-0.44065 8.375,3.90625 0.3325,3.70454 0.36271,8.36374 -0.125,11.59375 -4.69487,-4.92317 -12.31006,-1.58802 -17.90625,-0.46875 -22.52988,5.82278 -45.01046,14.181 -62.9375,29.4375 -2.99615,2.33162 -5.5234,7.25847 -7.15625,9.21875 -0.70298,-6.18435 -2.05169,-13.02354 -0.59375,-19.1875 4.56938,-5.84248 11.57728,-9.30932 17.34375,-13.875 10.4379,-7.32982 21.6057,-14.19997 34.34375,-16.34375 9.44649,-2.12358 19.01975,-3.97451 28.65625,-4.28125 z m -218.6875,2.28125 c 0.89391,4.25363 2.75747,11.07764 8.46875,9.9375 1.48696,0.0114 4.51356,-1.89428 3.96875,0.90625 1.37972,6.99941 -3.41525,13.48243 -9.6875,15.96875 -1.7782,0.93891 -4.11413,0.79549 -6.15625,0.34375 3.83227,0.57483 7.80612,-0.86648 10.59375,-3.78125 3.93419,-2.43246 6.99965,-8.3631 3.25,-12.25 -2.91733,-0.79489 -6.68385,-0.25452 -8.375,-3.53125 -1.48179,-2.12502 -2.25865,-5.64267 -2.0625,-7.59375 z M 529.625,357.25 c 1.83454,0.0408 -0.0544,3.08034 -0.1875,4.09375 -2.0554,8.18972 0.34938,18.51857 -7.21875,24.34375 -7.4149,6.84241 -18.28618,8.4795 -27.9375,6.4375 -8.50893,-1.55651 -17.31011,-1.38941 -25.625,-3.5 -1.02822,-1.35105 1.90473,-3.53122 2.5625,-4.6875 7.54843,-7.42657 18.53578,-9.8347 27.78125,-14.625 10.04282,-3.96431 19.75402,-9.49866 30.1875,-12.03125 0.1571,-0.0254 0.3152,-0.034 0.4375,-0.0313 z m -225,3.96875 c 0.049,0.0177 0.22141,0.11474 0.625,0.34375 0.0128,0.0121 -0.007,0.0233 0,0.0313 -0.17415,-0.0751 -0.73517,-0.41484 -0.625,-0.375 z M 517.75,362.5 c -3.44164,0.74658 -6.39066,2.88209 -9.625,4.21875 -7.21616,3.32539 -14.53417,6.52016 -22.15625,8.6875 -1.5502,0.23194 -2.50486,2.34999 -0.9375,3.25 3.31479,1.73301 7.29328,1.02709 10.90625,1.0625 6.63326,-0.12973 13.18523,-2.04862 18.96875,-5.28125 3.71662,-2.09859 5.38891,-6.74572 4.65625,-10.8125 -0.25494,-0.74387 -1.03133,-1.2208 -1.8125,-1.125 z m 2.625,16.1875 c -6.44248,1.0911 -12.40926,4.35445 -18.9375,5.375 -5.60249,1.29639 -11.62288,1.37974 -16.875,3.84375 -1.44797,2.22321 2.30651,2.38818 3.65625,2.5 9.24145,0.72978 19.17873,1.70745 27.875,-2.15625 3.37102,-1.85806 7.69842,-3.56274 9.34375,-7.28125 0.0794,-2.49608 -3.39401,-2.24815 -5.0625,-2.28125 z m 9.46875,35.25 c -0.01,0.0375 -0.77004,0.61343 -0.875,0.71875 -7.49046,6.23875 -17.38977,7.09777 -26.84375,8.5 9.61332,-1.56338 19.40392,-3.24192 27.4375,-9.03125 0.21437,-0.14268 0.28453,-0.2 0.28125,-0.1875 z m -73.5625,16.25 c 2.23277,6.00367 4.90471,12.54928 9.65625,16.90625 l -11.5,0 c 0.0402,-0.1489 0.0732,-0.32105 0.0937,-0.5 0.92043,-5.41916 1.03401,-11.02571 1.75,-16.40625 z"
         transform="translate(102.10275,153.78576)"
         id="path4238"
         style="fill:#ffffff;fill-opacity:1;stroke:none" />
      <path
         d="m 195.03678,689.28371 0,-25.8544 6.75,-5.98503 c 10.18592,-9.03155 23.75603,-17.72217 41.7052,-26.70897 33.95444,-17.00033 59.078,-26.81283 123.0448,-48.05756 52.32161,-17.37711 66.70974,-22.82311 69.85081,-26.43898 0.76476,-0.88036 1.63162,-4.41983 1.92635,-7.8655 0.62659,-7.32533 -0.22892,-8.23515 -7.74354,-8.23515 -5.61803,0 -10.2188,-1.8563 -13.53362,-5.46048 -1.375,-1.49502 -6.2652,-4.81552 -10.8671,-7.37887 -13.11032,-7.30272 -22.86703,-17.64207 -29.92587,-31.71293 -3.66069,-7.29711 -6.47975,-16.57346 -5.67441,-18.67214 0.32247,-0.84035 -0.11545,-4.23609 -0.97315,-7.54609 -0.85771,-3.31 -1.55947,-7.0818 -1.55947,-8.38179 0,-1.29999 -1.12555,-4.47796 -2.50123,-7.06215 -2.68336,-5.04069 -4.03842,-10.30044 -5.49563,-21.3316 -1.11116,-8.41153 -3.53845,-23.82557 -4.40199,-27.95395 -0.34513,-1.65 -1.06621,-5.025 -1.60239,-7.5 -2.53145,-11.68503 -2.85945,-17.45149 -1.86301,-32.75271 0.86479,-13.27956 1.39715,-16.48964 3.39715,-20.48443 1.30441,-2.60543 2.68261,-6.43043 3.06267,-8.5 1.2593,-6.85732 10.65832,-21.4502 19.22428,-29.84749 1.27591,-1.2508 3.07591,-4.22528 4,-6.60997 2.55383,-6.59042 19.12426,-20.84474 28.49196,-24.50955 2.3035,-0.90117 6.03582,-2.88838 8.29403,-4.41603 6.20087,-4.19479 30.81036,-14.89265 34.20023,-14.867 3.00226,0.0227 16.60016,-3.15145 19.69393,-4.59717 3.03885,-1.42005 18.02294,-4.81605 29,-6.57256 8.74978,-1.40011 35.64884,-1.76867 45.5,-0.62341 12.07206,1.40345 21.56105,6.63864 27.20591,15.00982 0.93825,1.3914 4.08825,3.87631 7,5.52202 6.81589,3.85232 14.30588,11.89957 17.24572,18.52881 1.27312,2.87082 3.31661,6.11967 4.5411,7.21967 3.65195,3.28067 8.55887,11.33208 13.97432,22.92944 7.72487,16.54305 10.8241,27.26969 13.11917,45.40638 0.53342,4.2153 1.3921,10.98655 1.90818,15.04723 0.51607,4.06068 1.37232,8.78568 1.90276,10.5 0.53045,1.71432 1.27079,5.53747 1.64522,8.49589 0.37442,2.95842 2.44261,10.60842 4.59599,17 5.01783,14.89379 6.43364,20.39727 8.89742,34.58581 1.10587,6.36849 2.86914,13.75703 3.91838,16.41897 3.18575,8.08232 3.99502,15.64419 4.13272,38.61628 0.1318,21.98924 0.13023,22.00611 -3.21701,34.5 -3.07477,11.4769 -3.33464,13.57982 -3.17507,25.693 0.0956,7.25614 0.63705,14.05857 1.20324,15.1165 1.31324,2.45381 6.10644,4.02557 92.10195,30.20154 81.15637,24.70299 92.18077,28.38753 106.75,35.67767 l 3.25,1.62623 0,36.84253 0,36.84253 -128.55902,0 c -70.70746,0 -128.36152,-0.3375 -128.12014,-0.75 2.04882,-3.50123 13.57468,-34.29258 13.65312,-36.47432 0.048,-1.33475 -5.42081,-3.56279 -23.50641,-9.5767 -19.45341,-6.46875 -32.46755,-8.81659 -32.46755,-5.85738 0,0.84952 2.38456,4.38269 5.29903,7.85149 2.91446,3.4688 6.22947,7.65691 7.36668,9.30691 2.31242,3.35514 18.33429,33.79744 18.33429,34.83601 0,0.3652 -9.03032,0.66399 -20.06739,0.66399 -18.64515,0 -20.03017,-0.12403 -19.54234,-1.75 0.28878,-0.9625 1.46835,-5.3197 2.62127,-9.68267 1.15292,-4.36296 2.30494,-8.2704 2.56006,-8.68318 0.25511,-0.41278 0.84929,-2.81373 1.3204,-5.33543 0.75977,-4.06685 0.68252,-4.44164 -0.6836,-3.31682 -1.33253,1.09716 -1.4561,0.93109 -0.91663,-1.2319 l 0.62353,-2.5 -10.90244,0.33701 c -7.94294,0.24553 -12.41969,-0.10407 -16.49185,-1.28788 -3.07418,-0.89369 -5.98103,-1.38286 -6.45966,-1.08705 -2.03228,1.25602 -0.36188,22.55134 2.57188,32.78792 0.46142,1.60999 -0.6733,1.75 -14.18247,1.75 l -14.68402,0 0.63028,-2.25 c 0.34666,-1.2375 1.34531,-5.85 2.21921,-10.25 1.94216,-9.77853 4.12143,-15.4544 13.80757,-35.96162 6.59368,-13.95998 7.37799,-16.2043 6.25425,-17.89675 -0.70668,-1.06432 -8.89704,-6.48159 -18.20079,-12.03838 -13.61869,-8.13394 -18.74733,-11.85752 -26.31173,-19.10325 -22.80425,-21.84357 -31.12261,-36.1934 -31.15798,-53.75 -0.008,-4.13397 -1.43085,-5.03155 -2.37726,-1.5 -1.10851,4.13638 -0.63896,23.15163 0.78402,31.75 1.45499,8.79184 6.12339,23.14864 10.08027,31 2.97089,5.89492 12.79626,29.94131 17.15664,41.98878 3.13415,8.65948 9.92066,24.51169 17.45147,40.76389 1.59352,3.43897 2.89731,6.47647 2.89731,6.75 0,0.27353 -65.25,0.49733 -145,0.49733 l -145,0 0,-25.85441 z m 357.51641,-10.15573 c 3.50481,-2.1661 3.67719,-2.51393 3.16694,-6.39032 -0.42829,-3.25368 -1.43137,-4.87231 -4.86149,-7.84482 -2.77235,-2.40249 -5.21818,-3.68971 -6.82186,-3.5903 -1.375,0.0852 -7,-0.17402 -12.5,-0.57612 -10.33256,-0.75542 -13.41856,0.0147 -14.11945,3.52337 -1.93546,9.68905 -1.40938,11.2707 4.82032,14.4922 7.52758,3.89267 24.29616,4.10617 30.31554,0.38599 z m 6.97113,-27.86073 c 7.68147,-3.42959 12.51246,-8.91386 12.51246,-14.20447 0,-1.92395 0.37468,-2.09758 3.25,-1.50601 20.28758,4.17391 38.8667,4.71144 48.98817,1.41734 8.2197,-2.67516 8.20635,-3.52419 -0.0219,-1.39203 -12.43067,3.22111 -37.10001,0.43283 -47.94988,-5.41959 -6.52376,-3.51892 -14.29509,-12.48746 -17.5306,-20.23128 -1.86216,-4.45685 -2.34568,-4.8474 -9.10122,-7.35125 -14.78071,-5.47825 -16.45949,-7.30936 -3.11294,-3.39539 3.8381,1.12555 7.54117,2.13805 8.22905,2.25 0.9147,0.14887 1.36817,-2.71256 1.68796,-10.65107 0.24049,-5.97004 0.64622,-11.06359 0.90163,-11.319 0.25542,-0.25541 1.44288,2.15417 2.63882,5.35462 4.37951,11.72002 6.95505,15.30591 12.98925,18.0848 4.94622,2.27785 6.78447,2.54628 17.36941,2.53635 14.85989,-0.0139 26.41638,-2.52528 27.74893,-6.03015 0.47509,-1.2496 1.32495,-2.272 1.88856,-2.272 0.56361,0 1.03906,-0.7875 1.05655,-1.75 0.0303,-1.66667 0.0951,-1.66667 1.36025,0 2.19244,2.88818 6.79651,2.11751 13.1628,-2.20329 9.47982,-6.43396 11.27308,-11.76102 11.29667,-33.5577 0.009,-8.26719 0.50051,-16.28472 1.09417,-17.84616 0.59286,-1.55934 2.19761,-6.81752 3.56612,-11.68485 2.33286,-8.29722 2.486,-10.30448 2.45306,-32.15384 -0.0358,-23.74658 -0.83914,-31.00919 -4.3397,-39.23265 -0.91975,-2.16068 -2.59757,-9.0967 -3.72849,-15.41338 -3.00279,-16.77201 -10.90653,-41.94564 -15.25176,-48.5773 -3.94974,-6.02806 -14.91652,-3.21631 -23.70682,6.07814 -5.25481,5.55618 -6.15953,8.76086 -1.17767,4.17149 5.27019,-4.85498 7.50761,-5.83046 13.37318,-5.83046 5.13926,0 5.94163,0.3007 8.30875,3.11386 3.14927,3.7427 2.73697,6.21878 -1.68095,10.09506 -3.9535,3.4688 -14.71986,7.79108 -19.40678,7.79108 l -3.62434,0 2.84949,2.24141 c 2.22019,1.7464 4.47162,2.32331 10.19463,2.61231 6.79589,0.34318 7.73326,0.13596 12.53537,-2.77111 l 5.19023,-3.14202 -3.5,3.01494 c -5.98792,5.15806 -12.70789,6.20543 -22.0685,3.43959 -4.18271,-1.2359 -6.75352,-2.92348 -11.1815,-7.34 -3.57497,-3.56572 -5.75,-6.58074 -5.75,-7.97065 0,-3.25569 7.17626,-15.02199 13.14501,-21.55276 5.64646,-6.17813 10.79415,-9.28419 17.19874,-10.37753 2.28594,-0.39024 3.98441,-1.14708 3.77439,-1.68186 -0.34992,-0.89101 -7.01016,-14.67349 -23.66537,-48.97232 -7.21146,-14.85087 -11.31357,-20.17183 -18.41303,-23.88404 -6.4696,-3.38286 -8.91033,-3.29675 -13.65224,0.48164 -2.13812,1.70368 -5.81135,4.22809 -8.16271,5.6098 -4.24042,2.49175 -5.13761,2.54506 -12.45654,0.74011 -2.3096,-0.56958 -2.88172,-0.27926 -3.70214,1.8786 -1.37954,3.62846 -3.97558,4.6689 -11.75037,4.70932 -7.43,0.0386 -10.04062,1.05268 -13.25137,5.14725 -1.54242,1.96699 -3.63236,2.98889 -7.83399,3.83051 -3.15171,0.6313 -7.61715,1.5616 -9.9232,2.06732 -2.30605,0.50572 -5.77689,0.91949 -7.71298,0.91949 -1.93609,0 -5.89932,0.98999 -8.80718,2.19998 -4.76023,1.98078 -7.18016,2.21482 -24.28702,2.34888 -20.5821,0.16129 -24.32283,0.80479 -26.27995,4.52085 -1.31673,2.50011 -1.2551,4.36995 0.62392,18.93029 1.7119,13.26535 3.27728,49.11044 2.29396,52.52847 -0.47919,1.66566 -1.83125,4.91023 -3.00459,7.21016 -2.72097,5.33353 -2.82218,13.93445 -0.24432,20.76137 1.03841,2.75 2.39512,7.7 3.01491,11 1.18256,6.29634 3.95655,16.70543 7.27056,27.28196 3.34563,10.67744 1.90114,22.50164 -3.07418,25.16436 -1.8057,0.96638 -1.63139,1.70474 3.40961,14.44309 2.92192,7.38356 6.07372,16.72898 7.00399,20.76762 3.59813,15.62072 5.89029,20.85175 12.22361,27.89593 2.60791,2.90062 3.79555,4.76752 2.63921,4.14866 -5.57607,-2.98422 -13.52701,-16.22383 -16.33571,-27.20162 -0.63324,-2.475 -1.8737,-6.74592 -2.75657,-9.49094 l -1.60524,-4.99094 -2.43485,6.99094 c -5.19697,14.92153 -3.99545,38.5543 2.56704,50.49094 10.36351,18.85041 30.98207,39.31417 48.54368,48.17924 11.4204,5.765 22.78954,13.74363 23.94465,16.80387 0.96782,2.56405 1.78342,3.00763 7.14639,3.88671 3.32963,0.54579 11.00388,0.87844 17.05388,0.73923 8.83744,-0.20335 11.98053,-0.69089 15.98754,-2.47992 z m 33.94555,-72.02087 c 1.28483,-2.07889 5.68735,-3.32482 14.56691,-4.12249 9.12611,-0.81982 17.23061,-3.77167 23.51431,-8.56448 3.65386,-2.78694 5.7922,-2.70047 3.43571,0.13894 -2.0484,2.46816 -9.0474,6.9813 -12.95002,8.35051 -1.925,0.67537 -8.45,1.82922 -14.5,2.56412 -6.05,0.73489 -11.86132,1.68016 -12.91404,2.10059 -1.38776,0.55424 -1.70475,0.42578 -1.15287,-0.46719 z m 3.06691,-32.15153 c -3.3,-0.43432 -8.25,-1.0931 -11,-1.46397 -2.75,-0.37086 -7.475,-0.82455 -10.5,-1.00818 -6.62182,-0.40197 -7.39958,-1.96086 -3.51757,-7.05043 2.81343,-3.68859 9.02356,-7.18539 22.01757,-12.39763 4.4,-1.76496 12.95,-5.48901 19,-8.27567 19.87851,-9.15615 23.83539,-9.51294 20.31013,-1.8314 -1.45489,3.17021 -1.87369,5.59017 -1.47316,8.51233 1.36687,9.97246 -4.36837,18.18138 -15.65221,22.40321 -6.00481,2.24668 -9.16831,2.43001 -19.18476,1.11174 z m 22.26632,-6.42606 c 2.85434,-1.55353 5.92511,-3.63721 6.82394,-4.63041 1.53268,-1.69359 1.46651,-1.84791 -1.06493,-2.48326 -1.81234,-0.45487 -4.23127,0.0166 -7.36225,1.43492 -4.79917,2.17402 -16.59782,5.14377 -20.47513,5.15366 -1.20337,0.003 -3.98795,0.55668 -6.18795,1.23026 l -4,1.22468 6,0.65835 c 12.10686,1.32841 20.60958,0.49058 26.26632,-2.5882 z m -8.22281,-10.63283 c 7.2044,-2.69552 9.4029,-4.68326 10.11775,-9.14784 0.72166,-4.50717 0.0831,-4.62592 -6.35835,-1.18251 -6.40451,3.42366 -20.00668,9.0165 -24.05291,9.88989 -4.53216,0.97829 -4.05312,2.34661 1,2.85636 6.51866,0.6576 13.37273,-0.20065 19.29351,-2.4159 z M 553.143,541.39455 c -0.64562,-1.55866 -1.27113,-6.5753 -1.39004,-11.1481 l -0.21618,-8.31419 4.87255,-4.42043 c 5.35118,-4.85465 25.08317,-18.18099 32.45945,-21.92204 6.58029,-3.33736 29.93573,-8.59647 40.88797,-9.20704 7.51461,-0.41893 9.68793,-0.20738 11.75,1.14374 2.37505,1.55619 2.53003,2.17338 2.53003,10.07567 0,8.30287 -1.20322,11.84673 -2.40139,7.07285 -1.10903,-4.41874 -7.49627,-4.42601 -21.09861,-0.024 -2.2,0.71196 -8.05,2.52731 -13,4.0341 -4.95,1.50679 -10.575,3.51354 -12.5,4.45945 -1.925,0.94591 -7.4433,3.61488 -12.26288,5.93105 -12.58189,6.04653 -22.60651,13.84551 -25.84709,20.10858 l -2.60996,5.04429 -1.17385,-2.83393 z m -12.10622,-24.82646 c 0,-0.56816 2.91266,-5.45078 6.47259,-10.85026 3.55992,-5.39948 7.41491,-12.3513 8.56664,-15.44848 4.07532,-10.95915 8.68016,-16.65876 11.86748,-14.68889 1.09125,0.67443 3.04972,-7.74788 3.19538,-13.74156 l 0.10209,-4.20078 1.07157,3.35111 c 0.78441,2.45307 0.74227,4.99889 -0.15723,9.5 -2.35657,11.79227 -2.43494,14.18962 -0.52623,16.09833 2.18145,2.18144 10.21305,1.79188 15.29174,-0.7417 2.96718,-1.48023 3.57309,-1.50097 5.44967,-0.18656 4.97762,3.48646 21.38746,0.19135 25.57802,-5.13609 1.08128,-1.37462 2.26663,-4.96441 2.64852,-8.02094 0.59178,-4.73643 0.38533,-5.9465 -1.43449,-8.40793 -1.16916,-1.58138 -2.12575,-3.12883 -2.12575,-3.43878 0,-1.29301 4.97195,2.81883 5.52839,4.57202 0.37088,1.16852 1.52142,1.91054 2.9624,1.91054 1.29581,0 4.40193,1.56168 6.90248,3.47039 2.50055,1.90872 7.20602,4.81294 10.4566,6.45382 4.37687,2.20944 6.08361,3.6746 6.5788,5.64761 0.36777,1.4653 0.42177,2.91108 0.12,3.21285 -0.30177,0.30176 -0.54867,-0.1229 -0.54867,-0.94369 0,-2.00727 -3.71714,-5.20974 -8,-6.89234 -1.925,-0.75628 -5.44697,-2.8541 -7.8266,-4.66184 -2.37962,-1.80774 -5.41712,-3.2868 -6.75,-3.2868 -2.06666,0 -2.42395,0.47842 -2.42714,3.25 -0.004,3.83011 -2.91331,8.99432 -6.32582,11.23028 -5.4417,3.56554 -17.28126,5.83951 -23.33736,4.48231 -3.54636,-0.79475 -5.78542,-0.65856 -10.38345,0.63158 -10.28221,2.88504 -16.40418,0.0211 -16.40418,-7.67404 0,-7.36214 -3.62632,-4.38107 -8.99117,7.39132 -1.94202,4.26148 -5.10173,10.09723 -7.02158,12.96834 -6.73286,10.0689 -10.5327,15.17381 -10.5327,14.15018 z m -10.48213,-56.06723 c 8.82035,-5.84148 14.40265,-13.21988 14.46017,-19.11274 0.0224,-2.2982 -1.37988,-3.02686 -2.46044,-1.27847 -1.44097,2.33154 -16.3591,7.3497 -29.87951,10.05087 -6.7667,1.35188 -13.89007,0.58383 -15.78731,-1.7022 -1.12658,-1.35745 -0.78106,-2.0414 2.43636,-4.82264 8.4322,-7.28906 23.25458,-12.88187 34.27697,-12.93345 10.56213,-0.0494 13.44023,1.60311 13.42612,7.70894 -0.0189,8.18224 -6.02492,17.15449 -15.10826,22.56991 -5.11395,3.04889 -6.14489,2.68596 -1.3641,-0.48022 z m -16.41709,-13.5112 c 4.44531,-1.50188 4.3221,-1.2581 2.28178,-4.51478 -0.97748,-1.56022 -1.84047,-2.95129 -1.91774,-3.09127 -0.39424,-0.71414 -7.38429,2.40356 -10.26718,4.57936 -2.44314,1.84392 -2.9635,2.70733 -2,3.31846 1.87822,1.19132 7.95428,1.04239 11.90314,-0.29177 z m 27.31191,-10.48461 c 0.75894,-1.97776 -0.91998,-3.32955 -4.16269,-3.35162 -1.96326,-0.0134 -2.25,0.49772 -2.25,4.01037 l 0,4.02568 2.87882,-1.48869 c 1.58335,-0.81879 3.17359,-2.25687 3.53387,-3.19574 z m -57.92761,8.63307 c 1.37356,-4.41858 7.6839,-16.39007 10.56918,-20.05104 1.53925,-1.95307 5.19424,-4.87807 8.12219,-6.5 l 5.32355,-2.94896 26,-0.54089 c 21.18664,-0.44076 26.69423,-0.84786 29.75,-2.19898 2.29862,-1.01634 3.76231,-2.35514 3.7818,-3.4591 0.0301,-1.70427 0.10782,-1.70066 1.44676,0.0673 3.516,4.64255 5.74292,25.05188 3.45143,31.63169 -0.70924,2.03652 -0.80414,1.75844 -0.51188,-1.5 0.54101,-6.03172 -1.29535,-12.50283 -3.82047,-13.46288 -1.1693,-0.44457 -4.81963,-0.36518 -8.11182,0.17642 -3.2922,0.5416 -12.15804,0.72423 -19.70186,0.40583 -25.62741,-1.08161 -37.14661,2.24133 -50.24866,14.49522 -5.36759,5.02013 -6.66121,5.85088 -6.05022,3.88541 z m -46.1482,92.06202 c 2.74321,-1.04297 4.18878,-4.5033 5.66154,-13.55233 0.87085,-5.35067 0.70374,-6.36416 -2.19894,-13.33671 -5.33246,-12.80915 -12.56881,-22.55946 -29.92808,-40.32529 -10.67198,-10.92191 -11.68919,-11.69782 -16.22805,-12.37846 -13.25466,-1.98766 -21.56364,7.13117 -20.45562,22.44937 1.07087,14.80464 17.83358,37.26844 33.31094,44.64018 2.75073,1.31016 7.84252,4.8704 11.31509,7.91166 5.80637,5.0852 6.7052,5.52956 11.1849,5.52956 2.67913,0 5.98133,-0.42209 7.33822,-0.93798 z m -26.33688,-18.99915 c -10.18093,-3.11625 -22.82244,-14.42892 -28.36475,-25.3831 -3.66392,-7.24161 -4.5518,-15.9913 -2.23762,-22.05089 2.18872,-5.73109 4.57386,-7.75959 9.81179,-8.34467 3.37104,-0.37654 4.87995,-0.0142 7.04058,1.69085 1.5125,1.19355 2.75,2.58744 2.75,3.09752 0,2.1571 -4.13924,4.92394 -7.25,4.8462 l -3.25,-0.0812 2.50463,-1.16878 c 4.71923,-2.20222 5.19697,-2.72094 3.92148,-4.25781 -1.34713,-1.6232 -6.21022,-1.86447 -8.8716,-0.44014 -2.36912,1.26791 -5.05599,8.07932 -5.04893,12.79941 0.009,5.69814 1.63401,10.36833 5.85991,16.83606 7.76413,11.88299 18.8858,20.35925 26.74567,20.38393 4.1794,0.0131 13.03553,-7.93612 11.89947,-10.68094 -0.41187,-0.99511 -0.77025,-2.40466 -0.79641,-3.13234 -0.0291,-0.80825 -0.80006,-1.12626 -1.98154,-0.8173 -5.19156,1.35761 -9.73268,-4.14386 -9.73268,-11.79096 0,-4.03631 -0.28153,-4.60126 -2.58043,-5.17825 -1.77054,-0.44438 -3.4183,-0.0379 -5.25,1.29509 -4.97721,3.62208 -5.49575,3.79243 -4.20552,1.38162 1.31865,-2.46391 6.73072,-6.05781 9.13096,-6.06343 2.71775,-0.006 4.74035,3.27441 5.48655,8.89952 1.07744,8.12217 4.16089,10.3687 10.52957,7.67164 1.29487,-0.54837 1.72304,0.15204 2.18123,3.56811 0.79349,5.91595 -1.22864,10.05852 -6.9633,14.26511 -4.88903,3.58629 -6.81287,4.03711 -11.32906,2.65475 z m 201,-102.00617 c 0,-0.51881 -0.82217,-1.53131 -1.82705,-2.25 -1.00488,-0.71868 -2.26412,-2.10107 -2.7983,-3.07196 -0.88184,-1.60279 -1.24128,-1.48339 -3.90538,1.29733 -2.44946,2.55669 -2.68926,3.21743 -1.45171,3.99995 1.93703,1.22479 9.98244,1.24469 9.98244,0.0247 z m 14.79402,-8.6902 c 0.16171,-1.08727 -0.69643,-2.85202 -1.90699,-3.92167 l -2.20101,-1.94483 0.64333,2.5 c 0.35384,1.375 0.64949,3.325 0.657,4.33333 0.018,2.41442 2.42821,1.58444 2.80767,-0.96683 z"
         id="path4230"
         style="fill:#000000" />
    </g>
  </g>
</svg>
