<?xml version="1.0" standalone="no"?>
<!DOCTYPE svg PUBLIC "-//W3C//DTD SVG 20010904//EN"
 "http://www.w3.org/TR/2001/REC-SVG-20010904/DTD/svg10.dtd">
<svg version="1.0" xmlns="http://www.w3.org/2000/svg"
 width="1280.000000pt" height="1221.000000pt" viewBox="0 0 1280.000000 1221.000000"
 preserveAspectRatio="xMidYMid meet">
<g transform="translate(0.000000,1221.000000) scale(0.100000,-0.100000)"
fill="#000000" stroke="none">
<path d="M5440 12178 c-78 -38 -184 -140 -193 -184 -8 -40 -46 -57 -212 -91
-179 -36 -204 -38 -211 -20 -8 23 13 55 49 73 18 9 42 25 54 36 12 11 37 23
55 27 35 7 44 25 34 67 -7 28 -22 30 -68 7 -18 -9 -40 -19 -48 -23 -8 -4 -17
-16 -19 -26 -5 -31 -22 -44 -55 -44 -57 0 -139 -69 -100 -84 10 -4 14 -16 12
-33 -3 -25 -7 -28 -45 -31 -31 -2 -41 -7 -37 -17 5 -12 -10 -13 -93 -8 -111 6
-173 -10 -173 -45 0 -21 -18 -32 -55 -32 -44 0 -53 38 -12 53 20 7 23 47 5 65
-12 12 -58 17 -58 6 0 -3 10 -14 23 -24 26 -22 24 -23 -78 -43 -70 -13 -70
-13 -98 -65 -18 -33 -35 -52 -46 -52 -10 0 -21 -9 -24 -20 -3 -13 -11 -18 -20
-14 -9 3 -26 -1 -39 -10 -13 -8 -48 -18 -78 -22 -30 -3 -89 -17 -130 -30 -41
-12 -107 -27 -147 -32 -43 -6 -82 -18 -100 -31 -15 -11 -66 -29 -113 -41 -47
-11 -143 -38 -215 -60 -165 -49 -259 -70 -311 -70 -78 0 -218 -30 -279 -60
-67 -33 -195 -146 -195 -173 0 -10 12 -22 27 -28 16 -6 23 -13 17 -19 -8 -8
-92 -31 -166 -45 -16 -3 -28 -12 -28 -20 0 -8 -17 -19 -42 -26 -55 -14 -130
-64 -216 -145 -39 -35 -76 -64 -84 -64 -8 0 -23 9 -33 20 -27 30 -59 22 -63
-15 l-4 -29 20 23 c10 14 24 21 30 17 20 -12 13 -51 -14 -92 -47 -68 -54 -97
-54 -214 0 -117 -9 -150 -40 -150 -34 0 -51 -12 -71 -53 -12 -22 -39 -62 -60
-89 -44 -57 -52 -94 -18 -83 21 7 21 6 5 -16 -9 -13 -19 -44 -22 -70 -5 -34
-12 -49 -24 -52 -10 -2 -49 -44 -86 -93 -102 -131 -143 -173 -195 -199 -94
-48 -249 -282 -249 -377 0 -26 -6 -41 -21 -52 -20 -13 -20 -18 -9 -71 6 -31
25 -85 41 -120 17 -34 32 -79 36 -98 7 -46 -16 -66 -169 -148 -66 -35 -145
-86 -174 -113 -73 -65 -214 -294 -214 -346 0 -17 6 -20 39 -20 22 0 43 5 46
10 8 13 43 12 80 -4 l30 -12 -57 -26 c-31 -15 -77 -45 -102 -68 l-45 -42 6 51
c6 50 5 51 -21 51 -23 0 -26 -3 -21 -20 4 -14 -2 -28 -20 -46 -20 -20 -31 -24
-55 -19 -20 4 -30 3 -30 -5 0 -7 -23 -32 -50 -57 -89 -80 -272 -378 -256 -418
3 -8 -5 -31 -19 -50 -71 -105 -89 -559 -26 -645 29 -40 65 -48 99 -23 28 20
29 21 40 2 7 -11 23 -19 38 -19 40 0 161 61 259 132 80 57 194 128 207 128 3
0 10 -26 17 -57 16 -72 31 -95 83 -133 44 -33 78 -39 78 -15 0 19 9 19 34 0
11 -8 34 -15 51 -15 16 0 46 -9 66 -19 20 -11 54 -23 75 -27 22 -4 56 -13 76
-21 35 -14 39 -13 67 6 42 30 86 26 59 -7 -10 -11 -9 -17 6 -28 11 -7 16 -20
13 -29 -8 -18 4 -20 21 -3 15 15 15 51 1 65 -9 9 -7 11 9 6 11 -3 26 -19 33
-37 l13 -31 3 28 c7 46 39 35 74 -28 52 -93 139 -153 205 -142 28 5 33 2 36
-16 2 -18 11 -23 53 -27 33 -3 69 -17 105 -39 87 -53 179 -130 197 -165 9 -17
21 -34 27 -38 21 -14 82 -8 119 11 l38 19 24 -24 c28 -28 55 -22 55 12 0 32
12 30 38 -6 27 -35 42 -37 68 -9 42 47 119 64 145 33 8 -10 21 -13 36 -9 28 7
46 -2 102 -50 24 -19 52 -35 63 -35 11 0 32 -8 46 -19 15 -10 42 -26 60 -35
31 -16 35 -16 59 0 23 14 25 14 20 1 -9 -25 14 -37 56 -27 53 12 70 28 63 62
-3 15 -1 28 4 28 22 0 34 -53 41 -183 4 -75 12 -143 17 -150 6 -7 8 -24 5 -37
-4 -16 -1 -27 12 -36 10 -7 19 -28 20 -47 2 -43 76 -197 109 -228 34 -32 33
-63 -3 -89 -50 -35 -110 -51 -184 -48 l-68 3 -40 -43 c-28 -30 -38 -48 -34
-61 8 -26 -49 -91 -79 -91 -20 0 -66 -27 -133 -75 -20 -15 -25 -15 -71 1 -48
17 -50 17 -77 -4 -15 -12 -39 -22 -54 -22 -14 0 -32 -4 -40 -9 -11 -7 -10 -12
8 -22 31 -20 26 -29 -16 -29 -56 0 -146 -24 -184 -48 -19 -12 -49 -29 -66 -37
-24 -11 -41 -32 -64 -78 -40 -80 -56 -97 -91 -97 -43 0 -109 23 -104 37 3 6
-9 33 -26 59 -26 41 -29 54 -24 93 10 76 -58 331 -88 331 -6 0 -24 30 -40 66
-32 73 -62 100 -102 90 -40 -10 -84 -59 -84 -94 0 -18 -6 -32 -15 -36 -9 -3
-23 -22 -31 -41 -8 -20 -25 -40 -38 -45 -17 -6 -29 -24 -40 -57 -9 -27 -25
-56 -36 -66 -13 -11 -20 -29 -20 -51 0 -18 -8 -44 -19 -57 -42 -54 -124 -245
-162 -378 -21 -72 -61 -137 -157 -255 -97 -120 -97 -118 -30 -177 40 -35 57
-58 62 -83 7 -39 21 -53 56 -58 29 -4 41 -44 16 -54 -11 -4 -16 -20 -16 -53 0
-26 -4 -51 -10 -57 -6 -6 -4 -29 7 -63 15 -52 15 -56 -5 -97 -28 -56 -44 -149
-46 -257 -1 -78 1 -90 19 -103 18 -14 20 -25 18 -130 -1 -62 2 -114 6 -114 4
0 16 9 26 20 14 16 20 17 27 8 11 -18 10 -70 -2 -88 -9 -13 -11 -13 -19 0 -6
8 -13 11 -17 8 -7 -8 39 -93 56 -103 6 -3 10 3 10 14 0 30 15 26 41 -11 13
-18 44 -58 69 -88 25 -30 52 -68 60 -84 16 -31 77 -84 126 -109 51 -26 124
-162 144 -269 8 -41 19 -61 45 -85 24 -22 35 -40 35 -60 l-1 -28 -13 31 c-30
69 -66 52 -47 -22 7 -25 9 -49 6 -53 -11 -11 -45 40 -45 68 l-1 26 -19 -24
-20 -23 0 83 c-1 103 -13 160 -39 177 -15 10 -18 21 -15 45 6 34 -18 79 -33
64 -16 -17 -6 -115 16 -151 15 -23 20 -43 15 -59 -4 -20 -1 -28 16 -37 19 -10
21 -17 16 -54 -5 -31 -1 -54 13 -87 12 -24 21 -62 21 -84 0 -57 13 -73 34 -44
17 24 17 24 29 4 19 -31 25 -56 26 -107 1 -40 7 -55 35 -85 18 -21 35 -47 37
-58 3 -17 44 -45 83 -58 5 -2 -6 -17 -24 -35 -26 -27 -30 -35 -20 -47 11 -13
17 -12 47 6 33 20 35 20 53 4 26 -23 25 -43 -1 -64 -18 -15 -19 -18 -6 -29 8
-7 34 -16 58 -20 39 -7 45 -12 55 -42 12 -36 50 -58 101 -59 29 -1 73 -20 100
-45 22 -18 23 -18 23 -1 0 15 6 17 49 11 43 -6 49 -4 54 14 3 11 14 21 26 21
12 1 27 2 34 3 6 1 12 -10 12 -24 0 -19 5 -25 25 -25 19 0 29 -9 42 -37 18
-39 55 -71 70 -62 5 3 13 17 18 30 12 32 36 30 94 -6 26 -17 52 -28 57 -24 5
3 18 -5 29 -18 l19 -23 1 44 0 44 58 -7 c59 -7 183 -61 190 -83 2 -7 -10 -21
-27 -30 -17 -10 -31 -21 -31 -25 0 -16 96 -71 160 -92 l69 -23 25 26 c22 22
26 23 26 7 0 -15 6 -17 43 -11 23 4 44 7 47 7 22 1 30 -4 30 -17 0 -21 13 -19
28 6 11 16 16 18 28 9 20 -17 18 -36 -8 -71 -20 -27 -21 -31 -6 -45 15 -15 20
-13 60 26 27 26 36 40 23 35 -18 -5 -18 -5 -5 10 9 8 34 16 55 18 35 2 40 -1
43 -20 4 -28 51 -68 120 -102 l54 -26 18 23 c21 26 30 28 30 7 0 -19 9 -19 31
1 13 11 41 17 101 18 107 3 278 41 298 65 13 16 31 19 140 19 151 1 283 10
328 24 28 8 36 7 48 -9 13 -17 15 -17 33 5 11 12 32 24 48 26 15 2 41 9 56 15
39 15 47 14 47 -8 0 -10 9 -29 21 -42 l20 -24 -5 25 c-2 14 -7 35 -11 47 -6
19 -2 23 37 33 147 40 463 184 653 298 84 51 102 58 111 46 10 -12 13 -12 25
2 8 9 14 22 14 29 0 7 63 55 140 107 630 425 762 515 850 581 72 54 103 72
112 65 9 -7 14 -3 18 15 4 15 53 64 123 125 248 212 555 516 770 765 54 62 81
86 93 82 23 -8 75 54 111 133 22 50 49 86 118 154 50 50 87 94 84 102 -4 11
113 180 183 263 15 18 30 39 33 45 3 7 46 74 96 148 105 156 239 375 309 505
27 50 59 104 72 121 13 17 23 41 23 53 0 17 4 20 23 16 18 -5 28 0 41 19 9 14
25 26 36 26 10 0 22 5 25 10 10 16 -26 24 -56 13 -16 -6 -29 -10 -29 -9 0 2
21 39 48 84 26 44 66 116 90 160 48 88 166 249 262 357 76 85 190 205 196 205
2 0 4 -15 4 -33 0 -38 23 -77 34 -59 4 6 11 45 15 87 9 75 9 76 77 151 106
118 190 219 246 298 54 75 53 76 32 -23 -5 -23 -2 -29 16 -34 21 -6 22 -10 16
-63 -4 -32 -8 -60 -11 -62 -9 -9 -25 11 -25 33 0 18 -4 22 -20 18 -31 -8 -33
-20 -11 -52 12 -16 21 -33 21 -38 0 -14 -46 -33 -80 -33 -22 0 -29 5 -32 23
-5 37 -33 27 -36 -15 -2 -20 -10 -42 -18 -48 -9 -9 -14 -33 -14 -76 0 -73 -10
-103 -48 -150 -34 -41 -144 -130 -172 -139 -14 -4 -20 -15 -20 -35 0 -23 -18
-47 -90 -118 -61 -61 -90 -97 -90 -113 l0 -22 24 22 c24 23 46 21 46 -3 0 -18
-30 -42 -61 -50 -21 -4 -29 -15 -38 -48 -6 -24 -22 -56 -36 -73 l-26 -30 5 35
6 35 -25 -30 c-26 -30 -42 -72 -32 -81 3 -3 30 6 61 21 74 35 100 31 104 -15
4 -51 -29 -100 -67 -100 -38 0 -113 -57 -126 -95 -8 -24 -15 -29 -35 -27 -18
2 -35 -7 -60 -33 -18 -19 -42 -35 -52 -35 -16 0 -17 -3 -8 -20 6 -11 18 -20
28 -20 9 0 94 57 187 126 349 258 599 379 806 391 54 4 99 1 122 -6 48 -16 96
-71 147 -170 30 -58 47 -81 59 -79 22 5 17 52 -9 85 -20 26 -20 28 -3 40 17
13 16 15 -2 50 -11 21 -37 54 -57 75 -29 29 -46 37 -80 40 -43 3 -43 3 -48 46
l-5 43 -35 -26 c-42 -31 -89 -45 -156 -45 -80 0 -114 -10 -114 -31 0 -25 -30
-24 -37 1 -7 25 -15 25 -31 0 -7 -11 -23 -20 -37 -20 -14 0 -46 -19 -80 -49
-35 -31 -69 -51 -93 -56 -46 -8 -87 -29 -104 -53 -18 -25 -34 -33 -51 -26 -44
16 -21 148 48 290 33 66 69 118 134 190 95 107 188 194 208 194 7 0 38 23 68
50 30 28 59 50 64 50 22 0 71 53 71 76 0 37 -29 43 -52 11 -16 -22 -23 -25
-39 -17 -10 6 -19 15 -19 20 0 19 79 50 128 50 50 0 72 -12 72 -42 0 -20 55
-34 95 -24 34 9 31 24 -7 34 -20 5 -38 19 -48 37 -10 18 -26 31 -41 33 -60 7
-68 12 -80 52 -10 34 -9 43 6 67 10 15 21 55 24 88 l6 60 60 0 c57 0 60 1 63
25 4 35 23 80 33 80 5 0 9 -20 9 -45 0 -25 4 -45 10 -45 15 0 30 36 30 73 0
33 32 77 57 77 17 0 43 35 43 58 0 11 -10 28 -22 36 -29 20 -102 21 -118 1
-21 -25 -29 -17 -23 21 6 33 4 36 -18 32 -22 -3 -24 -8 -24 -58 0 -54 0 -55
28 -53 16 1 44 13 62 28 42 31 45 31 45 0 0 -35 -27 -45 -142 -52 -84 -5 -100
-4 -95 8 6 15 151 460 162 496 4 14 11 20 20 16 9 -3 18 3 22 13 4 10 2 19 -5
22 -15 5 -15 26 -1 75 5 21 14 35 19 32 6 -3 31 10 57 30 53 41 79 42 76 4 -1
-22 2 -25 22 -22 22 5 43 -12 31 -25 -4 -3 -28 -9 -53 -12 -26 -3 -48 -11 -51
-18 -5 -16 61 -82 82 -82 9 0 15 5 14 12 -4 15 63 26 165 27 45 1 77 -3 77 -9
0 -5 -4 -10 -9 -10 -19 0 -32 -61 -18 -89 15 -32 33 -25 29 11 -4 31 27 68 56
68 10 0 29 -11 42 -25 19 -21 33 -25 77 -25 65 0 101 -17 142 -67 32 -38 32
-53 1 -53 -41 0 -68 -92 -35 -120 11 -9 19 -7 40 14 29 29 29 29 49 -49 6 -26
16 -45 21 -45 6 1 9 5 8 9 -16 63 -21 57 62 70 122 18 138 14 147 -34 2 -11
11 -21 21 -23 15 -3 17 2 11 37 -4 25 -2 53 6 71 13 32 30 40 30 15 0 -19 11
-19 36 0 31 24 53 17 97 -27 41 -41 42 -42 45 -18 2 14 12 34 22 45 13 15 16
26 9 43 -10 26 -24 28 -38 5 -12 -19 -18 -15 -47 33 -10 17 -13 16 -57 -9 -54
-32 -67 -34 -67 -8 0 29 -18 35 -22 9 -4 -32 -52 -54 -84 -39 -13 6 -24 18
-24 27 0 16 -2 16 -19 0 -27 -25 -93 -13 -134 24 -27 24 -31 34 -32 83 0 44
-5 59 -22 73 -12 11 -26 35 -31 54 -8 35 -18 41 -84 55 -17 3 -28 12 -28 22 0
13 11 15 75 11 41 -3 81 -11 90 -18 14 -12 14 -15 -1 -37 -25 -39 -4 -49 52
-23 47 20 48 22 29 36 -19 14 -18 15 13 46 l31 32 26 -24 c21 -19 29 -22 43
-13 9 6 16 21 14 33 -3 33 22 19 28 -16 5 -27 8 -29 58 -32 62 -4 79 -24 42
-52 l-23 -17 22 -47 c21 -42 56 -75 68 -63 2 3 -3 19 -11 36 -25 47 -20 76 19
116 40 40 51 42 78 18 18 -17 20 -17 37 5 22 27 26 27 33 2 6 -23 35 -27 43
-5 4 8 -1 26 -10 40 -14 22 -24 25 -71 25 -54 0 -55 0 -76 43 -12 23 -42 69
-67 101 l-46 59 -11 -57 c-6 -31 -17 -62 -23 -68 -7 -7 -47 -12 -99 -12 -71
-1 -88 -4 -89 -16 -1 -8 -2 -18 -3 -21 -2 -13 -176 31 -188 47 -11 15 -13 14
-23 -12 -26 -68 -71 -82 -122 -39 -31 26 -50 25 -46 -3 5 -26 -56 -28 -98 -3
-20 12 -40 18 -45 15 -6 -3 -17 2 -25 12 -14 18 -15 17 -11 -10 4 -24 0 -30
-23 -39 -22 -8 -28 -17 -27 -36 3 -38 -37 -41 -73 -6 -17 16 -35 25 -44 22 -9
-4 -17 1 -21 13 -8 24 -61 70 -82 70 -12 0 -13 -8 -8 -42 l7 -43 -25 25 c-24
23 -25 28 -16 75 5 28 14 133 19 235 5 102 9 186 10 188 0 1 50 2 110 2 108 0
145 8 192 42 13 10 22 9 42 -2 22 -11 31 -11 65 4 65 30 131 -3 131 -64 0 -20
-20 -33 -70 -44 -14 -3 -40 -19 -58 -35 -18 -17 -51 -39 -75 -50 -23 -11 -53
-29 -67 -41 -14 -11 -50 -24 -80 -30 -72 -14 -84 -26 -75 -81 6 -32 18 -55 46
-82 21 -21 43 -36 49 -32 14 9 -3 38 -35 59 -51 33 -22 48 39 19 32 -15 36
-15 58 1 13 9 38 28 57 41 25 19 47 25 83 25 44 0 49 2 43 19 -11 34 34 55
101 46 55 -7 56 -6 52 18 -4 33 18 57 54 57 34 0 34 -19 0 -36 l-22 -11 20
-18 c18 -16 25 -17 54 -7 18 7 37 12 43 12 6 0 31 -32 56 -70 50 -78 54 -76
63 19 3 32 1 68 -5 85 -11 28 -12 28 -31 11 -20 -18 -20 -17 -20 14 0 45 23
49 67 12 49 -41 103 -44 103 -6 0 18 -5 25 -20 25 -13 0 -24 10 -30 25 -10 27
-45 45 -87 45 -25 0 -25 1 -10 18 24 26 21 42 -8 42 -21 0 -25 5 -25 29 0 41
25 59 50 36 19 -17 20 -17 20 2 0 23 29 53 52 53 27 0 48 11 48 26 0 21 16 17
33 -8 l15 -23 25 24 c24 22 27 22 43 7 11 -12 30 -16 60 -15 33 2 47 -2 58
-16 15 -22 36 -12 36 17 0 18 4 20 33 13 17 -5 48 -9 68 -10 20 -2 50 -10 68
-20 41 -21 85 -17 89 9 3 12 0 16 -8 11 -7 -4 -35 4 -63 19 -56 28 -130 40
-319 51 -94 6 -122 4 -147 -8 -27 -14 -31 -13 -47 4 -10 11 -30 19 -51 19 -29
0 -33 -3 -33 -25 0 -31 -29 -34 -37 -4 -4 13 -13 20 -27 18 -39 -3 -44 1 -60
41 -16 41 -32 51 -42 25 -8 -20 -21 -19 -34 4 -22 43 22 75 65 47 33 -22 35
-21 33 17 -3 28 0 32 25 35 33 4 34 19 6 73 -23 46 -20 63 5 24 19 -28 47 -33
67 -9 34 41 190 95 313 109 32 4 79 13 104 20 44 14 65 10 123 -22 4 -2 4 7 2
19 -3 15 3 30 16 42 24 22 17 46 -15 46 -20 0 -24 -5 -24 -30 l0 -30 -37 15
c-32 14 -51 14 -133 4 -52 -6 -105 -17 -117 -25 -46 -29 -130 -11 -201 42 -18
14 -36 24 -38 21 -3 -3 -1 -22 5 -44 18 -62 14 -90 -11 -97 -13 -3 -78 -6
-145 -6 -111 0 -125 -2 -144 -21 -20 -20 -21 -20 -34 -3 -7 10 -59 41 -116 68
-102 50 -131 78 -92 90 41 12 208 9 230 -5 20 -12 25 -11 39 3 25 25 2 48 -47
48 -22 0 -48 5 -58 12 -15 9 -25 9 -46 0 -49 -22 -159 -9 -185 23 -18 21 -3
51 36 76 54 33 28 41 -63 19 -106 -25 -210 -67 -227 -92 -14 -20 -17 -18 -108
43 -51 35 -125 95 -163 134 -68 68 -165 202 -200 276 l-17 36 51 48 c28 26 49
50 47 53 -3 2 -30 -10 -62 -27 -31 -18 -58 -30 -60 -28 -10 10 -82 196 -160
412 -77 214 -82 232 -68 253 14 22 14 22 -9 17 -21 -6 -26 -1 -41 34 -9 23
-20 41 -25 41 -5 0 -34 34 -65 75 -47 62 -53 75 -37 75 11 0 23 5 26 11 9 14
-24 49 -47 49 -11 0 -28 5 -39 10 -27 15 -219 276 -219 298 0 20 -81 140 -121
181 -41 40 -172 132 -308 216 -71 44 -130 83 -130 88 -1 4 85 7 189 7 114 0
190 4 190 10 0 15 -69 30 -140 30 -36 1 -135 9 -220 18 l-156 17 -69 49 c-121
85 -194 150 -194 171 -1 32 19 45 69 45 49 0 70 13 70 42 0 28 -39 42 -125 44
-48 1 -95 8 -117 18 -21 9 -50 16 -66 16 -16 0 -58 16 -93 35 -170 94 -335
156 -578 217 -110 27 -135 37 -142 55 -12 32 -26 36 -42 13 -14 -20 -16 -20
-52 -6 -21 9 -46 16 -56 16 -15 0 -19 10 -21 68 -4 80 -14 84 -57 25 -46 -64
-116 -71 -116 -12 0 19 5 23 23 21 12 -2 22 1 22 7 0 27 -105 54 -263 67 -58
4 -84 11 -98 25 -10 10 -25 16 -34 13 -24 -10 -63 4 -76 27 -9 17 -7 24 10 40
12 11 21 23 21 27 0 20 -34 52 -54 52 -22 0 -108 -49 -120 -69 -4 -6 -20 -11
-35 -11 -15 0 -53 -9 -83 -19 -93 -32 -187 -41 -430 -41 -245 0 -321 -9 -408
-48 -24 -12 -48 -18 -52 -16 -24 15 90 147 203 236 29 23 31 27 13 27 -11 1
-49 -13 -84 -31z m1590 -368 c0 -5 -4 -10 -10 -10 -5 0 -10 5 -10 10 0 6 5 10
10 10 6 0 10 -4 10 -10z m-2451 -170 c9 -5 -3 -13 -34 -24 -63 -21 -75 -20
-75 4 0 35 60 46 109 20z m-199 -70 c0 -7 -104 -40 -125 -40 -19 0 41 51 69
59 29 8 56 -1 56 -19z m-230 -70 c0 -5 -4 -10 -10 -10 -5 0 -10 5 -10 10 0 6
5 10 10 10 6 0 10 -4 10 -10z m-285 -43 c-8 -13 -12 -27 -8 -30 3 -4 -7 -7
-23 -7 -17 0 -34 -4 -39 -9 -14 -13 -84 -18 -85 -6 -4 45 45 74 123 75 47 0
47 0 32 -23z m175 9 c0 -2 -9 -6 -20 -9 -11 -3 -18 -1 -14 4 5 9 34 13 34 5z
m4144 -128 c28 -39 19 -54 -14 -23 -16 15 -27 32 -24 37 9 14 22 9 38 -14z
m-6082 -760 c-7 -7 -12 -8 -12 -2 0 14 12 26 19 19 2 -3 -1 -11 -7 -17z m-273
-400 c-8 -14 -14 -18 -17 -10 -4 13 17 46 25 38 3 -2 -1 -15 -8 -28z m-485
-737 c7 -11 -43 -29 -66 -23 -10 2 -18 10 -18 18 0 16 75 21 84 5z m-86 -334
c-12 -54 -14 -55 -28 -12 -14 44 -8 65 18 58 17 -4 18 -9 10 -46z m9326 -533
c23 -9 20 -21 -8 -26 -14 -3 -34 3 -47 13 l-24 19 32 0 c17 0 38 -3 47 -6z
m271 -155 c9 -17 15 -38 13 -47 -3 -13 -8 -9 -21 15 -16 30 -22 63 -12 63 2 0
12 -14 20 -31z m-382 -348 c4 -16 -2 -20 -30 -23 -32 -4 -34 -3 -28 21 12 46
46 47 58 2z m207 -45 c0 -16 -21 -56 -30 -56 -14 0 -13 33 2 48 12 12 28 16
28 8z m410 -41 c19 -22 1 -36 -53 -42 -57 -7 -69 10 -25 37 40 24 61 25 78 5z
m78 -23 c2 -12 -1 -22 -6 -22 -15 0 -34 28 -27 40 10 17 30 6 33 -18z m-10908
-169 c-24 -57 -71 -223 -96 -338 l-6 -30 -10 25 c-13 35 0 148 24 194 10 21
27 60 37 85 16 44 67 131 75 131 2 0 -9 -30 -24 -67z m10409 -137 c9 -10 8
-16 -4 -26 -13 -10 -21 -10 -43 -1 -26 12 -26 13 -7 27 24 18 39 18 54 0z m63
-278 c-9 -9 -12 -4 -11 23 0 32 1 33 11 11 8 -17 8 -26 0 -34z m-6445 -34 c39
-23 95 -84 75 -84 -11 0 -120 68 -158 98 l-29 23 35 -7 c19 -3 54 -17 77 -30z
m6811 -171 c12 -22 5 -43 -13 -43 -17 0 -38 36 -30 50 10 16 33 12 43 -7z
m-967 -563 c10 -6 19 -17 19 -26 0 -17 -43 -36 -65 -28 -18 7 -18 7 -3 39 12
28 20 30 49 15z m-4556 -144 c32 -14 67 -56 46 -56 -22 0 -120 42 -131 55 -11
13 -7 15 19 15 17 0 47 -6 66 -14z m789 -31 c3 -8 1 -15 -4 -15 -6 0 -10 7
-10 15 0 8 2 15 4 15 2 0 6 -7 10 -15z m-10 -69 c-6 -25 -24 -37 -24 -15 0 15
21 52 26 46 3 -3 2 -16 -2 -31z m-2564 -228 c0 -17 -50 -98 -60 -98 -6 0 -10
5 -10 10 0 12 27 69 42 88 13 15 28 16 28 0z m97 -104 l26 -26 -54 -49 c-30
-27 -65 -51 -79 -55 -14 -3 -42 -18 -62 -31 -21 -14 -44 -23 -53 -19 -22 8
-18 52 6 70 16 11 20 21 15 40 -8 32 2 33 54 6 41 -21 90 -27 90 -11 0 5 -12
18 -27 29 -30 22 -27 47 9 62 36 14 47 12 75 -16z m-537 -68 c0 -5 -7 -3 -15
4 -8 7 -15 22 -15 34 1 20 2 20 15 -4 8 -14 14 -29 15 -34z m252 -63 c22 -19
24 -43 3 -43 -14 0 -35 29 -35 49 0 16 11 14 32 -6z m3171 -175 c2 -7 2 -19
-1 -26 -3 -10 -9 -9 -23 4 -11 9 -19 21 -19 26 0 13 38 9 43 -4z m-123 -112
c0 -11 19 -39 42 -63 l42 -43 -18 -37 c-17 -36 -19 -37 -32 -18 -8 10 -14 26
-14 35 0 55 -58 62 -85 10 -21 -41 -20 -130 1 -130 13 0 15 -6 8 -27 -5 -16
-9 -52 -9 -81 -1 -35 -7 -59 -19 -70 -16 -16 -14 -19 26 -53 l42 -37 -22 -88
c-12 -49 -25 -114 -29 -144 -3 -30 -13 -66 -21 -79 -9 -12 -19 -48 -23 -79 -6
-42 -14 -61 -31 -74 -13 -9 -36 -27 -51 -39 -32 -24 -44 -20 -28 10 7 11 9 32
5 46 -5 20 -3 24 9 19 20 -7 57 12 57 30 0 8 -6 19 -14 25 -12 10 -12 20 1 67
14 55 14 57 -11 93 -14 20 -30 60 -37 90 -6 29 -20 62 -32 74 -11 11 -21 36
-23 55 -3 42 -38 82 -55 65 -17 -17 4 -134 30 -170 20 -27 32 -86 46 -228 l6
-60 -28 35 c-15 19 -40 48 -54 64 l-26 30 20 56 c12 31 18 64 14 74 -6 16 -10
15 -36 -13 -16 -17 -33 -31 -38 -31 -16 0 -34 17 -31 30 4 17 -59 60 -88 60
-13 0 -24 3 -24 8 0 4 29 56 65 116 70 119 80 154 73 266 -4 69 -3 70 22 70
14 0 49 3 78 6 51 7 52 6 52 -20 0 -14 5 -26 11 -26 6 0 9 12 7 26 -3 22 3 28
36 39 44 15 100 65 116 105 8 20 18 27 41 27 23 0 29 -5 29 -21z m-3354 -76
c20 0 -139 -145 -210 -191 -100 -66 -127 -41 -35 31 24 20 59 36 87 42 52 9
68 24 82 79 11 38 25 51 48 43 8 -2 20 -4 28 -4z m3675 -146 c1 -21 -3 -49 -9
-60 -9 -18 -9 -24 5 -35 14 -12 15 -32 10 -149 -6 -138 -26 -244 -67 -353 -12
-31 -27 -57 -35 -57 -15 0 -25 -22 -25 -53 0 -12 -8 -35 -19 -50 -15 -24 -19
-26 -25 -12 -21 57 13 192 54 212 23 11 25 17 22 67 -2 30 1 63 7 75 10 17 8
23 -9 33 -24 15 -26 28 -5 28 18 0 22 20 29 123 3 49 11 88 21 103 15 24 15
27 -1 38 -23 17 -16 117 11 146 19 21 19 21 26 2 4 -10 8 -37 10 -58z m-3931
31 c-7 -8 -16 -15 -21 -15 -14 0 -11 38 4 43 20 7 31 -11 17 -28z m-600 -296
c0 -9 -7 -22 -15 -29 -21 -18 -31 13 -16 48 10 21 14 23 22 11 5 -7 9 -21 9
-30z m4288 -45 c-8 -9 -24 -14 -34 -12 -17 3 -17 5 5 27 17 17 26 20 34 12 8
-8 7 -15 -5 -27z m-5218 -20 c0 -23 -57 -139 -75 -154 -13 -11 -14 -8 -8 21 3
19 12 52 20 74 20 59 63 99 63 59z m4670 -68 c0 -2 3 -12 6 -21 6 -15 4 -15
-15 -4 -25 16 -27 29 -6 29 8 0 15 -2 15 -4z m484 -38 c20 -28 20 -38 1 -38
-14 0 -35 29 -35 49 0 18 18 12 34 -11z m-4614 -65 c0 -32 -5 -28 -14 10 -4
19 -3 26 4 22 5 -3 10 -18 10 -32z m1087 -65 c18 -15 16 -58 -2 -58 -8 0 -30
14 -50 32 -27 23 -33 33 -23 40 15 9 56 2 75 -14z m-773 0 c-51 -85 -90 -117
-139 -117 l-30 0 39 32 c37 30 127 95 134 96 2 1 0 -5 -4 -11z m1296 -120 c19
-89 21 -98 15 -98 -8 0 -36 59 -50 106 -12 41 -12 44 5 44 14 0 21 -13 30 -52z
m-720 -6 c0 -17 -34 -54 -72 -78 -22 -14 -41 -24 -43 -22 -7 7 87 108 101 108
8 0 14 -3 14 -8z m-274 -47 c-6 -25 -14 -45 -18 -45 -5 0 -8 20 -8 45 0 37 3
45 18 45 17 0 17 -4 8 -45z m-1466 -44 c0 -50 -16 -94 -33 -88 -15 5 -13 77 3
106 17 33 30 25 30 -18z m5454 -19 c-20 -31 -44 -3 -29 35 5 15 7 15 23 0 13
-14 14 -21 6 -35z m-234 -54 c11 -24 20 -58 20 -77 0 -32 -1 -33 -18 -18 -28
25 -43 21 -36 -8 4 -15 2 -25 -5 -25 -18 0 -42 46 -48 91 -5 36 -3 44 18 60
36 28 48 23 69 -23z m-5130 -63 c0 -44 -3 -53 -15 -49 -23 9 -27 40 -10 74 8
16 18 30 20 30 3 0 5 -25 5 -55z m5019 -35 c1 -40 -22 -80 -46 -80 -9 0 -33
19 -55 42 -42 46 -43 48 -25 48 8 0 36 16 63 35 49 35 49 35 56 13 3 -13 6
-39 7 -58z m-278 4 c45 -8 91 -13 101 -11 26 7 25 -48 -1 -63 -28 -14 -31 -13
-28 13 2 17 -3 22 -23 22 -18 0 -24 -5 -22 -17 2 -12 -5 -16 -25 -16 -16 1
-45 -5 -65 -12 -34 -12 -39 -12 -59 6 -21 19 -21 19 -36 -3 -21 -31 -33 -29
-33 6 0 67 -38 44 -112 -69 -33 -50 -49 -66 -71 -68 -26 -3 -27 -2 -23 38 5
63 85 135 189 171 65 23 103 23 208 3z m589 11 c0 -5 -55 -35 -65 -35 -20 0 6
26 31 31 16 4 30 7 32 8 1 0 2 -1 2 -4z m-100 -46 c0 -5 -4 -9 -10 -9 -5 0
-10 7 -10 16 0 8 5 12 10 9 6 -3 10 -10 10 -16z m-500 -130 c0 -5 -7 -9 -15
-9 -9 0 -12 6 -9 15 6 15 24 11 24 -6z m-3840 -223 c0 -2 -3 -11 -6 -20 -9
-23 -34 -20 -34 4 0 13 7 20 20 20 11 0 20 -2 20 -4z m449 -32 c24 -5 24 -5
-7 -24 -18 -11 -32 -27 -32 -35 0 -10 -10 -15 -30 -15 -17 0 -53 -12 -81 -26
-28 -14 -54 -23 -57 -19 -4 3 -11 20 -17 38 -12 39 -52 63 -88 53 -32 -8 -35
-22 -7 -29 26 -7 25 -32 -2 -51 -32 -22 -62 -21 -53 2 5 9 9 26 10 38 1 11 11
34 22 50 l21 29 148 -3 c82 -1 160 -5 173 -8z m141 -69 c30 -36 -32 -89 -92
-79 -27 4 -30 3 -15 -6 9 -6 17 -17 17 -25 0 -23 -22 -29 -36 -11 -8 12 -19
16 -33 11 -38 -12 -23 16 44 81 69 67 81 70 115 29z m713 -172 c4 -2 7 -17 7
-34 0 -33 11 -30 -163 -34 l-88 -3 -15 30 c-29 56 -19 61 124 53 70 -4 130 -9
135 -12z m154 -19 c-3 -3 -12 -4 -19 -1 -8 3 -5 6 6 6 11 1 17 -2 13 -5z m293
2 c0 -2 -9 -6 -20 -9 -11 -3 -20 -1 -20 4 0 5 9 9 20 9 11 0 20 -2 20 -4z
m-1330 -26 c0 -5 -4 -10 -10 -10 -5 0 -10 5 -10 10 0 6 5 10 10 10 6 0 10 -4
10 -10z m-1220 -180 c0 -13 -1 -13 -10 0 -5 8 -10 22 -10 30 0 13 1 13 10 0 5
-8 10 -22 10 -30z m654 -1235 l46 -70 -24 -20 c-13 -11 -35 -37 -49 -57 -27
-41 -39 -37 -52 15 -8 32 15 221 26 210 3 -5 27 -39 53 -78z m37 -222 c0 -5 2
-18 3 -31 2 -19 30 -51 46 -52 9 0 42 -61 37 -67 -12 -11 -46 9 -90 54 -43 43
-58 79 -40 96 9 9 43 9 44 0z m1208 -519 c6 -5 -40 -54 -50 -54 -6 0 -29 53
-29 67 0 4 73 -8 79 -13z m109 -20 c14 -4 16 -30 4 -38 -5 -3 -24 8 -43 24
l-34 30 30 -6 c17 -3 36 -7 43 -10z m94 -20 c16 -3 25 -10 22 -15 -10 -16 -51
-9 -70 12 -19 21 -19 22 1 16 11 -3 32 -9 47 -13z m-342 -21 c0 -14 -34 -43
-50 -43 -10 0 -23 6 -29 14 -10 11 -8 17 6 25 20 12 73 15 73 4z m469 -9 c3
-3 0 -9 -6 -15 -15 -15 -43 -4 -43 16 0 12 6 15 23 9 12 -3 24 -8 26 -10z
m184 -40 c64 -16 117 -31 117 -35 0 -3 -13 -9 -30 -12 -18 -4 -30 -13 -30 -22
0 -23 -78 19 -92 50 -8 19 -16 23 -37 19 -30 -6 -81 10 -81 26 0 6 8 9 18 7 9
-3 70 -18 135 -33z m327 -74 c11 -8 8 -9 -12 -4 -22 5 -33 0 -59 -28 -17 -18
-29 -28 -26 -22 4 6 11 23 16 38 8 19 17 26 38 26 16 0 35 -5 43 -10z"/>
<path d="M6490 12187 c0 -18 25 -57 37 -57 10 0 11 5 4 18 -11 20 -41 48 -41
39z"/>
<path d="M6580 12175 c-9 -11 -10 -19 -2 -27 14 -14 32 -1 32 23 0 23 -13 25
-30 4z"/>
<path d="M5117 12142 c-22 -24 -22 -35 1 -23 9 5 30 7 45 4 22 -4 27 -2 27 16
0 16 -6 21 -28 21 -16 0 -36 -8 -45 -18z"/>
<path d="M7127 11914 c-13 -14 5 -24 41 -24 35 1 36 2 18 15 -21 16 -48 20
-59 9z"/>
<path d="M7272 11797 c-12 -13 -22 -29 -22 -35 0 -21 28 -13 35 9 6 18 13 20
42 16 35 -6 35 -6 18 13 -24 26 -47 25 -73 -3z"/>
<path d="M8450 11315 c0 -14 5 -25 10 -25 6 0 10 11 10 25 0 14 -4 25 -10 25
-5 0 -10 -11 -10 -25z"/>
<path d="M9031 11001 c-20 -13 -4 -31 28 -31 34 0 44 9 30 27 -13 15 -38 17
-58 4z"/>
<path d="M9570 10144 c-9 -10 -10 -18 -2 -26 12 -12 32 -2 32 17 0 21 -16 26
-30 9z"/>
<path d="M9860 9901 c0 -5 9 -19 20 -32 21 -26 27 -11 10 22 -11 19 -30 26
-30 10z"/>
<path d="M10041 9217 c-30 -15 -39 -37 -16 -37 20 0 75 31 75 42 0 12 -32 9
-59 -5z"/>
<path d="M10840 8865 c-10 -12 -10 -18 0 -29 16 -20 42 -8 38 17 -4 26 -21 32
-38 12z"/>
<path d="M10735 8825 c32 -26 45 -31 45 -16 0 13 -41 41 -60 41 -10 -1 -4 -9
15 -25z"/>
<path d="M11035 8780 c3 -5 12 -10 20 -10 8 0 17 5 20 10 4 6 -5 10 -20 10
-15 0 -24 -4 -20 -10z"/>
<path d="M10702 8740 c-7 -12 -23 -25 -35 -30 -20 -8 -19 -9 9 -9 36 -1 81 30
70 47 -11 18 -30 14 -44 -8z"/>
<path d="M11920 8580 c-12 -7 -12 -12 -3 -21 10 -10 21 -10 53 0 22 7 38 16
35 21 -8 13 -65 13 -85 0z"/>
<path d="M12117 8524 c-12 -13 6 -34 31 -34 24 0 25 0 7 20 -19 21 -28 24 -38
14z"/>
<path d="M11251 8308 c-11 -31 -11 -31 9 -13 21 19 27 45 11 45 -5 0 -14 -14
-20 -32z"/>
<path d="M11362 8258 c-17 -17 -15 -22 14 -57 27 -33 37 -33 54 0 10 17 8 19
-13 14 -15 -4 -28 -1 -37 10 -11 14 -10 17 8 22 12 3 22 9 22 14 0 13 -34 11
-48 -3z"/>
<path d="M11352 8013 c2 -10 13 -19 26 -21 24 -4 29 7 10 26 -18 18 -40 15
-36 -5z"/>
<path d="M10685 7890 c-10 -16 4 -30 31 -30 27 0 33 24 8 34 -22 8 -32 8 -39
-4z"/>
<path d="M11343 7713 c-7 -2 -13 -10 -13 -16 0 -7 -9 -18 -20 -25 -35 -22 -21
-140 20 -162 20 -10 80 -14 80 -5 0 3 -7 17 -16 30 -15 23 -15 27 0 50 18 27
21 55 6 55 -5 0 -26 -14 -45 -32 l-37 -32 4 30 c2 24 12 33 61 57 49 23 57 30
47 42 -12 14 -61 19 -87 8z"/>
<path d="M11777 7369 c-23 -14 -5 -39 28 -39 34 0 55 -10 55 -26 0 -24 20 -15
40 19 32 51 27 57 -42 57 -35 0 -71 -5 -81 -11z"/>
<path d="M11188 7184 c-17 -9 -28 -23 -28 -35 0 -26 18 -20 44 14 24 33 19 40
-16 21z"/>
<path d="M10957 7048 c-16 -23 -27 -27 -75 -30 -50 -3 -57 -6 -60 -25 -4 -28
-18 -29 -34 -3 -7 11 -22 20 -34 20 -12 0 -24 7 -28 15 -8 22 -41 18 -72 -8
-27 -24 -26 -51 1 -40 25 9 45 -17 45 -59 0 -31 -4 -40 -22 -47 -25 -9 -63 2
-90 26 -9 8 -21 12 -27 9 -8 -5 -21 8 -69 74 -2 2 -7 -2 -12 -10 -5 -8 -23
-19 -41 -25 l-31 -11 26 -31 c33 -39 33 -48 2 -27 -37 23 -70 15 -74 -19 -3
-23 2 -30 30 -42 18 -7 45 -27 60 -44 23 -27 33 -31 79 -31 51 0 52 1 35 19
-17 19 -16 19 44 14 52 -5 64 -3 83 15 26 23 88 62 101 62 4 0 6 -7 2 -15 -7
-20 1 -19 32 6 l27 21 10 -35 10 -35 30 24 c40 32 54 30 53 -5 -1 -15 6 -39
16 -52 l16 -23 0 31 c0 18 5 55 11 84 12 56 5 69 -38 69 -28 0 -28 4 -2 39 15
20 19 39 17 72 l-3 44 -18 -27z m-97 -140 c0 -16 -23 -19 -37 -5 -22 21 -8 40
17 24 11 -6 20 -15 20 -19z"/>
<path d="M11800 7035 c0 -19 5 -25 22 -25 12 0 32 -10 45 -21 20 -20 23 -20
29 -5 8 20 -10 42 -47 62 -39 20 -49 18 -49 -11z"/>
<path d="M10530 6997 c0 -13 9 -32 19 -41 19 -17 99 -41 108 -32 10 9 -19 47
-55 71 -47 32 -72 33 -72 2z"/>
<path d="M12056 6921 c-3 -5 1 -15 10 -22 17 -14 65 -2 72 19 4 14 -73 18 -82
3z"/>
<path d="M11606 6830 c5 -22 3 -35 -7 -41 -11 -8 -9 -13 10 -29 26 -22 68 -36
79 -26 3 4 0 16 -7 28 -11 17 -11 22 1 29 20 13 41 11 66 -7 19 -13 22 -13 22
0 0 19 -50 58 -66 52 -12 -5 -47 3 -86 19 -16 6 -17 3 -12 -25z"/>
<path d="M12265 6847 c11 -7 35 -27 54 -45 34 -33 54 -35 35 -4 -15 23 -73 62
-93 61 -13 0 -12 -3 4 -12z"/>
<path d="M11025 6830 c-7 -23 1 -40 20 -40 16 0 29 35 20 50 -10 17 -33 11
-40 -10z"/>
<path d="M11350 6816 c-49 -10 -55 -14 -55 -36 0 -20 6 -26 35 -30 19 -4 47
-14 63 -24 30 -20 33 -14 12 24 -31 55 -1 71 37 20 12 -16 30 -30 40 -30 16 0
16 2 -3 35 -11 19 -18 39 -14 45 8 13 -43 11 -115 -4z"/>
<path d="M11130 6711 c0 -5 -11 -11 -25 -13 -30 -4 -35 -18 -11 -33 11 -7 21
-7 34 1 19 12 29 54 13 54 -6 0 -11 -4 -11 -9z"/>
<path d="M11187 6703 c-4 -3 -7 -27 -7 -52 l1 -46 18 23 c25 29 31 28 31 -8 0
-16 5 -30 11 -30 16 0 5 65 -16 96 -16 24 -26 29 -38 17z"/>
<path d="M12760 6698 c0 -16 19 -38 33 -38 4 0 7 10 5 22 -3 25 -38 39 -38 16z"/>
<path d="M11440 6671 c0 -9 73 -81 83 -81 12 0 8 35 -5 53 -13 18 -78 41 -78
28z"/>
<path d="M11562 6553 c2 -10 13 -19 26 -21 24 -4 29 7 10 26 -18 18 -40 15
-36 -5z"/>
<path d="M11567 6480 c-12 -15 -24 -18 -47 -14 -42 9 -39 -13 6 -51 23 -19 38
-43 43 -65 8 -39 32 -48 92 -32 l34 9 -43 22 c-42 21 -62 51 -62 92 0 28 12
24 72 -25 70 -57 128 -96 142 -96 6 0 -6 15 -28 33 -21 18 -44 49 -50 68 -8
25 -22 40 -56 57 -55 27 -81 28 -103 2z"/>
<path d="M11400 6437 c0 -14 20 -37 32 -37 15 0 8 38 -8 44 -22 8 -24 8 -24
-7z"/>
<path d="M12760 6391 c0 -32 24 -59 35 -41 8 13 -13 70 -26 70 -5 0 -9 -13 -9
-29z"/>
<path d="M10440 6381 c0 -22 25 -39 38 -27 8 8 -10 38 -26 44 -7 2 -12 -6 -12
-17z"/>
<path d="M10513 6359 c-16 -16 -5 -39 19 -39 14 0 19 6 16 22 -4 25 -19 33
-35 17z"/>
<path d="M10372 6348 c-18 -18 -15 -27 8 -21 14 4 20 0 20 -11 0 -9 -13 -19
-32 -24 -39 -10 -47 -45 -11 -50 29 -4 63 31 63 66 0 26 -15 52 -30 52 -3 0
-11 -5 -18 -12z"/>
<path d="M10595 6330 c-4 -6 7 -10 24 -10 17 0 31 5 31 10 0 6 -11 10 -24 10
-14 0 -28 -4 -31 -10z"/>
<path d="M10470 6297 c0 -31 26 -53 83 -73 26 -9 47 -18 47 -21 0 -2 -13 -16
-30 -30 -16 -13 -30 -33 -30 -44 0 -18 2 -18 24 -4 28 18 133 22 209 7 53 -11
110 -2 135 21 20 18 72 33 72 21 0 -5 -7 -30 -15 -56 -12 -42 -12 -49 1 -63
21 -20 39 -19 90 6 64 31 72 45 35 64 -19 9 -31 23 -31 35 0 14 -7 20 -23 20
-13 0 -32 9 -43 21 -15 16 -26 19 -54 14 -19 -3 -47 -7 -62 -8 -23 -2 -26 -5
-21 -26 5 -21 3 -22 -18 -16 -44 13 -70 36 -76 67 l-6 31 -17 -33 c-14 -27
-18 -29 -23 -15 -4 9 -7 28 -7 41 0 32 -18 38 -63 19 -54 -22 -87 -18 -127 15
-41 36 -50 37 -50 7z"/>
<path d="M12127 6302 c-22 -24 -21 -32 2 -32 21 0 33 21 22 39 -5 8 -12 6 -24
-7z"/>
<path d="M10434 6246 c-3 -8 -4 -27 -2 -43 2 -24 8 -28 36 -31 38 -4 38 -3 12
48 -21 42 -37 50 -46 26z"/>
<path d="M11607 6240 c4 -14 -1 -26 -13 -35 -18 -14 -18 -14 2 -15 30 0 51 27
38 48 -16 25 -33 26 -27 2z"/>
<path d="M10287 6223 c-13 -13 -6 -23 35 -53 67 -49 82 -32 24 26 -34 34 -47
40 -59 27z"/>
<path d="M9688 6044 c-7 -11 7 -50 21 -59 16 -9 14 28 -2 50 -8 10 -16 14 -19
9z"/>
<path d="M11420 5967 c0 -18 28 -42 37 -33 9 8 -9 38 -25 44 -7 2 -12 -3 -12
-11z"/>
<path d="M10490 5934 c-28 -18 -65 -63 -57 -70 3 -3 16 2 30 10 14 10 32 14
42 10 15 -6 16 -4 5 15 -11 21 -10 22 22 19 24 -2 33 1 33 12 0 21 -45 23 -75
4z"/>
<path d="M10750 5921 c0 -24 37 -71 56 -71 19 0 18 5 -8 51 -23 41 -48 52 -48
20z"/>
<path d="M11503 5923 c-7 -2 -13 -11 -13 -19 0 -10 12 -14 40 -14 43 0 52 13
21 30 -21 11 -29 11 -48 3z"/>
<path d="M11752 5818 c-20 -20 -14 -49 18 -78 18 -17 30 -38 30 -54 0 -39 17
-31 25 12 7 45 -4 79 -37 109 -19 18 -27 20 -36 11z"/>
<path d="M10170 5804 c0 -18 24 -44 41 -44 23 0 79 30 79 42 0 16 -58 8 -64
-8 -6 -16 -8 -16 -24 0 -19 16 -32 21 -32 10z"/>
<path d="M10020 5779 c0 -20 21 -49 35 -49 21 0 19 24 -3 43 -21 20 -32 22
-32 6z"/>
<path d="M9483 5693 c-25 -10 -12 -24 19 -21 37 4 52 28 16 27 -12 0 -29 -3
-35 -6z"/>
<path d="M9851 5635 c-35 -13 -71 -31 -80 -39 -10 -9 -29 -16 -43 -16 -18 0
-25 -5 -24 -17 1 -13 -14 -23 -56 -37 -62 -20 -70 -29 -38 -46 16 -9 26 -7 47
9 14 12 36 21 48 21 13 0 41 15 63 34 23 18 60 38 84 44 48 12 118 73 82 71
-10 0 -48 -11 -83 -24z"/>
<path d="M10326 5611 c-16 -18 -16 -18 9 -14 19 4 25 1 25 -11 0 -10 5 -14 10
-11 6 3 10 17 10 31 0 30 -29 33 -54 5z"/>
<path d="M11450 5514 c0 -18 23 -44 40 -44 27 0 36 21 15 37 -19 13 -55 18
-55 7z"/>
<path d="M10445 5440 c32 -33 45 -38 45 -16 0 17 -38 46 -59 46 -10 0 -5 -10
14 -30z"/>
<path d="M10530 5418 c0 -21 30 -65 52 -75 12 -7 42 -15 65 -18 23 -4 69 -25
105 -48 34 -22 140 -81 233 -130 94 -49 197 -108 230 -130 53 -36 67 -41 117
-41 55 -1 91 15 74 31 -4 5 -33 8 -64 9 l-57 1 3 37 3 37 -25 -16 c-14 -9 -33
-14 -43 -11 -10 3 -51 42 -91 86 -72 79 -85 86 -173 104 -15 4 -29 14 -32 26
-4 14 -14 20 -34 20 -34 0 -113 35 -113 50 0 6 -23 10 -54 10 -78 0 -116 10
-116 29 0 11 -14 20 -40 28 -23 6 -40 6 -40 1z"/>
<path d="M11537 5424 c-9 -9 -9 -47 -1 -68 10 -27 34 -19 34 12 0 31 -21 67
-33 56z"/>
<path d="M11820 5261 c0 -17 5 -31 10 -31 6 0 10 11 10 24 0 14 -4 28 -10 31
-6 4 -10 -7 -10 -24z"/>
<path d="M9155 5260 c-4 -7 -3 -16 3 -22 13 -13 74 0 69 15 -5 16 -63 21 -72
7z"/>
<path d="M9860 4991 l-25 -8 30 -12 c16 -7 40 -9 53 -6 34 8 62 -3 72 -31 10
-26 30 -30 61 -14 23 13 25 30 4 30 -9 0 -28 9 -43 19 -30 22 -114 34 -152 22z"/>
<path d="M8984 4895 c-27 -31 -48 -45 -65 -45 -22 0 -25 -4 -21 -29 7 -51 -53
-132 -100 -135 -13 -1 -31 -14 -45 -35 -19 -28 -23 -47 -23 -111 0 -82 -5 -91
-73 -134 -26 -16 -27 -19 -14 -39 15 -23 62 -40 89 -31 10 3 16 15 16 32 0 15
15 57 35 94 19 36 43 101 52 143 12 51 23 79 34 83 49 18 201 175 201 208 0 7
-9 14 -19 14 -11 0 -21 7 -23 15 -2 11 -16 1 -44 -30z"/>
<path d="M11400 4931 c0 -17 48 -48 95 -61 49 -14 61 -10 51 15 -12 32 -146
74 -146 46z"/>
<path d="M11581 4862 c-15 -29 17 -72 90 -121 65 -43 94 -49 94 -17 0 11 -16
25 -45 39 -25 12 -45 29 -45 37 0 8 -9 17 -20 20 -10 3 -22 17 -25 30 -7 31
-35 38 -49 12z"/>
<path d="M10464 4716 c-3 -8 7 -34 23 -57 l28 -43 3 33 c4 42 -2 57 -28 71
-16 9 -21 8 -26 -4z"/>
<path d="M9615 4658 c-12 -29 -11 -81 2 -85 16 -6 26 48 14 78 -8 21 -10 22
-16 7z"/>
<path d="M11783 4663 c-18 -7 -16 -30 3 -37 38 -15 100 3 79 23 -13 12 -66 21
-82 14z"/>
<path d="M9670 4612 c0 -12 52 -58 74 -66 11 -4 29 0 42 9 29 19 31 35 4 28
-11 -3 -30 4 -46 16 -26 21 -74 29 -74 13z"/>
<path d="M9464 4599 c-9 -15 15 -36 49 -44 22 -6 27 -4 27 12 0 10 -5 24 -12
31 -15 15 -55 16 -64 1z"/>
<path d="M9335 4535 c-22 -7 -59 -14 -82 -14 -23 -1 -53 -6 -67 -13 -28 -12
-43 -45 -29 -59 11 -11 114 15 162 41 20 11 53 23 74 28 21 4 39 12 40 17 3
15 -53 15 -98 0z"/>
<path d="M9816 4524 c-19 -19 -21 -34 -3 -34 13 0 77 37 77 45 0 12 -60 4 -74
-11z"/>
<path d="M11950 4506 c0 -18 42 -78 58 -84 9 -3 4 15 -12 47 -25 49 -46 66
-46 37z"/>
<path d="M9013 4485 c-18 -8 -33 -19 -33 -25 0 -16 -77 -12 -94 5 -20 21 -36
19 -36 -5 0 -22 64 -70 95 -70 31 0 111 31 141 55 55 44 1 73 -73 40z"/>
<path d="M10786 4445 c10 -16 15 -39 12 -65 l-3 -40 32 32 c24 23 38 29 57 26
42 -8 30 7 -33 41 -72 38 -87 39 -65 6z"/>
<path d="M8790 4374 c0 -28 16 -37 55 -32 27 3 27 3 -14 30 l-41 27 0 -25z"/>
<path d="M8552 4371 c-10 -6 -10 -10 3 -21 18 -15 42 0 31 19 -8 13 -16 14
-34 2z"/>
<path d="M10870 4336 c0 -17 39 -66 40 -49 0 18 -22 63 -32 63 -4 0 -8 -6 -8
-14z"/>
<path d="M8608 4293 c-9 -22 -12 -24 -15 -10 -6 24 -22 21 -35 -8 -9 -21 -8
-28 7 -45 10 -11 29 -20 42 -20 21 0 23 4 23 55 0 61 -5 68 -22 28z"/>
<path d="M11092 4288 c-19 -19 -14 -38 12 -38 31 0 56 28 35 41 -19 12 -33 11
-47 -3z"/>
<path d="M9315 4270 c-4 -6 7 -10 25 -10 18 0 29 4 25 10 -3 6 -15 10 -25 10
-10 0 -22 -4 -25 -10z"/>
<path d="M10722 4124 c-23 -16 -30 -44 -11 -44 6 0 19 10 30 23 31 38 21 50
-19 21z"/>
<path d="M10330 4050 c0 -6 12 -16 26 -22 20 -10 27 -9 34 2 5 8 6 18 4 22 -7
12 -64 10 -64 -2z"/>
<path d="M10427 4034 c-10 -10 15 -53 35 -60 26 -8 32 0 19 25 -13 23 -45 44
-54 35z"/>
<path d="M8430 4012 c0 -12 47 -32 75 -32 30 0 33 15 6 30 -24 12 -81 13 -81
2z"/>
<path d="M8810 3960 c0 -5 14 -16 30 -25 35 -18 41 -4 8 19 -26 18 -38 20 -38
6z"/>
<path d="M8271 3931 c-19 -35 -12 -66 27 -127 44 -68 91 -111 130 -120 53 -11
55 -13 42 -29 -7 -9 -22 -14 -34 -13 -13 2 -21 -3 -21 -12 0 -11 13 -16 44
-18 37 -3 50 -10 91 -53 26 -27 50 -49 54 -49 13 0 5 56 -11 80 -9 14 -43 53
-75 88 -31 34 -62 77 -67 95 l-9 32 -12 -32 c-7 -18 -15 -33 -20 -33 -10 0
-27 46 -34 94 -6 42 -52 109 -79 114 -9 2 -20 -6 -26 -17z"/>
<path d="M10562 3905 c-7 -16 -8 -26 -1 -31 14 -8 39 15 39 37 0 27 -25 23
-38 -6z"/>
<path d="M10650 3885 c-15 -18 -5 -35 20 -35 17 0 40 26 40 44 0 12 -48 5 -60
-9z"/>
<path d="M1070 3503 c0 -22 18 -43 38 -43 9 0 12 9 10 28 -4 33 -48 47 -48 15z"/>
<path d="M8025 3490 c9 -16 20 -30 25 -30 14 0 12 12 -6 38 -23 33 -37 27 -19
-8z"/>
<path d="M8590 3457 c0 -17 44 -59 53 -50 14 13 7 43 -12 53 -27 14 -41 13
-41 -3z"/>
<path d="M8760 3431 c0 -10 7 -24 15 -31 12 -10 16 -9 21 4 6 16 -11 46 -27
46 -5 0 -9 -8 -9 -19z"/>
<path d="M8770 3295 c-9 -11 -10 -19 -2 -27 14 -14 32 -1 32 23 0 23 -13 25
-30 4z"/>
<path d="M8830 3275 c0 -4 8 -20 17 -38 13 -24 18 -28 21 -15 4 20 -14 58 -28
58 -6 0 -10 -2 -10 -5z"/>
<path d="M7917 3154 c-4 -4 -7 -26 -6 -48 0 -23 3 -35 6 -28 2 6 13 12 24 12
10 0 19 6 19 14 0 19 -34 59 -43 50z"/>
<path d="M7554 2905 c-3 -8 -3 -19 1 -25 9 -14 35 6 35 26 0 19 -29 18 -36 -1z"/>
<path d="M7294 2839 c-3 -6 -9 -40 -12 -76 -4 -53 -2 -65 9 -61 15 5 26 43 28
100 1 37 -12 57 -25 37z"/>
<path d="M6741 2411 c-1 -27 2 -32 11 -23 8 8 8 17 0 34 -10 22 -11 21 -11
-11z"/>
<path d="M2640 1610 c-15 -28 -1 -49 17 -25 15 22 17 45 3 45 -5 0 -14 -9 -20
-20z"/>
<path d="M5490 1590 c-16 -30 -9 -95 10 -95 11 0 14 9 12 32 -2 22 2 34 14 41
15 9 16 13 5 26 -18 21 -28 20 -41 -4z"/>
<path d="M6024 1545 c-3 -8 -3 -19 1 -25 9 -14 35 6 35 26 0 19 -29 18 -36 -1z"/>
<path d="M5303 1472 c-34 -21 -43 -129 -18 -222 8 -30 15 -72 15 -93 0 -49 86
-217 111 -217 12 0 -6 53 -35 102 -24 41 -24 46 -10 66 9 13 13 31 9 42 -11
34 21 24 51 -16 26 -34 29 -35 41 -18 9 13 13 45 11 104 -1 47 4 113 12 147 7
35 10 66 6 70 -12 12 -50 -36 -51 -64 -1 -23 -7 -29 -31 -31 -32 -4 -70 -35
-80 -64 -10 -34 -24 -18 -24 28 0 28 9 64 22 91 22 43 22 44 2 63 -10 11 -24
16 -31 12z m95 -214 c19 -19 14 -30 -10 -26 -13 2 -24 11 -26 21 -4 20 18 23
36 5z"/>
<path d="M5172 1448 c-18 -18 -15 -40 6 -36 9 2 18 13 20 26 4 24 -7 29 -26
10z"/>
<path d="M5106 1378 c-2 -7 -25 -71 -51 -143 -55 -151 -73 -270 -39 -263 25 5
44 45 44 96 0 48 13 78 43 103 14 11 21 29 22 56 1 26 11 55 33 87 18 26 32
51 32 55 0 22 -78 29 -84 9z"/>
<path d="M3326 1355 c-3 -9 -13 -15 -23 -13 -11 2 -19 -7 -25 -28 -4 -18 -16
-34 -27 -37 -11 -2 -31 -27 -44 -53 -14 -27 -41 -73 -60 -101 -62 -92 -108
-238 -108 -345 -1 -53 -4 -66 -15 -61 -19 7 -18 -2 7 -75 36 -106 51 -82 59
88 5 117 7 128 35 173 17 26 40 67 52 89 13 24 35 47 52 54 18 8 31 21 33 36
2 15 15 29 37 39 19 9 40 28 48 42 8 15 22 27 33 27 24 0 25 9 6 35 -14 19
-15 19 -34 -5 -32 -39 -37 -16 -13 55 22 63 22 95 2 95 -5 0 -12 -7 -15 -15z"/>
<path d="M4671 1331 c-6 -11 -11 -40 -11 -65 0 -67 -6 -76 -52 -76 -42 0 -78
-14 -78 -31 0 -6 7 -6 20 1 31 16 24 -5 -11 -34 -17 -14 -42 -26 -55 -26 l-25
0 20 26 c15 19 18 31 11 48 -6 16 -3 36 11 66 25 55 14 68 -37 44 -46 -22
-198 -170 -240 -234 -37 -57 -42 -60 -84 -54 -45 6 -105 -23 -105 -51 0 -15 6
-19 23 -17 42 6 25 -47 -36 -110 -20 -21 -33 -41 -29 -44 13 -14 57 19 123 93
70 79 124 117 124 88 0 -9 -11 -38 -25 -66 -14 -27 -23 -54 -20 -59 3 -5 -4
-46 -15 -91 -12 -44 -20 -88 -18 -97 1 -10 -5 -28 -14 -42 -19 -29 -38 -115
-38 -168 1 -34 4 -30 36 48 20 47 38 100 41 117 5 32 19 50 77 102 35 31 35
71 1 71 -15 0 -25 6 -25 14 0 32 76 31 112 -1 9 -8 22 -12 28 -8 17 11 40 70
40 104 0 17 6 31 16 35 12 4 15 15 12 36 -6 41 4 38 31 -11 19 -33 22 -51 19
-91 -5 -42 -2 -51 12 -55 17 -5 17 -7 2 -41 -33 -77 -11 -262 31 -262 22 0 27
23 27 128 0 90 10 166 24 179 8 8 46 -27 46 -42 0 -7 -7 -16 -16 -19 -21 -8
-16 -101 6 -101 9 0 16 11 18 29 3 25 6 27 30 21 15 -4 54 -10 87 -13 56 -7
60 -9 63 -35 4 -29 16 -36 26 -12 3 8 10 15 16 15 17 0 11 -26 -10 -45 -25
-22 -26 -41 -2 -53 30 -17 62 3 62 39 0 52 25 28 28 -27 2 -35 9 -53 23 -65
12 -8 33 -38 47 -65 18 -33 34 -50 50 -52 30 -5 29 20 -4 64 -29 37 -28 39 10
24 44 -16 40 8 -8 60 -35 37 -46 57 -46 81 0 27 -2 30 -15 19 -22 -18 -44 4
-52 52 -4 26 -20 57 -49 91 -25 28 -44 61 -44 74 0 27 -24 31 -39 6 -8 -13
-10 19 -11 112 0 132 14 252 31 270 15 15 11 25 -11 25 -11 0 -20 3 -20 8 0 4
9 15 20 25 27 23 25 34 -11 52 -41 22 -63 13 -56 -22 3 -15 3 -33 0 -40 -13
-32 -63 2 -63 42 0 32 -16 40 -29 16z m61 -128 c23 -21 23 -44 -1 -74 -35 -46
-43 -67 -30 -90 17 -32 -12 -19 -31 14 -12 21 -12 35 -2 82 10 52 26 85 40 85
3 0 14 -7 24 -17z m-312 -72 c16 -31 12 -83 -10 -118 -22 -37 -32 -40 -54 -17
-22 21 -20 56 4 77 11 9 20 27 20 40 0 40 22 50 40 18z m210 -65 c0 -18 -27
-28 -53 -20 -20 6 -20 7 -2 20 24 18 55 18 55 0z m145 -56 c7 -12 -12 -40 -26
-40 -10 0 -12 34 -2 43 9 10 21 9 28 -3z m-425 -109 c0 -5 -16 -16 -36 -26
-32 -15 -38 -15 -51 -2 -9 8 -12 20 -9 26 8 13 96 15 96 2z m368 -149 c4 -27
-14 -29 -28 -3 -14 27 -13 33 8 29 9 -2 18 -13 20 -26z m132 -23 c0 -5 -9 -13
-21 -19 -15 -9 -24 -8 -36 1 -13 12 -13 15 7 31 17 14 26 16 36 7 8 -6 14 -15
14 -20z"/>
<path d="M3498 1175 c-26 -35 -43 -67 -39 -70 5 -3 23 -2 41 2 24 4 36 14 46
39 15 36 19 94 6 94 -4 0 -28 -29 -54 -65z"/>
<path d="M3687 1229 c-22 -13 -13 -29 18 -29 34 0 55 10 55 26 0 17 -46 18
-73 3z"/>
<path d="M4850 1127 c0 -22 27 -57 43 -57 13 0 7 35 -9 58 -20 29 -34 28 -34
-1z"/>
<path d="M4151 1094 c-12 -15 -21 -35 -21 -46 0 -19 1 -19 30 2 33 23 53 54
43 64 -13 13 -32 5 -52 -20z"/>
<path d="M5392 1108 c-7 -7 -12 -18 -12 -25 0 -18 29 -16 37 3 8 21 -10 37
-25 22z"/>
<path d="M3424 1056 c-3 -8 -4 -29 -2 -47 4 -43 34 -53 44 -14 11 45 -27 101
-42 61z"/>
<path d="M5780 1040 c0 -22 43 -55 60 -45 17 10 11 33 -12 49 -30 22 -48 20
-48 -4z"/>
<path d="M4945 1031 c-4 -8 -8 -48 -8 -89 0 -56 4 -78 15 -86 12 -9 15 -23 11
-56 -6 -56 15 -91 44 -74 23 14 29 44 9 44 -20 0 -36 31 -36 70 0 39 16 70 35
70 23 0 18 13 -16 40 -18 16 -34 40 -38 60 -5 26 -9 31 -16 21z"/>
<path d="M5566 953 c-3 -4 -4 -34 -1 -67 5 -47 4 -57 -5 -43 -24 38 -60 7 -60
-52 0 -25 5 -32 26 -37 l26 -7 -31 -13 c-44 -19 -42 -47 3 -39 32 6 33 5 29
-19 -7 -37 13 -33 33 7 11 21 19 65 22 127 5 113 -12 172 -42 143z"/>
<path d="M3375 907 c-11 -18 -15 -42 -13 -84 l3 -58 28 57 c29 58 32 98 10
105 -6 2 -19 -7 -28 -20z"/>
<path d="M5366 872 c4 -25 2 -42 -5 -46 -6 -4 -11 -21 -11 -39 0 -38 60 -237
72 -237 12 0 10 28 -12 110 -24 92 -25 120 -3 157 14 25 14 32 2 58 -8 17 -22
31 -32 33 -15 3 -17 -2 -11 -36z"/>
<path d="M5730 840 c-20 -20 -27 -50 -12 -50 5 0 18 10 30 23 39 41 21 66 -18
27z"/>
<path d="M5117 844 c-11 -11 13 -34 35 -34 13 0 18 6 16 18 -3 17 -38 29 -51
16z"/>
<path d="M4430 755 c-7 -8 -9 -22 -6 -31 6 -15 8 -15 26 1 11 10 20 24 20 32
0 18 -25 17 -40 -2z"/>
<path d="M5697 693 c-13 -12 -7 -23 12 -23 26 0 51 10 51 21 0 10 -53 12 -63
2z"/>
<path d="M5532 593 c-24 -21 -37 -59 -23 -68 16 -9 49 13 65 44 23 43 -3 57
-42 24z"/>
<path d="M3065 510 c-3 -5 15 -20 40 -32 33 -16 51 -33 60 -55 15 -35 35 -44
35 -16 0 55 -112 141 -135 103z"/>
<path d="M5465 470 c-23 -26 -4 -26 26 0 18 15 20 19 8 20 -9 0 -24 -9 -34
-20z"/>
<path d="M4520 440 c14 -27 -1 -55 -43 -77 l-32 -16 33 -9 c38 -10 42 -32 10
-59 -19 -15 -20 -18 -6 -19 28 0 77 49 84 85 4 25 0 44 -17 74 -22 40 -50 60
-29 21z"/>
<path d="M3242 351 c-17 -55 -15 -79 7 -91 31 -16 41 -12 41 15 0 31 -22 115
-30 115 -4 0 -12 -17 -18 -39z"/>
<path d="M5560 378 c0 -16 19 -38 33 -38 4 0 7 10 5 22 -3 25 -38 39 -38 16z"/>
<path d="M5530 315 c0 -15 60 -58 69 -50 6 6 -50 65 -61 65 -4 0 -8 -7 -8 -15z"/>
<path d="M6776 323 c-8 -8 -8 -48 1 -56 10 -10 33 13 33 33 0 18 -23 34 -34
23z"/>
<path d="M5106 281 c-4 -6 -3 -11 2 -11 19 0 52 -43 52 -68 0 -21 15 -42 59
-84 38 -36 61 -66 66 -87 7 -32 7 -32 22 -11 l15 21 19 -20 c25 -27 63 -27 89
-1 45 45 13 84 -62 74 -32 -4 -50 0 -69 13 -33 22 -95 96 -116 137 -8 17 -16
32 -17 33 -7 9 -55 12 -60 4z"/>
<path d="M5617 203 c-10 -10 -8 -61 2 -67 11 -7 33 52 25 65 -6 11 -18 12 -27
2z"/>
<path d="M4580 168 c0 -16 19 -38 33 -38 4 0 7 10 5 22 -3 25 -38 39 -38 16z"/>
</g>
</svg>
