<?xml version="1.0" standalone="no"?>
<!DOCTYPE svg PUBLIC "-//W3C//DTD SVG 20010904//EN"
 "http://www.w3.org/TR/2001/REC-SVG-20010904/DTD/svg10.dtd">
<svg version="1.0" xmlns="http://www.w3.org/2000/svg"
 width="1280.000000pt" height="1280.000000pt" viewBox="0 0 1280.000000 1280.000000"
 preserveAspectRatio="xMidYMid meet">
<g transform="translate(0.000000,1280.000000) scale(0.100000,-0.100000)"
fill="#000000" stroke="none">
<path d="M5320 12065 c-196 -29 -352 -96 -589 -254 -80 -53 -175 -115 -211
-136 -120 -71 -304 -222 -455 -372 -82 -82 -192 -184 -242 -227 -51 -42 -93
-80 -93 -83 0 -4 12 4 28 18 l27 24 -24 -27 c-13 -15 -28 -25 -35 -22 -6 2
-36 -22 -66 -53 l-55 -58 50 45 50 45 -44 -47 c-24 -25 -49 -44 -55 -42 -11 4
-99 -78 -97 -90 1 -4 -40 -48 -91 -99 -51 -51 -68 -65 -38 -32 l55 60 -62 -59
c-34 -33 -61 -62 -60 -65 4 -13 -76 -101 -86 -94 -5 3 -7 1 -4 -5 6 -9 -77
-122 -90 -122 -7 0 10 22 51 70 21 23 23 28 7 15 -28 -24 -92 -103 -73 -92 6
5 12 4 12 -2 0 -5 -4 -12 -9 -15 -17 -11 -167 -231 -236 -346 -38 -63 -134
-241 -212 -395 -78 -154 -143 -275 -143 -270 0 16 -165 -334 -246 -523 -41
-95 -72 -177 -69 -182 3 -4 -17 -68 -44 -142 -27 -73 -61 -173 -77 -223 -15
-49 -29 -85 -31 -80 -2 6 10 51 27 100 33 98 40 143 9 55 -106 -294 -196 -749
-186 -933 4 -55 3 -62 -3 -32 -6 29 -8 15 -5 -50 2 -53 0 -80 -5 -65 -4 14 -9
-252 -12 -590 l-4 -615 -26 -90 c-15 -49 -43 -126 -63 -170 -169 -367 -271
-730 -355 -1260 -17 -110 -53 -330 -80 -490 -26 -159 -54 -339 -60 -400 -14
-132 -14 -295 2 -350 6 -22 12 -96 13 -165 1 -70 10 -162 20 -210 9 -47 18
-101 20 -120 4 -63 16 -141 57 -395 22 -137 42 -268 45 -290 3 -22 9 -58 13
-80 16 -80 10 10 -11 170 -11 88 -18 173 -15 189 4 16 -7 146 -23 290 -19 167
-30 318 -31 421 -2 181 0 212 10 140 4 -35 6 -17 7 65 0 87 7 144 28 235 15
66 30 143 34 170 3 28 7 -112 8 -310 2 -285 6 -398 22 -540 37 -323 75 -594
83 -589 4 3 5 -2 2 -11 -6 -14 9 -134 26 -215 l8 -35 2 30 c3 33 38 -188 39
-244 2 -59 -16 -21 -23 48 -3 35 -8 66 -11 69 -7 7 -6 -10 5 -108 13 -114 -4
-126 -20 -13 -20 141 -48 299 -49 281 0 -9 8 -76 19 -150 55 -371 57 -451 15
-552 -22 -53 -31 -38 -11 20 21 63 20 68 -6 19 -14 -27 -21 -62 -22 -110 -3
-83 -10 -114 -36 -166 -11 -21 -20 -45 -20 -53 0 -8 -9 -35 -20 -60 -10 -25
-17 -46 -15 -46 7 0 74 148 87 192 8 26 14 35 20 26 15 -25 8 -77 -17 -114
-14 -20 -25 -42 -24 -48 0 -6 8 4 16 22 12 23 22 31 34 27 13 -5 16 -1 12 14
-3 11 2 41 11 67 19 56 20 71 1 29 l-13 -30 -5 45 c-7 53 -5 129 2 109 3 -8
14 17 26 55 12 37 24 62 27 55 3 -8 -7 -57 -23 -109 -15 -52 -27 -96 -25 -98
3 -2 7 6 11 17 3 12 10 21 14 21 4 0 14 19 21 43 l13 42 14 -60 c7 -33 14
-120 16 -192 2 -110 5 -133 17 -133 25 -1 -9 -16 -53 -24 -27 -5 -37 -3 -37 6
0 11 -2 11 -8 0 -8 -12 -82 -30 -82 -20 0 3 11 31 25 62 14 31 25 62 25 69 0
7 -14 -19 -30 -57 -16 -38 -31 -70 -33 -72 -5 -5 -190 -31 -342 -48 -224 -24
-452 -41 -920 -66 -104 -6 -202 -13 -218 -16 l-27 -6 0 -394 0 -394 6400 0
6400 0 0 404 0 405 -52 5 c-29 3 -143 10 -253 16 -235 13 -461 32 -710 61
-202 23 -539 66 -570 74 -12 3 -35 31 -55 67 -99 179 -129 238 -121 242 5 3
14 26 21 51 12 43 9 77 -16 151 -5 16 -4 16 5 4 6 -8 25 -60 42 -115 51 -163
47 -153 48 -129 1 12 -8 52 -20 89 -11 37 -18 69 -16 71 7 8 33 -66 52 -146
28 -121 36 -144 30 -88 -2 27 -7 60 -10 75 -6 37 30 -80 43 -137 l11 -45 -6
50 c-9 76 -43 181 -54 164 -6 -10 -9 -8 -9 11 0 14 -25 75 -55 137 l-54 112
21 47 c19 44 22 46 34 29 8 -10 14 -28 15 -39 0 -15 6 -9 19 19 10 22 18 49
18 60 0 17 -1 17 -5 3 -2 -10 -9 -18 -15 -18 -5 0 -7 7 -4 15 15 38 16 47 1
22 -9 -16 -14 -36 -11 -44 5 -13 4 -13 -7 -4 -14 11 -13 47 3 86 4 11 18 55
31 97 12 43 26 78 31 78 4 0 8 14 8 31 0 16 4 28 9 24 12 -7 23 27 16 46 -2 8
18 82 45 164 27 83 48 139 45 125 -3 -14 -7 -36 -10 -50 -3 -14 8 13 25 60 27
76 50 152 120 405 10 39 23 82 28 95 5 14 10 29 10 34 0 5 5 12 10 15 6 3 24
56 41 116 16 61 30 103 30 95 1 -9 -10 -60 -25 -114 -29 -114 -26 -140 5 -38
71 235 95 430 72 587 -10 69 -10 69 -6 -35 3 -81 1 -98 -7 -75 -5 17 -12 120
-13 230 -5 300 -59 824 -126 1215 -86 509 -202 935 -392 1445 -80 215 -77 184
-66 535 9 301 -7 534 -56 825 -14 77 -31 201 -40 275 -38 339 -90 513 -250
845 -87 180 -188 433 -314 790 -134 375 -194 489 -428 819 -181 254 -269 362
-443 541 -80 83 -170 177 -200 210 -81 89 -211 214 -330 317 -58 51 -144 127
-191 170 -270 247 -547 382 -914 444 -226 38 -536 33 -815 -12 -140 -23 -487
-92 -546 -109 -49 -14 -53 -14 -135 15 -368 132 -747 186 -1019 145z m2315
-55 c81 -5 89 -7 45 -10 -48 -2 -43 -4 40 -11 197 -17 424 -65 533 -111 69
-30 53 -31 -28 -2 -181 63 -463 103 -745 105 -168 1 -376 13 -335 19 108 15
351 20 490 10z m121 -60 c384 -30 681 -138 932 -339 82 -66 229 -204 284 -266
38 -43 31 -39 -84 44 -69 50 -179 122 -244 161 -171 102 -460 242 -599 290
-114 39 -356 99 -406 101 -13 0 -33 4 -44 9 -17 7 -16 9 10 9 17 0 84 -4 151
-9z m-268 -7 c-10 -2 -26 -2 -35 0 -10 3 -2 5 17 5 19 0 27 -2 18 -5z m65 -10
c-7 -2 -19 -2 -25 0 -7 3 -2 5 12 5 14 0 19 -2 13 -5z m70 -10 c-7 -2 -21 -2
-30 0 -10 3 -4 5 12 5 17 0 24 -2 18 -5z m150 -28 c112 -28 411 -125 404 -131
-2 -2 -57 15 -123 37 -65 22 -186 58 -269 79 -82 22 -142 39 -132 40 10 0 64
-11 120 -25z m-2100 -2 c-29 -2 -77 -2 -105 0 -29 2 -6 3 52 3 58 0 81 -1 53
-3z m-253 -18 c-52 -6 -115 -15 -140 -20 -25 -4 -42 -4 -39 -1 9 9 177 34 229
34 27 0 8 -5 -50 -13z m70 -16 c-47 -5 -96 -15 -110 -23 -14 -7 -42 -17 -64
-20 -105 -19 -334 -111 -591 -238 -106 -53 -152 -67 -137 -44 4 6 7 14 7 18 0
3 4 10 9 15 5 4 6 3 2 -4 -12 -22 15 -25 37 -5 31 29 169 113 263 160 156 79
451 151 614 150 46 -1 41 -2 -30 -9z m1199 7 c-2 -2 -30 -11 -63 -19 -45 -12
-64 -13 -85 -4 -24 10 -22 12 34 17 83 9 119 11 114 6z m-1559 -46 c-57 -16
-106 -27 -108 -25 -4 3 30 14 138 44 19 5 44 9 55 9 11 0 -27 -12 -85 -28z
m-219 -81 c-46 -21 -86 -37 -88 -35 -4 3 26 19 108 55 81 36 65 20 -20 -20z
m-131 -64 c0 -2 -10 -9 -22 -15 -22 -11 -22 -10 -4 4 21 17 26 19 26 11z m-69
-44 c-35 -26 -81 -53 -81 -47 0 6 91 66 100 66 3 0 -6 -9 -19 -19z m3599 -31
c41 -21 71 -39 65 -39 -5 0 -44 18 -85 39 -41 21 -70 39 -65 39 6 0 44 -18 85
-39z m-3780 -44 c0 -3 -27 -26 -60 -52 -33 -25 -57 -50 -55 -54 6 -10 -22 -33
-43 -36 -8 -2 -59 -47 -113 -100 -54 -54 -101 -95 -104 -92 -6 6 170 172 290
271 80 67 85 71 85 63z m30 -29 c0 -2 -24 -23 -52 -46 l-53 -43 50 46 c48 44
55 50 55 43z m3780 -133 c0 -2 -13 2 -30 11 -16 9 -30 18 -30 21 0 2 14 -2 30
-11 17 -9 30 -18 30 -21z m323 -4 c56 -35 64 -52 10 -19 -61 37 -78 49 -67 49
5 0 31 -13 57 -30z m168 -107 l24 -28 -30 25 c-16 14 -32 26 -34 28 -2 1 0 2
6 2 5 0 20 -12 34 -27z m114 -74 c20 -22 20 -22 0 -11 -11 5 -29 20 -40 33
-20 22 -20 22 0 11 11 -5 29 -20 40 -33z m265 -124 c13 -14 19 -25 14 -25 -5
0 23 -30 62 -68 39 -37 57 -56 40 -42 -61 49 -115 103 -110 111 2 4 -39 42
-91 84 -52 42 -95 79 -95 81 0 8 153 -112 180 -141z m-565 115 c10 -11 16 -20
13 -20 -3 0 -13 9 -23 20 -10 11 -16 20 -13 20 3 0 13 -9 23 -20z m-4631 -85
c-54 -61 -83 -87 -53 -47 17 22 102 112 107 112 2 0 -23 -29 -54 -65z m4876
-111 c0 -2 -27 14 -60 36 -33 22 -60 43 -60 46 0 2 27 -14 60 -36 33 -22 60
-43 60 -46z m63 -82 c48 -35 87 -66 87 -68 0 -7 -14 2 -112 74 -49 35 -88 66
-88 69 0 6 16 -4 113 -75z m-4793 55 c0 -2 -12 -14 -27 -28 l-28 -24 24 28
c23 25 31 32 31 24z m-210 -10 c0 -2 -12 -14 -27 -28 l-28 -24 24 28 c23 25
31 32 31 24z m204 -87 c-38 -38 -80 -77 -94 -86 -14 -8 14 23 62 70 48 47 90
86 94 86 5 0 -23 -31 -62 -70z m-365 -5 c-18 -25 -41 -53 -53 -62 -11 -10 2
10 29 45 55 72 71 83 24 17z m61 2 c0 -1 -24 -25 -52 -52 l-53 -50 50 53 c46
48 55 57 55 49z m-260 -20 c0 -2 -17 -19 -37 -38 l-38 -34 34 38 c33 34 41 42
41 34z m410 0 c0 -2 -12 -14 -27 -28 l-28 -24 24 28 c23 25 31 32 31 24z m50
-30 c0 -2 -17 -19 -37 -38 l-38 -34 34 38 c33 34 41 42 41 34z m5346 -45 c-8
-7 -25 8 -37 31 -11 21 -10 21 15 -2 14 -14 24 -26 22 -29z m65 11 l34 -36
-42 33 c-24 18 -43 35 -43 37 0 12 21 -2 51 -34z m129 -58 c30 -30 52 -55 49
-55 -2 0 -29 25 -59 55 -30 30 -52 55 -49 55 2 0 29 -25 59 -55z m-6030 -20
c-24 -25 -46 -45 -49 -45 -3 0 15 20 39 45 24 25 46 45 49 45 3 0 -15 -20 -39
-45z m360 1 c0 -2 -8 -10 -17 -17 -16 -13 -17 -12 -4 4 13 16 21 21 21 13z
m-542 -156 c-265 -309 -445 -586 -681 -1050 -113 -224 -158 -302 -121 -215 41
100 217 434 334 636 153 264 311 483 470 652 50 53 94 97 96 97 3 0 -41 -54
-98 -120z m6265 -15 l20 -30 -32 30 c-18 17 -42 44 -54 60 l-20 30 32 -30 c18
-16 42 -43 54 -60z m-5843 71 c0 -2 -8 -10 -17 -17 -16 -13 -17 -12 -4 4 13
16 21 21 21 13z m5911 -23 c13 -16 12 -17 -3 -4 -10 7 -18 15 -18 17 0 8 8 3
21 -13z m29 -153 c6 -11 8 -20 6 -20 -3 0 -10 9 -16 20 -6 11 -8 20 -6 20 3 0
10 -9 16 -20z m-5870 -14 c0 -2 -8 -10 -17 -17 -16 -13 -17 -12 -4 4 13 16 21
21 21 13z m5544 -141 c35 -44 75 -98 90 -120 l28 -40 -36 40 c-55 61 -192 243
-166 220 12 -11 50 -56 84 -100z m-5584 92 c0 -2 -10 -12 -22 -23 l-23 -19 19
23 c18 21 26 27 26 19z m5949 -84 c25 -36 26 -41 6 -18 -26 30 -49 65 -42 65
2 0 18 -21 36 -47z m249 -253 c81 -150 30 -78 -67 95 l-23 40 24 -27 c12 -15
42 -64 66 -108z m107 -60 c9 -16 13 -30 11 -30 -3 0 -12 14 -21 30 -9 17 -13
30 -11 30 3 0 12 -13 21 -30z m-7091 -117 c-53 -83 -67 -103 -71 -103 -3 0 3
12 13 28 53 82 67 102 71 102 3 0 -3 -12 -13 -27z m-62 -17 c-11 -19 -70 -124
-132 -235 -61 -110 -115 -203 -120 -206 -5 -3 34 72 87 167 121 221 172 308
179 308 3 0 -3 -15 -14 -34z m7307 -601 c0 -11 -7 0 -15 25 -17 56 -17 64 1
25 8 -16 14 -39 14 -50z m-7691 -197 c-17 -40 -57 -149 -90 -242 -32 -93 -63
-176 -69 -185 -8 -12 -10 -13 -6 -1 2 8 12 42 22 75 39 136 155 425 170 425 2
0 -10 -33 -27 -72z m-207 -75 c-12 -20 -14 -14 -5 12 4 9 9 14 11 11 3 -2 0
-13 -6 -23z m-40 -90 c-11 -21 -20 -35 -21 -31 0 12 33 78 38 74 2 -2 -6 -21
-17 -43z m65 -40 c-14 -26 -25 -45 -26 -41 0 12 43 98 48 94 2 -2 -8 -26 -22
-53z m8128 -172 c25 -85 44 -156 42 -158 -7 -8 -117 360 -115 384 1 12 22 -53
73 -226z m-8223 142 c-12 -20 -14 -14 -5 12 4 9 9 14 11 11 3 -2 0 -13 -6 -23z
m103 -163 c-25 -80 -59 -185 -76 -235 -139 -413 -152 -509 -168 -1215 -9 -397
-12 -454 -31 -530 -12 -47 -24 -89 -28 -93 -21 -22 -37 645 -22 863 31 433 60
579 186 925 50 136 176 438 181 432 2 -1 -17 -68 -42 -147z m8260 -220 c5 -17
4 -20 -2 -10 -5 8 -13 26 -16 40 -5 17 -4 20 2 10 5 -8 13 -26 16 -40z m120
-201 c3 -19 -7 7 -24 56 -16 50 -29 95 -29 100 1 15 46 -118 53 -156z m-47 -4
c28 -93 65 -257 59 -262 -2 -3 -7 11 -11 29 -4 18 -23 87 -42 153 -18 65 -35
126 -37 135 -2 8 -8 28 -14 43 -7 16 -12 34 -11 40 1 19 29 -51 56 -138z m70
23 c-3 -8 -6 -5 -6 6 -1 11 2 17 5 13 3 -3 4 -12 1 -19z m-8703 -154 c-20 -77
-44 -177 -54 -224 -10 -47 -19 -73 -19 -58 -2 48 95 435 106 425 2 -3 -13 -67
-33 -143z m173 84 c-3 -8 -6 -5 -6 6 -1 11 2 17 5 13 3 -3 4 -12 1 -19z m8010
0 c-3 -8 -6 -5 -6 6 -1 11 2 17 5 13 3 -3 4 -12 1 -19z m-7610 -10 c-3 -8 -6
-5 -6 6 -1 11 2 17 5 13 3 -3 4 -12 1 -19z m-640 -20 c-3 -8 -6 -5 -6 6 -1 11
2 17 5 13 3 -3 4 -12 1 -19z m222 -52 c-7 -31 -14 -54 -17 -51 -3 3 1 30 8 60
7 30 15 53 18 51 2 -3 -2 -30 -9 -60z m8548 42 c-3 -8 -6 -5 -6 6 -1 11 2 17
5 13 3 -3 4 -12 1 -19z m-510 -20 c-3 -7 -5 -2 -5 12 0 14 2 19 5 13 2 -7 2
-19 0 -25z m-8291 -95 c-14 -55 -39 -178 -55 -274 -16 -96 -32 -185 -34 -199
-3 -14 -3 2 0 35 8 117 97 555 110 542 2 -3 -7 -49 -21 -104z m661 70 c-3 -10
-5 -4 -5 12 0 17 2 24 5 18 2 -7 2 -21 0 -30z m8150 5 c-3 -8 -6 -5 -6 6 -1
11 2 17 5 13 3 -3 4 -12 1 -19z m-510 -50 c-3 -7 -5 -2 -5 12 0 14 2 19 5 13
2 -7 2 -19 0 -25z m-7650 -35 c-3 -10 -5 -2 -5 17 0 19 2 27 5 18 2 -10 2 -26
0 -35z m-420 -5 c-3 -8 -6 -5 -6 6 -1 11 2 17 5 13 3 -3 4 -12 1 -19z m8080
-35 c-3 -10 -5 -4 -5 12 0 17 2 24 5 18 2 -7 2 -21 0 -30z m447 -90 c14 -56
26 -108 25 -115 -1 -16 -59 191 -59 211 0 29 9 3 34 -96z m-8117 60 c-3 -10
-5 -4 -5 12 0 17 2 24 5 18 2 -7 2 -21 0 -30z m7680 -35 c-3 -7 -5 -2 -5 12 0
14 2 19 5 13 2 -7 2 -19 0 -25z m480 10 c-3 -8 -6 -5 -6 6 -1 11 2 17 5 13 3
-3 4 -12 1 -19z m-8150 -45 c-3 -10 -5 -2 -5 17 0 19 2 27 5 18 2 -10 2 -26 0
-35z m-20 -10 c-3 -10 -5 -2 -5 17 0 19 2 27 5 18 2 -10 2 -26 0 -35z m10 -70
c-3 -10 -5 -2 -5 17 0 19 2 27 5 18 2 -10 2 -26 0 -35z m-20 0 c-3 -10 -5 -4
-5 12 0 17 2 24 5 18 2 -7 2 -21 0 -30z m-650 -15 c-3 -7 -5 -2 -5 12 0 14 2
19 5 13 2 -7 2 -19 0 -25z m50 -20 c-3 -8 -6 -5 -6 6 -1 11 2 17 5 13 3 -3 4
-12 1 -19z m610 -35 c-3 -10 -5 -2 -5 17 0 19 2 27 5 18 2 -10 2 -26 0 -35z
m-9 -68 c-1 -31 -16 35 -16 70 0 25 2 24 9 -10 4 -22 8 -49 7 -60z m8169 73
c-3 -8 -6 -5 -6 6 -1 11 2 17 5 13 3 -3 4 -12 1 -19z m-8179 -133 c0 -16 -2
-15 -8 5 -4 14 -8 36 -8 50 0 22 1 22 8 -5 4 -16 8 -39 8 -50z m-682 -102
c-32 -287 -39 -519 -27 -878 10 -290 10 -353 -3 -430 l-15 -90 7 80 c4 44 5
175 2 290 -9 373 -2 1103 10 1010 4 -32 8 -18 19 70 8 61 16 105 18 98 2 -6
-3 -74 -11 -150z m672 32 c0 -16 -2 -15 -8 5 -4 14 -8 36 -8 50 0 22 1 22 8
-5 4 -16 8 -39 8 -50z m12 -150 c-11 -94 -26 -190 -34 -215 -22 -67 -19 -30
14 187 17 108 30 198 30 201 0 3 2 3 5 1 2 -3 -5 -81 -15 -174z m-26 110 c5
-29 4 -36 -3 -25 -6 8 -11 28 -11 44 0 39 6 31 14 -19z m-627 -147 c-2 -24 -4
-7 -4 37 0 44 2 63 4 43 2 -21 2 -57 0 -80z m8974 -354 c1 -138 -2 -280 -7
-315 -16 -133 -23 3 -21 396 2 372 3 385 15 280 7 -60 13 -223 13 -361z
m-8354 409 c-3 -10 -5 -4 -5 12 0 17 2 24 5 18 2 -7 2 -21 0 -30z m-10 -70
c-3 -10 -5 -4 -5 12 0 17 2 24 5 18 2 -7 2 -21 0 -30z m-625 -351 c-3 -124 1
-317 8 -435 11 -190 10 -221 -5 -302 -17 -94 -35 -141 -34 -95 0 14 6 59 14
100 11 62 12 123 3 340 -11 259 -2 693 12 640 4 -14 4 -125 2 -248z m585 141
c-3 -10 -5 -4 -5 12 0 17 2 24 5 18 2 -7 2 -21 0 -30z m-520 -105 c-2 -18 -4
-4 -4 32 0 36 2 50 4 33 2 -18 2 -48 0 -65z m533 -105 c-11 -17 -11 -17 -6 0
3 10 6 24 7 30 0 9 2 9 5 0 3 -7 0 -20 -6 -30z m-533 -180 c-3 -10 -5 -4 -5
12 0 17 2 24 5 18 2 -7 2 -21 0 -30z m523 -133 l-11 -25 6 25 c2 14 5 34 6 45
2 19 2 19 6 0 2 -12 -1 -32 -7 -45z m-483 18 c-3 -8 -6 -5 -6 6 -1 11 2 17 5
13 3 -3 4 -12 1 -19z m8855 -175 l-9 -88 -1 130 c0 103 2 121 9 88 6 -25 6
-76 1 -130z m-8843 40 c-6 -24 -16 -46 -21 -50 -6 -3 -8 2 -5 13 3 11 9 37 12
59 4 22 10 49 13 60 13 40 14 -37 1 -82z m75 -1 c-28 -75 -34 -71 -11 7 12 38
23 64 25 55 2 -8 -4 -36 -14 -62z m-32 6 c-8 -8 -9 -4 -5 13 4 13 8 18 11 10
2 -7 -1 -18 -6 -23z m-85 -35 c-3 -10 -5 -2 -5 17 0 19 2 27 5 18 2 -10 2 -26
0 -35z m154 -125 c2 -70 -1 -94 -16 -122 -11 -20 -22 -36 -26 -36 -3 0 -9 43
-13 95 -7 86 -5 102 16 156 l23 59 7 -32 c4 -18 8 -72 9 -120z m-115 1 c-14
-41 -25 -65 -25 -55 -1 27 43 163 47 144 2 -8 -8 -48 -22 -89z m8924 -39 c8 0
76 -202 152 -448 16 -53 2 -48 -17 5 -10 26 -38 97 -61 156 -24 59 -47 126
-50 148 -5 29 -9 37 -16 27 -6 -8 -7 0 -3 25 4 27 3 37 -4 32 -6 -3 -11 2 -11
13 0 11 -2 32 -4 48 -2 16 -1 21 1 12 2 -10 8 -18 13 -18z m-8872 -117 c-1
-50 -6 -79 -12 -76 -5 4 -7 -1 -3 -11 5 -11 3 -15 -5 -10 -7 5 -9 2 -6 -8 4
-8 2 -21 -4 -29 -8 -11 -9 -10 -4 4 3 9 1 17 -4 17 -6 0 -10 16 -10 36 0 24
-4 33 -12 28 -19 -12 -3 96 23 150 l24 48 7 -34 c4 -18 7 -70 6 -115z m8789
-20 c-2 -16 -4 -5 -4 22 0 28 2 40 4 28 2 -13 2 -35 0 -50z m-8742 17 c-9 -18
-19 -30 -21 -27 -3 2 3 18 13 35 23 40 29 33 8 -8z m8762 -22 c-2 -13 -4 -5
-4 17 -1 22 1 32 4 23 2 -10 2 -28 0 -40z m-8761 -35 c-8 -15 -15 -25 -16 -21
0 12 23 58 27 54 3 -2 -2 -17 -11 -33z m-191 -20 c-4 -21 -9 -58 -11 -83 -8
-109 -43 -258 -78 -334 -20 -43 -33 -83 -29 -89 3 -6 1 -7 -5 -3 -7 4 -12 2
-12 -5 0 -7 -3 -10 -6 -6 -3 3 6 59 21 124 15 65 28 132 30 150 5 49 81 283
92 283 3 0 2 -17 -2 -37z m8962 -20 c-3 -10 -5 -4 -5 12 0 17 2 24 5 18 2 -7
2 -21 0 -30z m-9050 5 c-3 -8 -6 -5 -6 6 -1 11 2 17 5 13 3 -3 4 -12 1 -19z
m9060 -60 c-3 -7 -5 -2 -5 12 0 14 2 19 5 13 2 -7 2 -19 0 -25z m-8842 -27
c-22 -43 -29 -39 -10 5 8 20 15 39 16 43 0 3 3 1 5 -6 3 -6 -2 -25 -11 -42z
m97 -8 c-2 -42 -20 -93 -33 -93 -15 0 -10 67 8 105 20 42 27 38 25 -12z m8835
-55 c-3 -8 -6 -5 -6 6 -1 11 2 17 5 13 3 -3 4 -12 1 -19z m-8963 -3 c-4 -8 -8
-15 -10 -15 -2 0 -4 7 -4 15 0 8 4 15 10 15 5 0 7 -7 4 -15z m8973 -52 c-3
-10 -5 -4 -5 12 0 17 2 24 5 18 2 -7 2 -21 0 -30z m61 -115 c61 -185 124 -417
117 -428 -4 -6 1 -33 10 -61 10 -28 15 -52 13 -54 -3 -4 -135 361 -144 400
-10 45 28 -48 67 -163 22 -68 43 -122 45 -119 5 5 -66 215 -99 293 -15 34 -31
92 -37 130 -6 38 -13 81 -16 97 -13 61 7 20 44 -95z m-51 45 c-3 -10 -5 -4 -5
12 0 17 2 24 5 18 2 -7 2 -21 0 -30z m100 -35 c-3 -8 -6 -5 -6 6 -1 11 2 17 5
13 3 -3 4 -12 1 -19z m-9072 -20 c-1 -35 -7 -54 -31 -103 -14 -30 -15 -30 -9
20 9 86 44 158 40 83z m-236 -338 c-28 -72 -53 -129 -55 -127 -13 13 20 147
57 234 43 97 44 100 47 62 2 -28 -11 -74 -49 -169z m1031 105 c0 -5 -5 -3 -10
5 -5 8 -10 20 -10 25 0 6 5 3 10 -5 5 -8 10 -19 10 -25z m7169 -94 c1 -35 -5
-22 -12 24 -5 28 -4 34 3 20 5 -11 9 -31 9 -44z m-7082 -13 c-3 -8 -6 -5 -6 6
-1 11 2 17 5 13 3 -3 4 -12 1 -19z m-1307 -309 c-11 -71 -28 -132 -29 -109 -1
22 31 181 36 177 2 -3 -1 -33 -7 -68z m1207 -51 c-3 -7 -5 -2 -5 12 0 14 2 19
5 13 2 -7 2 -19 0 -25z m70 -20 c-3 -8 -6 -5 -6 6 -1 11 2 17 5 13 3 -3 4 -12
1 -19z m-690 -45 c-3 -10 -5 -2 -5 17 0 19 2 27 5 18 2 -10 2 -26 0 -35z m653
-63 c0 -39 -3 -51 -10 -40 -5 8 -10 40 -10 70 0 39 3 51 10 40 5 -8 10 -40 10
-70z m-1280 -116 c-12 -36 -24 -63 -26 -61 -3 3 5 44 18 93 16 63 24 81 26 61
2 -15 -6 -57 -18 -93z m467 64 c-3 -8 -6 -5 -6 6 -1 11 2 17 5 13 3 -3 4 -12
1 -19z m812 -78 c1 -13 0 -13 -9 0 -5 8 -9 26 -9 40 l1 25 8 -25 c4 -14 8 -32
9 -40z m42 0 c5 0 8 -26 7 -57 l-2 -58 -3 50 c-3 35 -7 45 -13 35 -7 -10 -9
-1 -8 30 0 25 3 35 5 23 2 -13 9 -23 14 -23z m-134 -42 c-2 -13 -4 -5 -4 17
-1 22 1 32 4 23 2 -10 2 -28 0 -40z m-746 -51 c1 -48 -1 -91 -5 -94 -3 -4 -6
38 -6 92 0 121 8 122 11 2z m1036 1 c-2 -13 -4 -5 -4 17 -1 22 1 32 4 23 2
-10 2 -28 0 -40z m90 20 c-3 -8 -6 -5 -6 6 -1 11 2 17 5 13 3 -3 4 -12 1 -19z
m-1563 -40 c-3 -24 -14 -72 -25 -108 -10 -36 -22 -85 -27 -110 l-9 -45 -1 40
c0 35 56 265 65 265 2 0 0 -19 -3 -42z m9635 -194 c58 -278 149 -946 126 -923
-2 3 -31 167 -64 365 -33 197 -65 384 -71 414 -8 43 -40 310 -40 338 0 29 16
-35 49 -194z m-8357 29 c2 -35 1 -63 -4 -63 -4 0 -8 10 -8 23 0 12 -3 47 -6
77 -3 37 -2 50 4 40 5 -8 12 -43 14 -77z m238 35 c0 -24 3 -81 6 -128 4 -62 3
-81 -5 -70 -8 12 -11 8 -11 -20 0 -33 -1 -34 -15 -13 -11 15 -13 34 -7 74 l7
54 6 -40 c4 -22 4 11 1 73 -4 81 -2 112 6 112 7 0 12 -17 12 -42z m-73 0 c-3
-7 -5 -2 -5 12 0 14 2 19 5 13 2 -7 2 -19 0 -25z m192 -236 c1 -93 -2 -141 -9
-137 -6 4 -10 76 -9 188 1 125 4 168 10 137 4 -25 8 -109 8 -188z m-1212 161
c-3 -10 -5 -4 -5 12 0 17 2 24 5 18 2 -7 2 -21 0 -30z m-433 -98 c-3 -27 -21
-117 -39 -200 -19 -82 -40 -204 -48 -270 l-14 -120 -2 77 c0 48 9 129 25 209
14 72 23 133 21 136 -3 2 -8 -12 -11 -33 -4 -20 -9 -34 -12 -32 -6 6 12 104
44 237 24 102 27 110 34 80 4 -19 5 -56 2 -84z m1337 75 c17 0 10 -451 -11
-695 -11 -126 -24 -257 -30 -290 -5 -33 -10 -94 -10 -135 -1 -41 -7 -104 -14
-140 l-14 -65 4 90 c4 85 11 180 34 490 6 72 13 228 17 348 3 121 10 212 14
205 7 -10 9 -9 9 5 0 9 -4 17 -10 17 -5 0 -9 15 -9 33 l1 32 8 -30 c7 -28 8
-28 9 12 0 23 -3 45 -9 48 -5 3 -9 32 -9 63 1 31 4 47 6 35 2 -13 9 -23 14
-23z m8506 -2 c-3 -7 -5 -2 -5 12 0 14 2 19 5 13 2 -7 2 -19 0 -25z m-10030
-20 c-3 -7 -5 -2 -5 12 0 14 2 19 5 13 2 -7 2 -19 0 -25z m1980 -90 c-2 -24
-4 -7 -4 37 0 44 2 63 4 43 2 -21 2 -57 0 -80z m315 -2 c-8 -16 -11 -7 -10 44
l0 65 10 -44 c6 -29 6 -51 0 -65z m6285 82 c-3 -8 -6 -5 -6 6 -1 11 2 17 5 13
3 -3 4 -12 1 -19z m-8450 -30 c-3 -8 -6 -5 -6 6 -1 11 2 17 5 13 3 -3 4 -12 1
-19z m8763 -63 c1 -22 4 -34 7 -27 6 16 23 6 23 -14 0 -8 9 -34 20 -57 33 -67
108 -372 130 -523 14 -103 20 -212 23 -412 4 -288 -6 -372 -16 -149 -8 162
-30 295 -102 632 -56 257 -88 449 -99 575 -3 43 -2 56 3 40 5 -14 10 -43 11
-65z m1147 48 c-3 -10 -5 -4 -5 12 0 17 2 24 5 18 2 -7 2 -21 0 -30z m-10050
-10 c-3 -10 -5 -4 -5 12 0 17 2 24 5 18 2 -7 2 -21 0 -30z m1490 -15 c-3 -8
-6 -5 -6 6 -1 11 2 17 5 13 3 -3 4 -12 1 -19z m-1494 -53 c5 -28 4 -34 -3 -20
-8 19 -14 73 -6 64 2 -2 6 -22 9 -44z m10064 -22 c-2 -16 -4 -5 -4 22 0 28 2
40 4 28 2 -13 2 -35 0 -50z m-9586 -133 c-21 -148 -42 -407 -41 -505 1 -55 0
-154 -1 -220 l-3 -120 -6 160 c-8 171 2 385 25 580 8 66 18 161 22 210 8 88 8
89 11 30 2 -33 -1 -94 -7 -135z m1168 95 c0 -23 -2 -26 -9 -15 -5 8 -9 33 -9
55 1 35 2 37 9 15 4 -14 8 -38 9 -55z m-1651 -35 l0 -25 -8 25 c-4 14 -8 39
-8 55 l0 30 8 -30 c4 -16 8 -41 8 -55z m1695 -58 c-20 -105 -83 -386 -89 -391
-8 -9 7 142 27 259 41 251 39 243 59 225 16 -15 16 -21 3 -93z m8405 -167 c-1
-22 -6 7 -13 65 -7 58 -13 128 -13 155 1 29 6 1 13 -65 7 -63 13 -133 13 -155z
m-10110 160 c0 -16 -2 -15 -8 5 -4 14 -8 36 -8 50 0 22 1 22 8 -5 4 -16 8 -39
8 -50z m1649 23 c-3 -8 -6 -5 -6 6 -1 11 2 17 5 13 3 -3 4 -12 1 -19z m-1659
-88 c0 -22 -1 -22 -8 5 -4 17 -8 41 -8 55 0 22 1 22 8 -5 4 -16 8 -41 8 -55z
m1812 -3 c0 -63 -4 -110 -25 -267 -5 -37 -14 -87 -71 -400 -41 -223 -62 -372
-70 -480 -2 -41 -9 -95 -14 -120 -5 -25 -12 -66 -16 -91 -8 -63 -121 -288
-156 -313 -15 -11 -30 -18 -32 -15 -6 6 19 80 40 120 8 16 12 29 9 29 -4 0 1
7 10 17 10 9 15 26 12 39 -2 13 0 21 4 18 8 -4 14 35 10 59 -1 5 3 6 8 3 16
-10 25 53 25 174 0 63 2 102 5 85 10 -48 22 -13 28 78 3 45 13 125 23 177 10
52 28 156 40 230 31 195 66 366 107 520 20 74 38 154 40 177 8 67 23 39 23
-40z m36 -90 c-8 -29 -12 -66 -9 -82 2 -17 -3 -67 -12 -110 -9 -44 -19 -100
-22 -125 -2 -25 -13 -88 -24 -140 -47 -228 -58 -297 -89 -560 -11 -96 -30
-209 -42 -250 -23 -82 -105 -267 -114 -258 -3 3 8 32 24 64 65 129 82 198 108
424 23 203 56 417 104 665 12 61 25 139 31 175 5 36 12 72 15 80 3 8 7 60 10
115 2 55 10 115 17 134 l12 34 3 -57 c2 -32 -4 -81 -12 -109z m121 141 c-3 -8
-6 -5 -6 6 -1 11 2 17 5 13 3 -3 4 -12 1 -19z m7120 -20 c-3 -8 -6 -5 -6 6 -1
11 2 17 5 13 3 -3 4 -12 1 -19z m-7162 -70 c-4 -40 -11 -82 -16 -93 -8 -19 -7
12 7 123 9 72 16 46 9 -30z m-1937 -18 c0 -22 -1 -22 -8 5 -4 17 -8 41 -8 55
0 22 1 22 8 -5 4 -16 8 -41 8 -55z m1439 -27 c-2 -16 -4 -3 -4 27 0 30 2 43 4
28 2 -16 2 -40 0 -55z m7670 45 c-3 -7 -5 -2 -5 12 0 14 2 19 5 13 2 -7 2 -19
0 -25z m-1240 -20 c-3 -7 -5 -2 -5 12 0 14 2 19 5 13 2 -7 2 -19 0 -25z
m-7879 -58 c0 -22 -1 -22 -8 5 -4 17 -8 41 -8 55 0 22 1 22 8 -5 4 -16 8 -41
8 -55z m599 -162 c-1 -40 -3 -10 -3 67 0 77 1 110 3 73 2 -37 2 -100 0 -140z
m570 140 c-2 -13 -4 -3 -4 22 0 25 2 35 4 23 2 -13 2 -33 0 -45z m6794 -125
c32 -109 39 -148 32 -169 -8 -24 -12 -15 -42 82 -18 60 -37 119 -42 132 -5 13
-9 49 -8 80 1 71 5 62 60 -125z m-7978 52 c-6 -46 -7 -48 -14 -20 -3 17 -7 41
-7 55 0 23 1 22 9 -5 6 -22 7 -14 4 30 -3 51 -3 55 5 25 6 -19 7 -57 3 -85z
m2624 83 c-3 -7 -5 -2 -5 12 0 14 2 19 5 13 2 -7 2 -19 0 -25z m6173 -97 c11
-46 19 -86 16 -89 -4 -3 -6 -1 -6 4 0 5 -11 49 -24 98 -14 49 -21 85 -16 80 5
-5 18 -47 30 -93z m-1000 -3 c0 -32 -3 -39 -10 -28 -13 20 -13 70 0 70 6 0 10
-19 10 -42z m2387 -35 c-2 -16 -4 -3 -4 27 0 30 2 43 4 28 2 -16 2 -40 0 -55z
m-2162 -19 c4 -25 3 -24 -8 6 -8 19 -17 46 -20 60 -5 19 -3 17 8 -6 7 -17 16
-44 20 -60z m-8037 -14 l0 -25 -8 25 c-4 14 -8 39 -8 55 l0 30 8 -30 c4 -16 8
-41 8 -55z m8869 58 c-3 -8 -6 -5 -6 6 -1 11 2 17 5 13 3 -3 4 -12 1 -19z
m-8712 -155 c-8 -185 -17 -230 -26 -123 -3 48 -1 95 8 130 7 30 13 76 13 102
0 26 3 48 6 48 3 0 3 -71 -1 -157z m7814 9 c53 -139 57 -152 43 -152 -14 0
-102 226 -102 261 0 18 2 30 4 28 2 -2 27 -64 55 -137z m908 106 c-3 -8 -6 -5
-6 6 -1 11 2 17 5 13 3 -3 4 -12 1 -19z m-8897 -133 c-6 -38 -12 -86 -14 -105
-2 -19 -3 6 -3 57 1 50 5 89 10 86 5 -3 6 17 3 43 -5 42 -4 44 4 19 7 -20 7
-53 0 -100z m7837 78 c-3 -10 -5 -2 -5 17 0 19 2 27 5 18 2 -10 2 -26 0 -35z
m-5787 -14 c-18 -42 -25 -28 -9 16 8 20 15 31 17 25 2 -6 -2 -24 -8 -41z m51
24 c-12 -20 -14 -14 -5 12 4 9 9 14 11 11 3 -2 0 -13 -6 -23z m594 -125 c-31
-73 -65 -149 -76 -168 l-18 -35 -1 57 c0 46 7 71 36 130 43 85 106 176 112
160 2 -7 -22 -71 -53 -144z m6212 130 c-3 -8 -6 -5 -6 6 -1 11 2 17 5 13 3 -3
4 -12 1 -19z m1090 0 c-3 -8 -6 -5 -6 6 -1 11 2 17 5 13 3 -3 4 -12 1 -19z
m230 -85 c-2 -21 -4 -4 -4 37 0 41 2 58 4 38 2 -21 2 -55 0 -75z m-1749 32 c0
-29 0 -29 -8 -5 -4 14 -8 36 -8 50 -1 23 0 23 8 5 5 -11 8 -33 8 -50z m-6931
-37 c-2 -18 -4 -4 -4 32 0 36 2 50 4 33 2 -18 2 -48 0 -65z m7552 -53 c12 -61
21 -120 21 -132 0 -13 4 -23 10 -23 5 0 7 -23 5 -52 -3 -38 -2 -46 4 -28 6 17
8 -5 6 -65 -2 -63 -1 -75 4 -40 5 38 9 10 16 -120 5 -93 9 -195 8 -226 0 -67
-33 -205 -45 -186 -4 6 -7 89 -7 182 1 108 4 157 10 135 9 -43 1 174 -12 320
-8 92 -40 298 -55 355 -4 16 -3 17 5 5 5 -8 19 -65 30 -125z m976 -254 c9 -61
11 -99 5 -110 -7 -12 -9 -8 -10 17 0 18 -16 125 -35 238 -19 112 -35 212 -34
222 1 22 55 -243 74 -367z m-232 294 c3 -37 2 -51 -3 -35 -8 25 -13 107 -6 99
2 -2 6 -31 9 -64z m-9223 -122 c-7 -92 -15 -170 -18 -173 -4 -5 0 71 15 268 3
45 8 80 10 78 3 -3 -1 -80 -7 -173z m8318 112 c0 -16 -2 -15 -8 5 -4 14 -8 34
-8 45 0 16 2 15 8 -5 4 -14 8 -34 8 -45z m-7231 33 c-3 -8 -6 -5 -6 6 -1 11 2
17 5 13 3 -3 4 -12 1 -19z m418 -35 c-17 -118 -92 -420 -102 -410 -2 3 10 56
26 118 16 63 40 165 52 227 22 114 36 151 24 65z m-430 -23 c-9 -41 -17 -33
-9 9 4 17 9 30 11 27 3 -2 2 -19 -2 -36z m6328 -200 c1 -14 0 -72 -2 -130 l-2
-105 -41 85 c-23 47 -47 97 -54 112 -15 27 -20 221 -8 253 8 21 105 -176 107
-215z m522 80 l5 -35 -21 43 c-11 23 -22 66 -24 95 l-5 52 20 -60 c11 -33 22
-76 25 -95z m-6625 93 c-11 -17 -11 -17 -6 0 3 10 7 26 7 35 1 15 2 15 6 0 2
-10 -1 -25 -7 -35z m67 1 c-6 -20 -13 -32 -14 -27 -4 11 14 63 21 63 2 0 -1
-16 -7 -36z m180 14 c-3 -8 -6 -5 -6 6 -1 11 2 17 5 13 3 -3 4 -12 1 -19z
m352 -6 c0 -9 -15 -48 -34 -87 -29 -62 -33 -66 -34 -39 -1 32 25 120 42 141
12 16 27 7 26 -15z m271 -37 c-10 -33 -19 -53 -19 -44 -1 18 30 112 35 107 2
-2 -5 -31 -16 -63z m-1253 -37 c-2 -18 -4 -4 -4 32 0 36 2 50 4 33 2 -18 2
-48 0 -65z m484 38 c-14 -36 -22 -33 -9 5 6 16 12 28 14 26 3 -2 0 -16 -5 -31z
m780 -78 c-11 -52 -23 -131 -27 -176 -4 -46 -11 -85 -15 -88 -13 -7 -11 26 6
141 17 117 47 245 52 228 3 -7 -5 -54 -16 -105z m-726 60 c-18 -111 -174 -713
-182 -704 -2 2 12 66 31 142 19 77 53 220 75 319 43 192 69 285 77 285 3 0 3
-19 -1 -42z m6053 11 c-3 -8 -7 -3 -11 10 -4 17 -3 21 5 13 5 -5 8 -16 6 -23z
m-8149 -93 c2 -73 -6 -52 -12 34 -3 46 -2 63 3 45 4 -16 8 -52 9 -79z m1228
42 c-2 -13 -4 -3 -4 22 0 25 2 35 4 23 2 -13 2 -33 0 -45z m1042 -7 c-7 -23
-14 -39 -16 -37 -3 2 1 23 8 45 7 23 14 39 16 37 3 -2 -1 -23 -8 -45z m-240
-18 c-6 -16 -11 -43 -10 -62 1 -50 -130 -626 -146 -641 -3 -3 -3 8 1 24 16 67
128 604 132 635 5 33 20 71 29 71 3 0 0 -12 -6 -27z m705 -69 c-13 -53 -29
-133 -35 -178 -8 -55 -19 -88 -32 -104 -30 -33 -40 -14 -35 70 4 64 12 88 62
191 32 64 59 117 61 117 1 0 -8 -43 -21 -96z m5643 74 c-3 -8 -6 -5 -6 6 -1
11 2 17 5 13 3 -3 4 -12 1 -19z m-6830 -75 c-2 -16 -4 -3 -4 27 0 30 2 43 4
28 2 -16 2 -40 0 -55z m429 16 c-8 -19 -15 -29 -15 -22 -1 18 19 67 25 61 3
-3 -2 -21 -10 -39z m184 -57 c-12 -74 -61 -255 -67 -249 -2 2 13 69 32 149 19
81 36 159 36 175 1 18 3 22 6 10 3 -10 0 -49 -7 -85z m5443 -41 c4 -36 3 -41
-8 -30 -7 8 -15 49 -18 94 l-6 80 13 -50 c7 -27 15 -70 19 -94z m-5339 55
c-14 -37 -28 -65 -30 -63 -2 2 8 34 22 71 15 37 28 65 31 63 2 -3 -8 -35 -23
-71z m72 37 c-8 -15 -15 -25 -16 -21 0 12 23 58 27 54 3 -2 -2 -17 -11 -33z
m6171 5 c-3 -8 -6 -5 -6 6 -1 11 2 17 5 13 3 -3 4 -12 1 -19z m83 -22 c0 -6
-7 -2 -15 8 -8 11 -15 25 -15 30 0 6 7 2 15 -8 8 -11 15 -25 15 -30z m-5723
-38 c-2 -13 -4 -3 -4 22 0 25 2 35 4 23 2 -13 2 -33 0 -45z m64 -1 c-13 -13
-15 11 -4 40 7 16 8 15 11 -6 2 -13 -1 -28 -7 -34z m4710 16 c17 -44 59 -197
54 -201 -7 -7 -22 33 -44 117 -13 46 -25 90 -28 98 -3 7 -2 13 1 13 4 0 11
-12 17 -27z m489 -3 c0 -11 -2 -20 -4 -20 -2 0 -6 9 -9 20 -3 11 -1 20 4 20 5
0 9 -9 9 -20z m-6593 -22 c-3 -8 -6 -5 -6 6 -1 11 2 17 5 13 3 -3 4 -12 1 -19z
m424 -35 c-6 -26 -31 -156 -56 -288 -26 -132 -49 -251 -51 -265 -5 -20 -3 -22
6 -10 16 21 4 -22 -21 -75 -11 -22 -16 -31 -13 -20 4 11 8 36 9 55 3 29 40
230 96 520 17 87 31 141 36 136 3 -3 0 -26 -6 -53z m520 26 c-9 -22 -10 -22
-10 -3 -1 11 2 24 6 27 12 12 14 0 4 -24z m6114 0 c9 -17 14 -33 11 -36 -4 -4
-36 49 -36 62 0 13 11 2 25 -26z m-6698 -1 c-3 -8 -6 -5 -6 6 -1 11 2 17 5 13
3 -3 4 -12 1 -19z m40 0 c-3 -8 -6 -5 -6 6 -1 11 2 17 5 13 3 -3 4 -12 1 -19z
m403 -55 c-14 -87 -112 -301 -194 -423 -35 -53 -108 -141 -112 -137 -2 2 6 34
17 71 14 46 42 99 85 162 36 51 89 140 119 197 30 58 57 102 61 98 4 -3 4 -1
0 6 -5 10 23 88 30 80 1 -1 -2 -26 -6 -54z m51 14 c-13 -13 -15 1 -4 30 7 17
8 17 11 -1 2 -10 -1 -23 -7 -29z m144 -74 c-9 -23 -20 -45 -24 -48 -10 -6 4
86 21 132 l13 37 3 -39 c2 -21 -4 -58 -13 -82z m335 82 c0 -8 -4 -17 -10 -20
-6 -4 -10 5 -10 20 0 15 4 24 10 20 6 -3 10 -12 10 -20z m5414 -86 c20 -60 36
-115 34 -121 -2 -6 -21 38 -43 98 -21 60 -40 115 -43 122 -2 6 0 12 5 12 5 0
26 -50 47 -111z m505 26 c28 -92 21 -112 -7 -23 -26 81 -32 109 -23 103 4 -2
18 -38 30 -80z m-7582 -62 c-2 -27 -3 -5 -3 47 0 52 1 74 3 48 2 -27 2 -69 0
-95z m8852 -181 c-50 -249 -208 -735 -258 -796 -10 -12 -11 -22 -4 -39 8 -17
7 -30 -4 -52 -9 -16 -17 -40 -18 -54 -1 -15 -8 -37 -15 -51 -7 -13 -14 -31
-15 -40 -7 -48 -21 -65 -47 -61 -11 1 -10 -7 2 -29 5 -10 7 -26 4 -34 -21 -55
-32 87 -11 147 8 23 20 67 27 97 7 30 30 107 52 170 21 63 55 169 74 235 39
131 57 172 49 115 -3 -24 1 -17 15 25 50 147 90 298 85 323 -4 19 -3 22 3 9
15 -35 42 118 43 243 l1 115 19 -110 c19 -109 19 -111 -2 -213z m-9052 271
c-3 -10 -5 -4 -5 12 0 17 2 24 5 18 2 -7 2 -21 0 -30z m1496 -30 c-9 -36 -21
-80 -29 -97 l-13 -31 -1 52 c0 50 33 143 51 143 4 0 0 -30 -8 -67z m-1471 -81
c-6 -167 9 -565 19 -482 7 66 11 56 9 -21 -1 -32 3 -60 9 -64 23 -14 2 -230
-28 -283 -7 -13 -9 -13 -14 4 -3 10 -11 91 -18 179 -7 88 -16 165 -21 171 -9
13 -8 423 2 519 4 37 8 -27 10 -165 3 -208 4 -216 10 -110 4 63 8 167 9 230 1
100 7 160 16 160 1 0 0 -62 -3 -138z m1910 116 c-7 -7 -12 -8 -12 -2 0 6 3 14
7 17 3 4 9 5 12 2 2 -3 -1 -11 -7 -17z m5663 -7 c8 -17 17 -45 20 -63 9 -63
24 -111 38 -125 13 -13 14 -10 10 24 -5 47 15 33 27 -19 l8 -33 2 30 c2 45 74
-212 105 -373 44 -232 55 -285 62 -291 3 -3 3 6 -1 22 -3 15 -8 48 -11 75 -4
41 -3 39 10 -18 8 -36 20 -89 26 -118 17 -86 19 -55 3 53 -8 55 -13 106 -11
115 1 8 11 -40 21 -108 10 -68 21 -121 23 -118 3 3 -2 69 -12 146 -10 77 -15
143 -13 146 3 2 15 -71 27 -163 12 -93 25 -175 28 -183 3 -8 7 -22 9 -32 5
-25 45 -128 49 -128 3 0 2 13 -1 29 -4 16 -1 32 5 35 6 4 11 2 11 -4 0 -6 5
-8 12 -4 8 5 9 2 5 -9 -3 -10 -2 -17 4 -17 5 0 9 -6 8 -12 -4 -22 13 -68 22
-62 29 17 -15 -135 -53 -187 l-22 -29 -38 42 c-38 43 -48 65 -25 52 7 -4 9 -3
4 2 -5 5 -12 9 -16 9 -27 0 -274 355 -306 440 -14 36 -23 65 -22 65 2 0 18
-20 37 -45 18 -24 37 -42 42 -39 4 3 8 -2 8 -10 0 -8 5 -18 10 -21 16 -10 8
31 -20 102 -5 12 -16 89 -25 170 -20 190 -48 349 -86 492 -16 62 -27 116 -24
119 3 3 5 -2 5 -12 0 -9 4 -14 10 -11 5 3 15 -15 21 -40 16 -63 28 -65 17 -2
-5 29 -10 61 -12 72 -2 11 -6 30 -10 43 -10 31 1 27 19 -7z m331 -183 c36 -94
87 -242 112 -327 45 -153 46 -159 47 -301 0 -80 4 -172 9 -205 5 -33 6 -58 4
-55 -3 3 -24 48 -47 100 -33 74 -48 129 -72 260 -26 141 -66 310 -125 525 -15
54 -17 217 -2 191 5 -8 38 -93 74 -188z m-6581 123 c-29 -58 -31 -29 -2 44 11
27 12 28 15 8 2 -12 -4 -35 -13 -52z m5767 -76 c-3 -71 -8 -101 -13 -88 -4 12
-5 70 -2 129 4 65 9 100 14 88 4 -11 5 -69 1 -129z m325 113 c-3 -7 -5 -2 -5
12 0 14 2 19 5 13 2 -7 2 -19 0 -25z m-6392 -171 c-68 -255 -82 -298 -114
-350 -28 -43 -57 -65 -46 -34 3 6 18 57 35 112 42 139 164 470 168 454 1 -8
-18 -90 -43 -182z m-1491 128 c4 -34 3 -43 -3 -30 -9 19 -15 93 -7 84 2 -2 6
-26 10 -54z m7166 -25 c13 -43 15 -59 6 -49 -15 17 -50 137 -35 122 5 -5 19
-38 29 -73z m-7530 42 c0 -15 -2 -15 -10 -2 -13 20 -13 33 0 25 6 -3 10 -14
10 -23z m1717 6 c-3 -8 -6 -5 -6 6 -1 11 2 17 5 13 3 -3 4 -12 1 -19z m8230
-10 c-3 -7 -5 -2 -5 12 0 14 2 19 5 13 2 -7 2 -19 0 -25z m-8620 -45 c-2 -16
-4 -5 -4 22 0 28 2 40 4 28 2 -13 2 -35 0 -50z m350 35 c-3 -8 -6 -5 -6 6 -1
11 2 17 5 13 3 -3 4 -12 1 -19z m5733 -32 c-1 -21 -1 -21 -15 -2 -21 27 -20
53 0 36 8 -7 15 -22 15 -34z m747 -312 c-6 -6 -127 321 -127 341 1 11 30 -61
66 -159 35 -98 63 -180 61 -182z m-6178 297 c-6 -18 -13 -30 -15 -28 -2 2 1
18 7 36 6 18 13 30 15 28 2 -2 -1 -18 -7 -36z m5815 -58 c25 -45 46 -93 45
-105 0 -24 -98 154 -98 181 -1 19 0 18 53 -76z m-7197 25 c-3 -7 -5 -2 -5 12
0 14 2 19 5 13 2 -7 2 -19 0 -25z m1551 -23 c-12 -21 -24 -33 -26 -27 -2 6 7
26 20 46 30 46 35 30 6 -19z m249 -27 c-2 -18 -4 -6 -4 27 0 33 2 48 4 33 2
-15 2 -42 0 -60z m4833 55 c0 -20 -3 -24 -11 -16 -7 7 -9 19 -6 27 10 24 17
19 17 -11z m-4650 7 c0 -5 -5 -10 -11 -10 -5 0 -7 5 -4 10 3 6 8 10 11 10 2 0
4 -4 4 -10z m4914 -65 l16 -40 -35 39 c-19 22 -35 49 -35 60 0 20 0 20 19 1
11 -11 26 -38 35 -60z m1141 23 c8 -28 13 -53 11 -56 -3 -2 -10 15 -16 38 -6
23 -14 48 -17 56 -3 8 -3 14 1 14 3 0 12 -23 21 -52z m-8828 -20 c-2 -13 -4
-3 -4 22 0 25 2 35 4 23 2 -13 2 -33 0 -45z m1507 -105 c-4 -87 -10 -149 -12
-139 -5 25 9 309 15 303 2 -3 1 -76 -3 -164z m383 145 c-3 -8 -6 -5 -6 6 -1
11 2 17 5 13 3 -3 4 -12 1 -19z m5704 0 c11 -21 11 -22 -4 -9 -10 7 -17 17
-17 22 0 15 9 10 21 -13z m-5200 -78 l-8 -75 -2 60 c0 33 2 71 6 85 11 42 13
8 4 -70z m5629 70 c6 -11 8 -20 6 -20 -3 0 -10 9 -16 20 -6 11 -8 20 -6 20 3
0 10 -9 16 -20z m162 -96 c2 -80 1 -98 -9 -88 -9 8 -13 45 -13 110 0 130 18
112 22 -22z m1913 -26 c-44 -221 -151 -560 -229 -728 l-17 -35 7 35 c3 19 31
105 62 190 86 242 109 324 187 659 3 13 8 21 11 18 3 -3 -6 -65 -21 -139z
m-7333 110 c-7 -7 -12 -8 -12 -2 0 6 3 14 7 17 3 4 9 5 12 2 2 -3 -1 -11 -7
-17z m4698 -3 c0 -8 -4 -17 -10 -20 -6 -4 -10 5 -10 20 0 15 4 24 10 20 6 -3
10 -12 10 -20z m-5613 -7 c-3 -8 -6 -5 -6 6 -1 11 2 17 5 13 3 -3 4 -12 1 -19z
m6290 -70 c-2 -18 -4 -4 -4 32 0 36 2 50 4 33 2 -18 2 -48 0 -65z m2100 60
c-3 -8 -6 -5 -6 6 -1 11 2 17 5 13 3 -3 4 -12 1 -19z m-8360 -20 c-3 -7 -5 -2
-5 12 0 14 2 19 5 13 2 -7 2 -19 0 -25z m6071 7 c-3 -3 -9 2 -12 12 -6 14 -5
15 5 6 7 -7 10 -15 7 -18z m-7111 -22 c-3 -10 -5 -4 -5 12 0 17 2 24 5 18 2
-7 2 -21 0 -30z m6640 15 c-3 -8 -6 -5 -6 6 -1 11 2 17 5 13 3 -3 4 -12 1 -19z
m2530 -15 c-3 -10 -5 -4 -5 12 0 17 2 24 5 18 2 -7 2 -21 0 -30z m-7087 23 c0
-3 -4 -8 -10 -11 -5 -3 -10 -1 -10 4 0 6 5 11 10 11 6 0 10 -2 10 -4z m5480
-40 c0 -26 -6 -18 -14 19 -5 22 -4 26 4 15 5 -8 10 -24 10 -34z m-6057 -72
c-12 -92 -19 -117 -55 -181 -22 -40 -46 -80 -54 -88 -8 -7 -19 -26 -24 -41 -6
-15 -12 -25 -15 -23 -2 3 8 44 23 92 15 49 31 85 35 80 5 -4 5 0 2 9 -14 36
68 258 96 258 3 0 -1 -48 -8 -106z m308 82 c-8 -10 -8 -15 -1 -18 7 -2 5 -10
-4 -23 -15 -19 -15 -19 -14 10 2 30 17 60 26 50 3 -2 0 -11 -7 -19z m5075 -89
c43 -56 93 -136 113 -177 30 -65 35 -87 38 -165 3 -59 -1 -109 -11 -145 -19
-71 -13 -77 11 -11 13 37 19 46 24 34 4 -12 9 0 14 32 10 77 16 77 11 0 -3
-55 -2 -63 5 -40 13 39 16 149 6 200 -7 37 -6 39 8 21 20 -26 20 -142 0 -215
-8 -30 -10 -50 -6 -45 16 17 40 110 42 162 3 58 14 68 24 21 6 -28 2 -71 -11
-124 -4 -17 -3 -18 6 -5 9 12 11 9 6 -15 -5 -30 -5 -30 10 4 l16 35 13 -30 c7
-16 28 -74 45 -128 18 -55 34 -106 37 -113 8 -21 -174 47 -256 96 -67 40 -72
45 -66 70 27 112 35 172 30 219 -7 57 -37 152 -58 186 -7 12 -24 39 -36 61
-21 37 -21 38 -2 15 37 -44 101 -183 112 -245 10 -53 8 -115 -6 -195 -3 -14 2
-7 9 15 8 22 15 73 15 113 2 125 -45 231 -175 392 -35 44 -64 83 -64 86 0 14
25 -15 96 -109z m-5196 79 c0 -14 -12 -38 -26 -53 -27 -30 -27 -29 0 35 21 48
26 52 26 18z m4977 -8 c-3 -7 -5 -2 -5 12 0 14 2 19 5 13 2 -7 2 -19 0 -25z
m2197 -100 c-21 -92 -31 -96 -16 -6 25 144 26 146 30 114 2 -17 -4 -65 -14
-108z m-8967 85 c-3 -10 -5 -4 -5 12 0 17 2 24 5 18 2 -7 2 -21 0 -30z m7023
-3 c7 -16 16 -27 21 -25 4 3 20 -14 35 -37 15 -24 49 -77 76 -118 40 -61 43
-68 16 -38 -19 20 -51 66 -72 102 -21 36 -43 64 -49 63 -10 -2 -56 69 -57 86
0 16 18 -3 30 -33z m240 -16 c17 -31 30 -63 28 -72 -4 -20 -57 66 -64 104 -7
36 1 30 36 -32z m380 -219 c52 -73 65 -103 85 -200 l6 -30 -30 35 c-33 39 -41
60 -13 39 9 -8 -22 28 -70 79 -48 50 -101 112 -118 136 -28 41 -30 51 -30 133
l0 88 56 -100 c31 -55 82 -136 114 -180z m-6543 228 c-3 -10 -5 -4 -5 12 0 17
2 24 5 18 2 -7 2 -21 0 -30z m7039 -60 c31 -114 69 -307 88 -455 8 -64 18
-129 20 -145 3 -15 0 -8 -8 17 -7 25 -23 113 -35 195 -12 83 -40 224 -62 314
-41 173 -42 178 -33 169 3 -3 16 -46 30 -95z m1121 65 c-3 -8 -6 -5 -6 6 -1
11 2 17 5 13 3 -3 4 -12 1 -19z m-8813 -220 c-4 -128 -10 -242 -15 -253 -4
-11 -6 32 -3 95 10 265 16 390 21 390 2 0 1 -105 -3 -232z m1568 210 c-7 -7
-12 -8 -12 -2 0 6 3 14 7 17 3 4 9 5 12 2 2 -3 -1 -11 -7 -17z m-165 -50 c-3
-8 -6 -5 -6 6 -1 11 2 17 5 13 3 -3 4 -12 1 -19z m4753 1 c0 -6 -4 -7 -10 -4
-5 3 -10 11 -10 16 0 6 5 7 10 4 6 -3 10 -11 10 -16z m240 -12 c0 -18 -2 -19
-10 -7 -13 20 -13 43 0 35 6 -3 10 -16 10 -28z m1197 1 c-3 -8 -6 -5 -6 6 -1
11 2 17 5 13 3 -3 4 -12 1 -19z m-6272 -28 c-16 -16 -26 -32 -23 -35 3 -3 11
1 18 10 7 8 16 15 21 15 12 0 -1 -27 -36 -79 -32 -48 -48 -36 -22 16 8 15 12
34 10 41 -5 14 34 62 51 62 5 0 -3 -13 -19 -30z m519 -52 c-24 -46 -31 -16 -8
35 16 34 20 38 22 20 2 -12 -5 -37 -14 -55z m116 44 c0 -16 -12 -42 -30 -62
l-29 -35 9 32 c8 29 40 93 47 93 2 0 3 -13 3 -28z m6531 -38 c1 -42 -11 -78
-86 -247 -48 -108 -90 -196 -92 -193 -8 8 66 252 97 319 17 37 40 93 51 123
12 31 23 54 25 52 2 -2 4 -26 5 -54z m-8944 24 c-3 -8 -6 -5 -6 6 -1 11 2 17
5 13 3 -3 4 -12 1 -19z m822 -178 c-9 -92 -38 -207 -46 -183 -2 7 0 21 6 31
13 25 30 173 32 277 l1 80 9 -55 c4 -31 4 -97 -2 -150z m6561 174 c0 -8 -4
-12 -10 -9 -5 3 -10 13 -10 21 0 8 5 12 10 9 6 -3 10 -13 10 -21z m-5873 -6
c-3 -8 -6 -5 -6 6 -1 11 2 17 5 13 3 -3 4 -12 1 -19z m944 -1 c-10 -9 -11 -8
-5 6 3 10 9 15 12 12 3 -3 0 -11 -7 -18z m5256 1 c-3 -8 -6 -5 -6 6 -1 11 2
17 5 13 3 -3 4 -12 1 -19z m-8250 -25 c-3 -10 -5 -4 -5 12 0 17 2 24 5 18 2
-7 2 -21 0 -30z m1100 -226 c-1 -45 -3 -5 -3 88 0 94 2 130 3 82 2 -48 2 -125
0 -170z m6401 47 c2 -47 0 -84 -5 -87 -6 -4 -11 23 -11 69 -1 54 -9 93 -27
138 -35 87 -30 105 7 26 24 -51 32 -83 36 -146z m1837 142 c-17 -58 -30 -77
-19 -28 11 50 26 93 31 89 2 -3 -3 -30 -12 -61z m86 37 c-12 -20 -14 -14 -5
12 4 9 9 14 11 11 3 -2 0 -13 -6 -23z m-1214 -5 c-3 -8 -6 -5 -6 6 -1 11 2 17
5 13 3 -3 4 -12 1 -19z m200 -15 c-3 -10 -5 -4 -5 12 0 17 2 24 5 18 2 -7 2
-21 0 -30z m-8322 -125 c16 -156 17 -184 11 -177 -5 5 -36 274 -36 310 0 12 3
20 6 17 3 -4 12 -71 19 -150z m1930 125 l-5 -28 14 30 c25 50 18 20 -19 -88
-49 -139 -123 -313 -140 -327 -8 -7 5 30 29 81 53 113 118 287 114 301 -2 5
-14 -20 -27 -56 -13 -37 -25 -65 -28 -63 -4 5 57 177 63 177 2 0 2 -12 -1 -27z
m236 0 c-12 -20 -14 -14 -5 12 4 9 9 14 11 11 3 -2 0 -13 -6 -23z m5929 -8 c0
-5 -5 -3 -10 5 -5 8 -10 20 -10 25 0 6 5 3 10 -5 5 -8 10 -19 10 -25z m77 13
c-3 -8 -6 -5 -6 6 -1 11 2 17 5 13 3 -3 4 -12 1 -19z m420 0 c-3 -8 -6 -5 -6
6 -1 11 2 17 5 13 3 -3 4 -12 1 -19z m593 -34 c-7 -19 -14 -33 -16 -31 -3 3 1
23 8 46 7 23 14 37 16 31 2 -5 -2 -26 -8 -46z m395 34 c-3 -13 -7 -45 -9 -73
-2 -27 -11 -66 -20 -85 -16 -34 -16 -34 -10 -5 3 17 10 57 15 90 11 67 18 95
25 95 2 0 2 -10 -1 -22z m-6681 -56 c-15 -26 -44 -79 -65 -118 -21 -38 -48
-79 -60 -90 -25 -21 -19 -7 16 41 12 17 46 77 75 134 30 58 56 99 58 93 2 -7
-9 -33 -24 -60z m6025 -33 c-42 -126 -49 -143 -54 -137 -3 3 11 52 30 109 20
57 38 110 41 118 2 8 7 12 10 9 2 -3 -10 -47 -27 -99z m-1619 51 c0 -13 -1
-13 -10 0 -5 8 -10 22 -10 30 0 13 1 13 10 0 5 -8 10 -22 10 -30z m983 -20 c4
-36 3 -48 -3 -35 -8 19 -14 103 -6 94 2 -2 6 -29 9 -59z m-8366 -12 c-2 -13
-4 -3 -4 22 0 25 2 35 4 23 2 -13 2 -33 0 -45z m1697 28 c-3 -15 -8 -25 -11
-23 -2 3 -1 17 3 31 3 15 8 25 11 23 2 -3 1 -17 -3 -31z m871 -7 c-9 -17 -19
-28 -22 -25 -6 6 23 56 32 56 3 0 -2 -14 -10 -31z m5415 5 c0 -8 -4 -14 -10
-14 -5 0 -10 9 -10 21 0 11 5 17 10 14 6 -3 10 -13 10 -21z m115 -60 c22 -27
72 -86 112 -131 68 -78 76 -92 96 -181 6 -23 5 -23 -15 -5 -11 10 -22 16 -25
14 -6 -4 -243 230 -243 240 0 4 46 -39 102 -97 55 -57 103 -102 106 -99 3 2
-24 35 -59 73 -135 143 -162 179 -154 209 3 15 10 23 13 17 4 -5 27 -27 52
-49 l44 -40 -52 59 c-29 33 -52 65 -52 70 0 6 8 1 18 -10 9 -12 35 -44 57 -70z
m-5803 4 c-16 -29 -32 -73 -35 -98 l-5 -45 28 60 c35 74 36 66 9 -55 -16 -69
-29 -103 -48 -123 -26 -28 -139 -92 -147 -84 -7 7 127 273 176 351 50 79 66
75 22 -6z m6138 -85 c11 -73 22 -145 26 -160 5 -21 4 -25 -5 -17 -15 14 -37
142 -45 254 -6 106 -2 90 24 -77z m247 135 c-3 -8 -6 -5 -6 6 -1 11 2 17 5 13
3 -3 4 -12 1 -19z m-6461 -63 c-12 -34 -15 -36 -15 -14 -1 36 23 101 27 74 1
-11 -4 -38 -12 -60z m529 29 c-23 -36 -30 -23 -9 18 10 18 19 27 22 20 2 -7
-4 -24 -13 -38z m142 -21 c-19 -32 -49 -87 -68 -122 -18 -35 -35 -58 -37 -52
-6 18 126 247 136 236 2 -2 -11 -30 -31 -62z m5730 25 c-3 -7 -5 -2 -5 12 0
14 2 19 5 13 2 -7 2 -19 0 -25z m-350 -10 c-3 -7 -5 -2 -5 12 0 14 2 19 5 13
2 -7 2 -19 0 -25z m-5787 2 c-6 -11 -13 -20 -16 -20 -2 0 0 9 6 20 6 11 13 20
16 20 2 0 0 -9 -6 -20z m334 -7 c-30 -122 -151 -279 -269 -348 l-30 -17 30 26
c119 107 162 162 205 266 20 47 55 100 67 100 2 0 0 -12 -3 -27z m4564 -33 l0
-25 -8 25 c-4 14 -8 34 -8 45 l-1 20 9 -20 c5 -11 8 -31 8 -45z m-6191 -17
c-2 -16 -4 -5 -4 22 0 28 2 40 4 28 2 -13 2 -35 0 -50z m7500 35 c-3 -8 -6 -5
-6 6 -1 11 2 17 5 13 3 -3 4 -12 1 -19z m579 -88 c-20 -56 -36 -105 -36 -109
0 -3 -4 0 -9 8 -7 10 -9 8 -9 -10 -1 -55 -41 -247 -53 -255 -5 -3 -15 11 -23
31 -15 35 -14 41 24 151 22 63 44 123 49 132 9 15 10 15 11 -3 1 -14 3 -16 7
-5 37 103 66 170 70 166 3 -2 -11 -50 -31 -106z m-8369 3 c-2 -21 -4 -6 -4 32
0 39 2 55 4 38 2 -18 2 -50 0 -70z m942 67 c-13 -16 -25 -28 -27 -25 -5 5 37
55 45 55 2 0 -6 -13 -18 -30z m-1832 -27 c-3 -10 -5 -2 -5 17 0 19 2 27 5 18
2 -10 2 -26 0 -35z m7581 -136 c-2 -54 -1 -90 3 -80 7 16 8 15 8 -4 1 -12 -2
-29 -5 -38 -6 -15 -8 -15 -24 0 -15 14 -16 22 -8 53 6 20 8 85 6 146 -3 104
-3 107 10 65 8 -28 12 -79 10 -142z m322 155 c0 -15 -2 -15 -10 -2 -13 20 -13
33 0 25 6 -3 10 -14 10 -23z m717 6 c-3 -8 -6 -5 -6 6 -1 11 2 17 5 13 3 -3 4
-12 1 -19z m378 -39 c-23 -88 -41 -134 -47 -118 -5 13 51 183 58 176 2 -2 -3
-28 -11 -58z m-6514 8 c-12 -19 -29 -41 -38 -48 -15 -12 -15 -10 1 16 30 47
51 73 55 70 2 -2 -6 -19 -18 -38z m199 23 c-6 -11 -13 -20 -16 -20 -2 0 0 9 6
20 6 11 13 20 16 20 2 0 0 -9 -6 -20z m5678 -75 c0 -34 -1 -36 -8 -15 -4 14
-8 45 -8 70 0 40 1 42 8 15 4 -16 8 -48 8 -70z m849 73 c-3 -8 -6 -5 -6 6 -1
11 2 17 5 13 3 -3 4 -12 1 -19z m224 -15 c-12 -20 -14 -14 -5 12 4 9 9 14 11
11 3 -2 0 -13 -6 -23z m-8937 -168 c17 -180 19 -211 11 -203 -4 4 -45 350 -45
381 0 7 3 7 9 2 4 -6 16 -86 25 -180z m8193 143 c-3 -7 -5 -2 -5 12 0 14 2 19
5 13 2 -7 2 -19 0 -25z m-5979 -5 c-34 -80 -116 -187 -172 -225 l-31 -22 22
25 c12 13 22 27 22 32 1 4 3 6 5 5 2 -2 13 6 25 16 24 22 29 45 5 26 -8 -8 1
14 22 48 42 72 58 84 20 15 -15 -25 -25 -48 -23 -50 6 -6 23 18 53 77 15 30
32 61 37 68 17 22 27 12 15 -15z m5472 2 c13 -14 21 -25 18 -25 -2 0 -15 11
-28 25 -13 14 -21 25 -18 25 2 0 15 -11 28 -25z m447 -7 c-3 -7 -5 -2 -5 12 0
14 2 19 5 13 2 -7 2 -19 0 -25z m558 -40 c-41 -130 -75 -222 -85 -232 -6 -6
-10 -20 -10 -32 0 -13 -4 -26 -10 -29 -13 -8 -13 30 0 53 5 9 27 70 49 135 38
109 66 177 75 177 2 0 -7 -33 -19 -72z m-9178 -5 c-3 -10 -5 -2 -5 17 0 19 2
27 5 18 2 -10 2 -26 0 -35z m1534 24 c-10 -9 -11 -8 -5 6 3 10 9 15 12 12 3
-3 0 -11 -7 -18z m130 -10 l-24 -22 19 27 c10 14 21 24 23 22 3 -3 -6 -15 -18
-27z m-1098 -37 c4 -36 3 -46 -3 -30 -8 25 -13 97 -6 89 2 -2 6 -29 9 -59z
m174 13 c-3 -10 -5 -2 -5 17 0 19 2 27 5 18 2 -10 2 -26 0 -35z m420 10 c-3
-10 -5 -4 -5 12 0 17 2 24 5 18 2 -7 2 -21 0 -30z m424 10 c-12 -20 -14 -14
-5 12 4 9 9 14 11 11 3 -2 0 -13 -6 -23z m6379 7 c0 -11 -4 -20 -10 -20 -5 0
-10 9 -10 20 0 11 5 20 10 20 6 0 10 -9 10 -20z m1044 -16 c-10 -54 -40 -128
-47 -117 -6 10 41 153 50 153 2 0 1 -16 -3 -36z m-9137 -6 c-3 -7 -5 -2 -5 12
0 14 2 19 5 13 2 -7 2 -19 0 -25z m8760 -10 c-3 -7 -5 -2 -5 12 0 14 2 19 5
13 2 -7 2 -19 0 -25z m714 -89 c-78 -180 -100 -229 -106 -229 -4 0 -4 3 -2 8
2 4 37 82 77 174 41 92 75 166 77 164 2 -2 -19 -54 -46 -117z m-8834 64 c-3
-10 -5 -2 -5 17 0 19 2 27 5 18 2 -10 2 -26 0 -35z m7470 15 c-3 -7 -5 -2 -5
12 0 14 2 19 5 13 2 -7 2 -19 0 -25z m310 0 c-3 -7 -5 -2 -5 12 0 14 2 19 5
13 2 -7 2 -19 0 -25z m-7400 -15 c-3 -10 -5 -4 -5 12 0 17 2 24 5 18 2 -7 2
-21 0 -30z m2020 -20 c-10 -32 -21 -83 -24 -113 -4 -40 -11 -60 -27 -72 -27
-22 -35 -22 -31 0 32 155 38 175 67 208 16 19 31 34 32 34 2 0 -6 -26 -17 -57z
m4592 35 c-1 -13 -4 -34 -8 -48 -6 -21 -8 -22 -14 -7 -8 21 2 77 14 77 5 0 9
-10 8 -22z m889 -33 c0 -16 -2 -15 -8 5 -11 34 -11 60 0 35 5 -11 8 -29 8 -40z
m-7261 8 c-3 -10 -5 -4 -5 12 0 17 2 24 5 18 2 -7 2 -21 0 -30z m7078 -143
c89 -72 132 -119 134 -143 1 -4 -25 10 -56 31 -68 45 -92 59 -78 45 6 -6 44
-33 85 -61 71 -47 80 -58 179 -210 58 -89 109 -158 114 -155 6 3 7 1 3 -6 -4
-6 1 -23 12 -39 34 -50 206 -392 199 -398 -7 -7 -107 116 -107 131 0 8 -6 20
-14 28 -8 7 -34 54 -59 104 -59 117 -161 252 -358 476 -88 100 -163 189 -167
197 -3 8 -25 37 -49 64 -34 38 -43 56 -43 84 l0 36 53 -51 c28 -28 97 -87 152
-133z m-6707 145 c-6 -14 -13 -23 -15 -21 -5 5 15 46 22 46 3 0 -1 -11 -7 -25z
m-1491 -22 c-3 -10 -5 -4 -5 12 0 17 2 24 5 18 2 -7 2 -21 0 -30z m740 0 c-3
-10 -5 -4 -5 12 0 17 2 24 5 18 2 -7 2 -21 0 -30z m513 0 c-11 -17 -11 -17 -6
0 3 10 6 24 7 30 0 9 2 9 5 0 3 -7 0 -20 -6 -30z m1165 17 c-10 -11 -22 -20
-28 -20 -5 0 1 9 14 20 31 25 37 25 14 0z m138 5 c-3 -9 -8 -14 -10 -11 -3 3
-2 9 2 15 9 16 15 13 8 -4z m-2686 -17 c-3 -8 -6 -5 -6 6 -1 11 2 17 5 13 3
-3 4 -12 1 -19z m2246 7 c-3 -9 -8 -14 -10 -11 -3 3 -2 9 2 15 9 16 15 13 8
-4z m878 -48 c-2 -40 -15 -67 -26 -55 -3 3 0 28 7 56 13 60 23 60 19 -1z
m-2862 -217 c23 -141 41 -260 41 -265 0 -6 4 -4 9 4 13 21 25 -23 12 -47 -6
-11 -8 -36 -4 -56 5 -33 7 -35 20 -19 13 16 14 14 7 -17 -4 -19 -8 -54 -8 -77
-1 -26 -8 -48 -17 -55 -9 -7 -19 -21 -22 -30 -9 -26 2 -22 13 5 8 20 9 21 10
2 1 -18 2 -17 11 4 17 44 20 14 9 -89 -7 -55 -10 -103 -8 -106 3 -2 10 44 17
103 6 60 18 128 26 153 9 25 15 71 15 103 0 40 3 56 11 51 6 -3 9 -22 7 -43
-3 -21 0 -40 7 -46 7 -5 26 -71 43 -145 42 -183 47 -210 33 -210 -6 0 -11 -5
-11 -11 0 -6 7 -8 15 -5 20 7 31 -20 16 -38 -11 -13 -5 -73 6 -62 7 7 33 -20
33 -33 0 -6 -4 -11 -8 -11 -7 0 -27 -56 -40 -110 -3 -13 -2 -13 8 0 9 12 10
10 6 -12 -5 -22 -3 -25 14 -21 19 5 20 2 14 -38 -4 -24 -13 -48 -20 -54 -15
-13 -23 -93 -9 -99 5 -2 -8 -6 -30 -10 -22 -4 -57 -11 -78 -15 -42 -10 -43
-10 -52 44 -4 22 -10 44 -13 50 -3 5 -7 25 -7 45 -3 64 -16 184 -31 275 -32
192 -34 228 -18 353 9 70 11 173 3 160 -10 -16 -19 40 -22 128 -1 40 -5 70 -9
67 -7 -4 -10 16 -13 103 -1 16 -5 36 -9 42 -4 7 -5 26 -1 42 4 18 2 30 -3 30
-6 0 -10 15 -9 33 0 17 -3 68 -8 112 -14 146 3 73 44 -185z m1867 186 c-20
-37 -39 -66 -42 -66 -3 0 12 31 33 69 21 38 39 68 41 66 3 -2 -12 -33 -32 -69z
m5881 52 c-3 -8 -6 -5 -6 6 -1 11 2 17 5 13 3 -3 4 -12 1 -19z m477 -63 l6
-40 -20 24 c-13 15 -20 37 -20 65 1 40 1 40 14 16 7 -14 16 -43 20 -65z
m-7487 43 c-3 -7 -5 -2 -5 12 0 14 2 19 5 13 2 -7 2 -19 0 -25z m1843 21 c0
-24 -135 -132 -210 -168 l-25 -12 21 18 c12 10 51 39 87 66 36 26 76 60 89 77
24 31 38 37 38 19z m4867 -21 c-3 -7 -5 -2 -5 12 0 14 2 19 5 13 2 -7 2 -19 0
-25z m-5514 -53 c-21 -38 -44 -70 -51 -73 -6 -2 9 30 35 71 27 41 49 74 51 73
1 -2 -15 -34 -35 -71z m4937 54 c0 -6 -4 -7 -10 -4 -5 3 -10 11 -10 16 0 6 5
7 10 4 6 -3 10 -11 10 -16z m510 -5 c0 -14 -4 -23 -9 -20 -5 3 -7 15 -4 26 7
28 13 25 13 -6z m1804 -115 c-31 -74 -61 -138 -67 -144 -13 -13 -13 -13 57
148 32 76 61 136 63 133 2 -2 -22 -64 -53 -137z m-8094 72 c-7 -28 -17 -54
-22 -57 -6 -4 -8 1 -5 12 3 11 11 38 18 62 17 58 24 45 9 -17z m747 42 c-18
-35 -111 -183 -114 -183 -2 0 -2 10 2 23 4 17 2 16 -10 -6 -9 -16 -19 -27 -22
-24 -7 8 28 57 38 52 4 -3 13 5 20 17 18 35 80 128 86 128 2 0 2 -3 0 -7z
m433 3 c0 -2 -7 -7 -16 -10 -8 -3 -12 -2 -9 4 6 10 25 14 25 6z m5061 -18 c11
-21 11 -22 -4 -9 -10 7 -17 17 -17 22 0 15 9 10 21 -13z m-7584 -35 c-3 -10
-5 -2 -5 17 0 19 2 27 5 18 2 -10 2 -26 0 -35z m160 10 c-3 -10 -5 -4 -5 12 0
17 2 24 5 18 2 -7 2 -21 0 -30z m530 -15 c-2 -13 -4 -5 -4 17 -1 22 1 32 4 23
2 -10 2 -28 0 -40z m600 -12 c-35 -75 -42 -72 -10 4 15 33 28 58 31 56 2 -3
-7 -30 -21 -60z m1635 -13 c-4 -75 -13 -103 -35 -103 -13 0 0 150 15 167 20
24 23 13 20 -64z m-1903 -5 c0 -67 -13 -129 -56 -278 -15 -49 -17 -52 -24 -30
-16 58 -9 135 22 220 17 47 36 102 42 123 6 20 12 37 13 37 2 0 3 -32 3 -72z
m7978 50 c-3 -8 -6 -5 -6 6 -1 11 2 17 5 13 3 -3 4 -12 1 -19z m99 -15 c-11
-11 -17 4 -9 23 7 18 8 18 11 1 2 -10 1 -21 -2 -24z m-6595 8 c-12 -21 -132
-133 -138 -127 -6 5 29 67 54 94 14 17 27 23 39 18 10 -4 15 -4 11 0 -4 4 1
13 11 20 25 19 34 17 23 -5z m309 5 c0 -3 -15 -14 -32 -26 l-33 -22 28 26 c27
25 37 31 37 22z m5257 -38 c-3 -7 -5 -2 -5 12 0 14 2 19 5 13 2 -7 2 -19 0
-25z m-6833 -27 c-9 -23 -18 -40 -21 -38 -2 3 4 23 13 46 9 23 18 40 21 38 2
-3 -4 -23 -13 -46z m1622 6 c-4 -24 -2 -56 4 -71 10 -26 7 -29 -66 -74 -213
-131 -345 -226 -411 -295 -104 -109 -177 -266 -171 -364 l3 -48 23 75 c61 193
163 325 347 447 98 64 236 145 241 141 2 -3 -46 -35 -107 -73 -211 -128 -327
-238 -397 -373 -38 -72 -71 -178 -72 -225 0 -34 24 4 44 68 24 80 77 176 138
252 75 92 160 157 368 280 69 40 132 78 140 83 34 22 75 41 58 27 -10 -8 -18
-19 -18 -26 0 -6 -10 -16 -22 -21 -13 -6 -30 -14 -38 -20 -8 -5 -64 -39 -125
-77 -275 -168 -408 -307 -458 -478 -20 -71 -8 -99 17 -37 61 150 184 298 334
400 118 80 432 266 438 259 7 -6 -7 -16 -190 -133 -201 -128 -280 -189 -373
-288 -82 -87 -146 -192 -159 -260 -7 -38 -6 -39 19 -32 14 3 29 2 32 -4 11
-18 23 -10 45 33 59 113 189 256 306 335 27 19 38 24 24 12 -164 -142 -218
-203 -270 -309 -35 -70 -35 -71 -12 -71 12 0 35 27 67 76 53 84 149 185 240
255 76 58 182 129 191 129 4 0 -27 -24 -69 -52 -165 -114 -299 -245 -363 -353
-22 -39 -25 -49 -13 -56 8 -5 11 -9 8 -9 -3 0 -60 -20 -125 -45 -65 -25 -159
-61 -209 -80 -94 -35 -301 -93 -520 -145 -71 -17 -139 -33 -149 -37 -18 -5
-17 -2 4 33 67 113 139 229 192 307 32 49 56 92 54 96 -3 4 6 20 19 37 l24 29
-4 -35 -4 -35 20 25 c11 14 36 58 56 98 42 87 132 211 196 269 48 44 159 119
218 147 38 18 30 12 -79 -58 -141 -91 -236 -207 -303 -367 -45 -111 -31 -111
30 -2 139 249 226 334 486 473 44 24 126 72 182 107 55 34 104 63 107 63 3 0
6 -19 6 -42 0 -24 5 -50 10 -58 7 -11 10 3 10 47 0 66 6 93 22 93 6 0 8 -17 4
-43z m4682 27 c5 3 9 -1 9 -9 0 -8 -7 -17 -16 -20 -8 -3 -12 -3 -8 1 4 4 -1
17 -10 28 -16 19 -16 19 -1 7 9 -7 21 -10 26 -7z m-7333 -283 c20 -145 34
-268 32 -275 -3 -6 -7 5 -11 24 -11 62 -66 504 -65 525 2 33 7 4 44 -274z
m2315 286 c0 -2 -10 -12 -21 -23 -22 -19 -22 -19 -10 4 10 18 31 31 31 19z
m6481 -54 c-9 -16 -10 -16 -11 4 0 12 3 30 7 40 7 16 8 16 11 -4 2 -12 -1 -30
-7 -40z m-7280 24 c-10 -9 -11 -8 -5 6 3 10 9 15 12 12 3 -3 0 -11 -7 -18z
m5659 -25 c0 -7 -4 -10 -10 -7 -5 3 -10 16 -10 28 0 18 2 19 10 7 5 -8 10 -21
10 -28z m68 -23 c10 -18 7 -16 -12 6 -14 17 -26 37 -26 45 0 15 6 7 38 -51z
m572 28 c0 -5 -4 -5 -10 -2 -5 3 -10 14 -10 23 0 15 2 15 10 2 5 -8 10 -19 10
-23z m930 -152 c39 -101 47 -135 33 -135 -9 1 -104 288 -102 310 0 8 7 -5 15
-29 7 -24 32 -90 54 -146z m939 136 c-7 -23 -14 -39 -16 -37 -3 2 1 23 8 45 7
23 14 39 16 37 3 -2 -1 -23 -8 -45z m-7585 27 c-4 -7 -26 -41 -50 -74 -41 -59
-46 -62 -121 -86 -43 -14 -79 -24 -81 -23 -3 2 79 119 94 134 3 3 152 59 162
60 2 1 0 -5 -4 -11z m5931 -118 c44 -57 80 -108 80 -112 0 -5 7 -13 15 -18 8
-5 16 -14 16 -20 1 -5 2 -15 3 -21 0 -5 5 -8 10 -4 5 3 12 1 15 -4 15 -23 -15
-19 -30 4 -11 17 -19 22 -24 15 -5 -8 -13 -5 -24 11 -9 13 -16 20 -16 15 0 -5
-9 -1 -20 9 -11 10 -20 23 -20 29 0 6 7 2 15 -8 11 -14 15 -16 15 -5 0 8 10 1
25 -16 13 -16 24 -26 25 -21 0 5 -43 67 -95 138 -52 70 -95 132 -95 136 1 8
-3 13 105 -128z m-6369 56 c-21 -30 -45 -61 -54 -68 -10 -7 -5 3 11 22 15 19
37 52 49 72 13 20 25 35 27 32 2 -2 -13 -29 -33 -58z m714 60 c0 -2 -7 -7 -16
-10 -8 -3 -12 -2 -9 4 6 10 25 14 25 6z m4990 -6 c0 -5 -5 -10 -11 -10 -5 0
-7 5 -4 10 3 6 8 10 11 10 2 0 4 -4 4 -10z m929 -35 c0 -5 -4 -3 -9 5 -5 8 -9
22 -9 30 0 16 17 -16 18 -35z m-7622 -2 c-3 -10 -5 -4 -5 12 0 17 2 24 5 18 2
-7 2 -21 0 -30z m543 17 c-12 -22 -70 -56 -70 -41 0 8 67 61 78 61 1 0 -2 -9
-8 -20z m1150 -5 c-7 -8 -18 -15 -24 -15 -6 0 -2 7 8 15 25 19 32 19 16 0z
m6460 3 c-1 -18 -28 -76 -29 -62 -2 24 12 74 20 74 5 0 9 -6 9 -12z m-7510
-18 c-6 -11 -13 -20 -16 -20 -2 0 0 9 6 20 6 11 13 20 16 20 2 0 0 -9 -6 -20z
m145 -72 c-29 -51 -67 -109 -84 -129 -17 -20 -31 -39 -31 -43 0 -7 -101 -133
-185 -231 -79 -92 -243 -300 -313 -397 -35 -49 -66 -88 -69 -88 -3 0 -3 43 0
95 5 88 9 100 48 172 23 43 63 107 88 143 25 36 45 69 43 73 -1 5 2 6 7 3 5
-3 16 6 25 19 9 14 21 23 25 20 5 -2 15 3 22 13 13 15 12 16 -3 3 -10 -7 -18
-9 -18 -4 0 9 58 66 94 94 18 12 19 12 11 -1 -7 -12 -6 -13 6 -2 8 7 15 23 15
35 3 52 4 53 14 37 5 -8 6 -19 2 -25 -8 -13 21 20 49 55 11 14 23 31 28 38 11
18 123 83 113 66 -5 -9 -22 -24 -38 -35 -24 -17 -25 -19 -6 -14 31 9 28 0 -15
-42 -21 -20 -28 -28 -15 -18 31 25 28 3 -5 -37 -15 -18 -19 -26 -9 -18 11 8
32 35 48 60 16 25 31 44 34 42 3 -2 19 16 36 40 35 49 130 168 134 168 2 0
-21 -42 -51 -92z m5765 46 c25 -35 28 -44 13 -36 -21 12 -53 54 -53 72 0 17 5
12 40 -36z m629 -9 c0 -5 -4 -3 -9 5 -5 8 -9 22 -9 30 0 16 17 -16 18 -35z
m-7346 -24 c4 -29 4 -52 2 -49 -8 8 -23 97 -17 103 8 8 9 5 15 -54z m535 34
c-6 -14 -13 -23 -15 -21 -5 5 15 46 22 46 3 0 -1 -11 -7 -25z m232 5 c-6 -11
-13 -20 -16 -20 -2 0 0 9 6 20 6 11 13 20 16 20 2 0 0 -9 -6 -20z m6472 -197
c80 -53 175 -152 214 -220 111 -195 136 -226 74 -87 -52 116 -121 201 -240
297 l-35 28 35 -22 c117 -75 188 -160 272 -323 32 -61 57 -108 58 -104 0 4
-11 36 -24 70 -45 120 -98 211 -160 277 -56 60 -57 62 -17 31 75 -58 156 -181
216 -329 21 -50 23 -52 29 -28 4 16 -1 46 -14 79 -11 28 -18 53 -16 55 2 2 14
-11 27 -29 12 -18 34 -44 47 -58 37 -37 164 -197 206 -259 20 -30 34 -61 32
-68 -3 -8 -2 -12 3 -9 5 3 21 -13 37 -36 38 -54 133 -222 128 -227 -2 -2 -71
13 -154 34 -135 34 -149 39 -138 54 12 15 11 15 -7 0 -19 -15 -34 -13 -234 38
-117 29 -252 67 -300 83 -96 32 -254 91 -260 96 -2 2 3 12 11 21 9 10 19 28
22 41 8 23 26 30 26 10 1 -8 8 -5 18 7 10 12 26 19 40 17 13 -2 22 2 22 10 -1
19 -24 101 -32 113 -3 6 -3 26 2 45 l8 35 2 -40 c1 -31 3 -36 10 -20 9 22 7
25 50 -85 15 -36 20 -41 26 -27 8 23 -9 84 -46 157 -15 30 -30 69 -34 85 -6
29 -6 29 10 10 36 -46 70 -115 100 -205 25 -72 34 -90 40 -76 11 28 -20 138
-61 221 -19 39 -62 101 -95 139 -62 72 -73 102 -19 50 78 -74 166 -227 200
-349 15 -53 18 -57 24 -34 9 35 -19 138 -61 227 -23 47 -58 97 -101 142 -36
39 -62 70 -58 70 4 0 2 6 -5 14 -6 8 -17 13 -24 10 -7 -3 -19 3 -27 13 -13 17
-13 17 5 3 11 -8 17 -10 13 -3 -4 6 -28 24 -52 40 -43 26 -155 159 -155 183 0
5 -3 10 -8 10 -4 0 -12 8 -19 18 -14 24 293 -131 389 -195z m252 127 c-3 -8
-2 -11 2 -7 8 7 34 -10 34 -23 0 -5 -7 -7 -16 -6 -9 1 -31 31 -50 67 l-34 64
35 -40 c19 -22 32 -47 29 -55z m-6133 11 c-39 -57 -79 -96 -89 -86 -3 3 14 25
37 50 22 24 41 48 41 53 0 12 41 54 47 48 3 -2 -14 -32 -36 -65z m494 59 c-3
-5 -12 -10 -18 -10 -7 0 -6 4 3 10 19 12 23 12 15 0z m5484 -43 c11 -26 16
-47 12 -47 -5 0 -16 21 -25 47 -26 75 -19 75 13 0z m-7162 -4 c-3 -10 -5 -2
-5 17 0 19 2 27 5 18 2 -10 2 -26 0 -35z m1613 43 c0 -2 -7 -7 -16 -10 -8 -3
-12 -2 -9 4 6 10 25 14 25 6z m600 0 c0 -2 -8 -10 -17 -17 -16 -13 -17 -12 -4
4 13 16 21 21 21 13z m4390 -26 c12 -16 19 -30 16 -30 -2 0 -14 14 -26 30 -12
17 -19 30 -16 30 2 0 14 -13 26 -30z m1040 -15 c0 -5 -5 -3 -10 5 -5 8 -10 20
-10 25 0 6 5 3 10 -5 5 -8 10 -19 10 -25z m505 5 c-4 -12 -9 -19 -12 -17 -3 3
-2 15 2 27 4 12 9 19 12 17 3 -3 2 -15 -2 -27z m192 4 c7 -15 9 -33 4 -41 -6
-12 -11 -9 -25 12 -17 25 -16 55 1 55 4 0 13 -12 20 -26z m-8152 -14 c-4 -12
-9 -19 -12 -17 -3 3 -2 15 2 27 4 12 9 19 12 17 3 -3 2 -15 -2 -27z m195 17
c0 -7 -7 -22 -15 -33 -13 -17 -14 -16 -4 14 11 33 19 41 19 19z m142 -9 c-7
-7 -12 -8 -12 -2 0 14 12 26 19 19 2 -3 -1 -11 -7 -17z m180 6 c-11 -20 -94
-74 -104 -68 -8 5 24 34 72 66 32 21 43 22 32 2z m808 6 c-8 -5 -19 -10 -25
-10 -5 0 -3 5 5 10 8 5 20 10 25 10 6 0 3 -5 -5 -10z m6074 -244 c41 -61 93
-145 116 -186 l42 -75 -37 35 c-21 19 -69 82 -108 140 -38 58 -106 152 -150
210 -44 58 -85 112 -91 120 -6 8 26 -18 72 -59 61 -54 103 -104 156 -185z
m-7117 197 c-14 -21 -32 -51 -39 -68 -32 -74 -194 -329 -247 -390 -20 -23 -21
-26 -3 -11 12 11 22 16 22 13 0 -3 -23 -49 -52 -101 -53 -99 -69 -107 -67 -36
l1 35 8 -30 c7 -29 8 -28 9 11 1 31 15 63 56 130 30 49 96 158 147 243 59 98
101 156 116 162 12 5 22 11 22 15 0 3 -7 4 -15 0 -33 -12 -4 39 33 58 37 20
39 13 9 -31z m1143 43 c0 -2 -7 -7 -16 -10 -8 -3 -12 -2 -9 4 6 10 25 14 25 6z
m-145 -16 c-3 -5 -12 -10 -18 -10 -7 0 -6 4 3 10 19 12 23 12 15 0z m50 0 c-3
-5 -12 -10 -18 -10 -7 0 -6 4 3 10 19 12 23 12 15 0z m7366 -17 c-12 -20 -14
-14 -5 12 4 9 9 14 11 11 3 -2 0 -13 -6 -23z m-8557 -15 c-9 -18 -19 -35 -22
-38 -8 -9 10 45 20 58 18 22 19 13 2 -20z m-406 -41 c5 -31 5 -57 0 -57 -4 0
-8 13 -8 29 0 16 -3 44 -6 62 -4 19 -4 32 -1 29 3 -3 10 -31 15 -63z m46 -152
c17 -126 19 -162 11 -153 -7 7 -45 305 -44 343 2 35 10 -13 33 -190z m1576
210 c0 -2 -13 -11 -30 -20 -38 -19 -40 -11 -2 9 31 17 32 18 32 11z m-1410
-42 c-11 -17 -11 -17 -6 0 3 10 6 24 7 30 0 9 2 9 5 0 3 -7 0 -20 -6 -30z
m1329 33 c-10 -9 -69 -36 -69 -32 0 7 52 35 64 36 5 0 7 -2 5 -4z m6285 -69
c25 -41 46 -77 46 -82 0 -4 28 -40 63 -79 125 -141 146 -171 140 -194 -3 -12
-9 -22 -13 -22 -4 0 -40 51 -81 113 -41 61 -95 140 -121 174 -38 51 -88 141
-88 159 0 13 14 -5 54 -69z m-6724 32 c-12 -16 -24 -28 -27 -26 -2 3 -44 -38
-92 -91 -49 -54 -99 -106 -112 -117 -13 -11 13 21 57 70 43 50 95 109 113 132
19 23 37 40 41 38 4 -3 13 2 20 10 22 27 22 16 0 -16z m7411 -2 c-10 -9 -11
-8 -5 6 3 10 9 15 12 12 3 -3 0 -11 -7 -18z m-8654 -9 c-3 -8 -6 -5 -6 6 -1
11 2 17 5 13 3 -3 4 -12 1 -19z m1503 18 c0 -2 -35 -24 -79 -49 -145 -85 -251
-202 -301 -336 -12 -34 -41 -82 -63 -108 -61 -72 -68 -86 -14 -29 79 82 133
150 116 144 -26 -10 46 113 104 177 49 55 173 152 183 142 3 -2 -17 -21 -44
-40 -63 -47 -132 -121 -176 -190 -20 -31 -41 -59 -47 -62 -6 -4 -8 -13 -5 -20
3 -8 -18 -40 -47 -72 -29 -32 -69 -79 -90 -105 -22 -26 -43 -46 -49 -45 -5 1
-26 -18 -46 -43 -20 -25 -27 -36 -14 -26 12 11 22 15 22 9 0 -13 -35 -45 -42
-38 -3 3 -13 -5 -24 -17 l-19 -23 23 19 c12 11 22 14 22 9 0 -6 -7 -16 -15
-23 -8 -7 -15 -18 -15 -24 0 -6 19 9 41 34 23 25 5 -2 -39 -60 -43 -58 -105
-144 -136 -192 -32 -49 -59 -88 -62 -88 -7 0 -1 9 59 98 27 41 47 76 44 78 -3
4 -48 -59 -131 -182 -5 -7 -46 -13 -46 -7 0 5 24 49 53 99 102 172 109 187 97
179 -8 -5 -11 -3 -8 6 3 8 10 14 16 14 5 0 14 4 19 9 5 5 3 6 -4 2 -23 -13
-14 5 35 72 26 36 79 109 117 163 94 130 167 220 173 214 3 -3 0 -11 -6 -17
-7 -7 -12 -23 -12 -37 0 -22 5 -18 28 24 75 136 160 223 294 298 85 48 88 50
88 43z m5840 -21 c28 -14 50 -28 50 -30 0 -5 -99 42 -109 51 -12 11 15 1 59
-21z m248 2 c6 -5 12 -13 12 -18 0 -6 -6 -7 -12 -2 -7 4 -17 8 -22 8 -5 0 -11
5 -13 12 -4 12 14 12 35 0z m-7253 -87 c-21 -44 -40 -78 -42 -76 -2 2 13 40
33 85 20 45 39 79 42 77 2 -3 -13 -41 -33 -86z m416 67 c-10 -9 -11 -8 -5 6 3
10 9 15 12 12 3 -3 0 -11 -7 -18z m8318 -17 c0 -10 -3 -8 -9 5 -12 27 -12 43
0 25 5 -8 9 -22 9 -30z m-9075 -135 c4 -39 3 -44 -4 -22 -5 16 -11 66 -14 110
-5 77 -5 78 4 22 5 -33 11 -82 14 -110z m337 138 c-12 -20 -14 -14 -5 12 4 9
9 14 11 11 3 -2 0 -13 -6 -23z m170 -15 c-11 -18 -21 -29 -21 -25 0 13 33 67
38 62 3 -2 -5 -19 -17 -37z m999 38 c0 -2 -8 -10 -17 -17 -16 -13 -17 -12 -4
4 13 16 21 21 21 13z m7168 -34 c-7 -18 -16 -32 -21 -32 -4 0 -6 4 -3 9 3 4
10 21 16 36 6 15 13 26 15 23 3 -2 -1 -19 -7 -36z m-1867 -3 c13 -26 7 -24
-22 7 -17 19 -19 23 -6 18 10 -3 22 -15 28 -25z m1125 -37 c2 -7 8 -21 16 -31
7 -9 1 -4 -14 12 -15 17 -26 33 -25 36 1 3 -4 17 -11 31 -11 21 -10 20 10 -4
12 -17 23 -36 24 -44z m-7819 26 c-3 -7 -5 -2 -5 12 0 14 2 19 5 13 2 -7 2
-19 0 -25z m563 12 c-6 -11 -13 -20 -16 -20 -2 0 0 9 6 20 6 11 13 20 16 20 2
0 0 -9 -6 -20z m1770 16 c0 -2 -7 -7 -16 -10 -8 -3 -12 -2 -9 4 6 10 25 14 25
6z m-2186 -155 c-8 -9 -12 7 -17 79 l-6 75 14 -75 c7 -41 11 -77 9 -79z m177
50 c-23 -45 -43 -81 -46 -81 -3 0 9 27 25 61 17 33 35 72 41 86 5 14 12 23 15
20 3 -3 -13 -41 -35 -86z m588 41 c-19 -20 -38 -41 -43 -47 -5 -6 -5 -3 0 6
14 25 68 86 73 82 3 -2 -11 -20 -30 -41z m271 33 c-7 -8 -17 -15 -23 -15 -6 0
-2 7 9 15 25 19 30 19 14 0z m7142 -29 c-7 -13 -21 16 -14 32 4 13 7 12 12 -4
4 -10 5 -23 2 -28z m-8925 12 c-3 -8 -6 -5 -6 6 -1 11 2 17 5 13 3 -3 4 -12 1
-19z m571 -93 c0 -26 -1 -25 -9 10 -4 22 -8 54 -7 70 0 26 1 25 9 -10 4 -22 8
-53 7 -70z m39 53 c-3 -7 -5 -2 -5 12 0 14 2 19 5 13 2 -7 2 -19 0 -25z m352
6 c-14 -38 -3 -41 16 -5 8 17 18 31 21 31 3 0 -6 -21 -21 -47 -29 -51 -56 -84
-35 -45 6 13 9 26 7 29 -3 3 -13 -9 -22 -26 -8 -17 -18 -31 -20 -31 -3 0 8 27
25 60 31 62 47 80 29 34z m1836 0 c-26 -20 -55 -36 -55 -30 0 5 63 46 70 46 3
-1 -4 -8 -15 -16z m6728 1 c-3 -9 -8 -14 -10 -11 -3 3 -2 9 2 15 9 16 15 13 8
-4z m-7623 1 c0 -2 -8 -10 -17 -17 -16 -13 -17 -12 -4 4 13 16 21 21 21 13z
m-1743 -28 c-3 -8 -6 -5 -6 6 -1 11 2 17 5 13 3 -3 4 -12 1 -19z m366 -118 c5
-49 4 -55 -2 -25 -5 22 -11 69 -14 105 -5 49 -4 55 2 25 5 -22 11 -69 14 -105z
m6925 112 c20 -30 11 -28 -19 4 -13 15 -18 25 -10 22 8 -2 21 -14 29 -26z
m577 8 c10 -11 16 -20 13 -20 -3 0 -13 9 -23 20 -10 11 -16 20 -13 20 3 0 13
-9 23 -20z m-7188 -32 c-6 -55 -38 -123 -49 -106 -15 24 -8 61 20 104 15 24
28 44 30 44 2 0 1 -19 -1 -42z m7399 5 c15 -20 23 -33 16 -29 -13 8 -56 66
-49 66 3 0 17 -17 33 -37z m-7619 -5 c-3 -8 -6 -5 -6 6 -1 11 2 17 5 13 3 -3
4 -12 1 -19z m2108 13 c-6 -5 -50 -37 -100 -72 -49 -35 -113 -84 -141 -109
-29 -25 -23 -18 13 16 34 34 100 87 145 118 75 52 106 69 83 47z m4666 -18
c14 -16 32 -37 40 -48 13 -18 11 -17 -14 2 -34 26 -72 73 -60 73 5 0 20 -12
34 -27z m1499 -1 c0 -15 -2 -15 -10 -2 -13 20 -13 33 0 25 6 -3 10 -14 10 -23z
m468 -3 c-6 -16 -12 -28 -14 -26 -5 5 13 57 20 57 3 0 0 -14 -6 -31z m-8695
-114 c4 -36 3 -50 -2 -35 -4 14 -11 59 -14 100 -7 87 7 33 16 -65z m758 101
c-21 -21 -30 -39 -26 -47 5 -7 4 -10 -2 -6 -13 8 -47 -28 -39 -41 3 -5 -3 -17
-14 -27 -11 -10 -20 -15 -20 -10 0 4 -7 2 -15 -5 -9 -7 -14 -19 -11 -26 2 -7
-4 -20 -15 -30 -10 -9 -19 -14 -19 -9 0 4 -7 2 -15 -5 -18 -15 -20 -34 -2 -24
8 5 7 2 -2 -9 -8 -10 -16 -15 -19 -12 -7 6 -32 -15 -32 -27 0 -5 6 -6 13 -2 8
5 7 2 -2 -9 -8 -10 -16 -15 -19 -12 -7 6 -32 -15 -32 -27 0 -5 6 -6 13 -2 9 5
9 3 -1 -7 -7 -8 -18 -14 -25 -14 -7 0 -12 -8 -12 -17 0 -10 -3 -17 -6 -15 -12
5 -40 -27 -35 -40 3 -8 2 -12 -3 -8 -5 3 -53 -59 -107 -137 -89 -132 -130
-187 -109 -148 29 53 219 323 292 416 131 164 279 334 292 334 3 0 -10 -15
-28 -34z m7068 -31 c0 -11 -25 20 -41 50 -5 11 2 7 16 -10 14 -16 25 -34 25
-40z m1021 51 c0 -8 -13 -43 -28 -78 -16 -34 -32 -76 -36 -92 -4 -15 -10 -26
-13 -22 -7 6 7 58 41 149 20 54 36 74 36 43z m-1950 -57 c15 -28 5 -23 -15 7
-9 15 -12 23 -6 20 6 -4 16 -16 21 -27z m1307 9 c-3 -8 -6 -5 -6 6 -1 11 2 17
5 13 3 -3 4 -12 1 -19z m-8290 -50 c-2 -13 -4 -3 -4 22 0 25 2 35 4 23 2 -13
2 -33 0 -45z m343 42 c-6 -11 -13 -20 -16 -20 -2 0 0 9 6 20 6 11 13 20 16 20
2 0 0 -9 -6 -20z m8010 -20 c11 -22 17 -40 12 -40 -7 0 -42 62 -42 75 0 14 12
0 30 -35z m-8044 3 c-8 -16 -22 -37 -30 -48 -15 -19 -16 -19 -9 -1 5 14 3 17
-6 12 -8 -6 -7 2 3 23 9 17 19 31 22 31 2 0 0 -9 -6 -21 -7 -11 -9 -23 -7 -26
3 -3 13 9 22 26 8 17 18 31 21 31 2 0 -2 -12 -10 -27z m7659 -5 c8 -18 22 -44
32 -58 10 -13 12 -21 6 -16 -20 11 -16 2 22 -55 20 -29 34 -58 31 -64 -2 -7 1
-18 7 -24 8 -8 8 -11 0 -11 -13 0 -28 37 -24 58 1 7 -4 11 -11 10 -7 -2 -12 3
-10 10 1 7 -7 27 -19 44 -12 16 -22 37 -23 47 -1 9 -8 27 -16 41 -14 25 -21
50 -14 50 2 0 10 -15 19 -32z m971 -25 c-9 -26 -24 -59 -32 -73 -10 -17 -13
-19 -9 -5 36 105 48 135 52 131 3 -2 -2 -26 -11 -53z m-2503 -11 c40 -28 79
-58 87 -68 14 -16 -162 96 -185 119 -22 22 28 -5 98 -51z m-5983 28 c-6 -11
-13 -20 -16 -20 -2 0 0 9 6 20 6 11 13 20 16 20 2 0 0 -9 -6 -20z m7824 5 c3
-8 1 -15 -4 -15 -6 0 -10 7 -10 15 0 8 2 15 4 15 2 0 6 -7 10 -15z m-8216
-105 l0 -35 -9 40 c-4 22 -8 56 -7 75 l0 35 9 -40 c4 -22 8 -56 7 -75z m6899
64 c27 -46 31 -81 7 -49 -9 11 -25 37 -36 59 -26 52 -1 43 29 -10z m1790 24
c-3 -8 -6 -5 -6 6 -1 11 2 17 5 13 3 -3 4 -12 1 -19z m-8564 -38 c4 -30 3 -38
-3 -25 -8 19 -14 83 -6 74 2 -2 6 -24 9 -49z m651 -12 c-33 -35 -104 -116
-158 -180 -54 -65 -101 -118 -104 -118 -3 0 2 8 10 18 8 9 54 64 103 122 123
147 188 219 199 219 5 1 -17 -27 -50 -61z m6876 37 c13 -14 21 -25 18 -25 -2
0 -15 11 -28 25 -13 14 -21 25 -18 25 2 0 15 -11 28 -25z m495 -73 c-6 -52 -7
-53 -26 -36 -24 22 -24 24 4 87 18 44 23 48 25 28 2 -14 1 -49 -3 -79z m125
66 c20 -34 28 -70 11 -52 -11 11 -42 84 -35 84 2 0 13 -15 24 -32z m-569 -25
c13 -16 12 -17 -3 -4 -10 7 -18 15 -18 17 0 8 8 3 21 -13z m551 -30 c19 -54
17 -69 -5 -26 -21 40 -30 73 -20 73 4 0 16 -21 25 -47z m629 16 c-5 -13 -10
-19 -10 -12 -1 15 10 45 15 40 3 -2 0 -15 -5 -28z m-146 -19 c3 -32 -9 -41
-19 -14 -7 18 2 59 11 50 3 -3 7 -19 8 -36z m-8545 11 c-5 -11 -15 -23 -21
-27 -6 -3 -3 5 6 20 20 30 30 35 15 7z m952 -8 c-11 -16 -33 -39 -48 -53 l-29
-25 20 25 c28 36 68 80 73 80 2 0 -6 -12 -16 -27z m5206 -5 c56 -38 150 -114
175 -141 10 -11 17 -35 17 -59 l0 -39 -46 33 c-69 49 -202 200 -204 231 0 12
10 8 58 -25z m-6279 -83 l0 -20 -9 20 c-5 11 -8 38 -8 60 l0 40 9 -40 c4 -22
8 -49 8 -60z m7736 -3 c24 -27 42 -51 39 -54 -2 -3 3 -11 13 -19 14 -12 16
-12 8 0 -5 10 -4 12 3 7 7 -4 12 -14 12 -22 0 -8 5 -14 10 -14 6 0 10 -7 10
-16 0 -8 4 -13 9 -10 14 9 29 -17 22 -38 -6 -15 -21 -3 -88 75 -44 52 -90 102
-102 113 -11 10 -18 22 -16 27 3 4 1 10 -5 14 -5 3 -10 11 -10 16 0 15 43 -21
95 -79z m-826 30 c0 -30 -2 -33 -9 -17 -12 28 -12 67 0 60 6 -3 10 -23 9 -43z
m784 -101 c137 -156 145 -165 131 -160 -6 2 -53 52 -104 112 -51 59 -95 107
-97 107 -3 0 6 -12 19 -28 12 -15 56 -66 96 -113 39 -48 72 -92 72 -98 0 -6 5
-11 11 -11 5 0 7 -4 4 -10 -3 -5 0 -10 7 -10 8 0 44 -43 81 -96 66 -94 67 -96
57 -135 -6 -21 -12 -39 -14 -39 -2 0 -11 12 -21 26 -12 18 -13 24 -4 19 8 -4
3 3 -11 15 -14 12 -18 18 -11 14 8 -4 -5 19 -30 52 -59 75 -70 98 -63 121 5
15 4 15 -5 3 -10 -13 -15 -8 -12 13 0 4 -4 6 -10 5 -7 -2 -54 64 -106 146 -52
83 -88 144 -79 137 10 -8 16 -9 16 -3 0 6 -9 17 -21 26 -11 8 -28 25 -37 38
-32 47 17 -3 131 -131z m-7806 117 c-3 -8 -6 -5 -6 6 -1 11 2 17 5 13 3 -3 4
-12 1 -19z m2252 -11 c-122 -109 -241 -207 -222 -184 24 32 91 92 183 165 72
58 94 69 39 19z m-2165 -32 c4 -34 3 -45 -4 -35 -9 14 -15 99 -6 89 2 -2 6
-26 10 -54z m8075 15 c17 -24 20 -38 15 -66 l-7 -36 -28 44 c-32 48 -34 59
-17 76 15 15 10 17 37 -18z m-7008 3 c-14 -24 -75 -92 -65 -73 9 18 66 90 71
90 2 0 -1 -8 -6 -17z m-1092 -88 l0 -20 -9 20 c-5 11 -8 38 -8 60 l0 40 9 -40
c4 -22 8 -49 8 -60z m8771 75 c6 -11 8 -20 6 -20 -3 0 -10 9 -16 20 -6 11 -8
20 -6 20 3 0 10 -9 16 -20z m-7790 -3 c0 -2 -10 -12 -22 -23 l-23 -19 19 23
c18 21 26 27 26 19z m7219 -27 c11 -24 11 -24 -3 -6 -9 11 -16 24 -16 30 0 12
5 7 19 -24z m-6242 -42 c-29 -35 -68 -84 -85 -109 -29 -43 -49 -59 -73 -59
-17 0 58 90 135 162 39 38 73 68 74 68 2 0 -21 -28 -51 -62z m4903 8 c-1 -19
-2 -19 -15 4 -20 35 -19 62 0 36 8 -11 15 -29 15 -40z m1480 32 c0 -19 -2 -20
-10 -8 -13 19 -13 30 0 30 6 0 10 -10 10 -22z m352 -2 c10 -13 13 -28 8 -36
-6 -9 -12 -5 -24 18 -9 17 -16 33 -16 37 0 12 16 3 32 -19z m-9335 -53 c-3
-10 -5 -4 -5 12 0 17 2 24 5 18 2 -7 2 -21 0 -30z m590 15 c-3 -8 -6 -5 -6 6
-1 11 2 17 5 13 3 -3 4 -12 1 -19z m7723 -8 c12 -16 19 -30 16 -30 -2 0 -14
14 -26 30 -12 17 -19 30 -16 30 2 0 14 -13 26 -30z m660 -29 c-1 -13 -4 -12
-15 3 -8 11 -15 27 -15 35 1 13 4 12 15 -3 8 -11 15 -27 15 -35z m329 -36 c0
-30 -15 1 -23 45 l-6 35 15 -30 c8 -16 14 -39 14 -50z m91 62 c0 -7 -6 -21
-13 -31 -12 -17 -14 -17 -20 -2 -4 9 -4 23 -1 31 7 18 34 20 34 2z m-9353 -44
c-3 -10 -5 -4 -5 12 0 17 2 24 5 18 2 -7 2 -21 0 -30z m1561 20 c-54 -63 -167
-207 -232 -297 -43 -58 -80 -106 -83 -106 -3 0 -1 6 4 13 6 6 41 55 78 107 96
133 231 300 243 300 3 0 -2 -8 -10 -17z m6853 0 c13 -16 12 -17 -3 -4 -10 7
-18 15 -18 17 0 8 8 3 21 -13z m219 1 c0 5 7 3 16 -5 24 -20 55 -86 48 -104
-5 -12 -17 1 -45 47 -22 35 -39 68 -39 73 0 6 5 3 10 -5 5 -8 10 -11 10 -6z
m-1293 -16 c-3 -8 -6 -5 -6 6 -1 11 2 17 5 13 3 -3 4 -12 1 -19z m163 -5 c0
-20 -3 -24 -11 -16 -7 7 -9 19 -6 27 10 24 17 19 17 -11z m-6030 -142 c-66
-88 -143 -196 -171 -241 -28 -44 -54 -78 -57 -75 -11 10 171 269 301 428 77
93 45 44 -73 -112z m7900 146 c0 -7 -7 -22 -16 -33 -14 -17 -15 -17 -10 -1 3
10 6 25 6 33 0 8 5 14 10 14 6 0 10 -6 10 -13z m-7920 -32 c-13 -14 -26 -23
-28 -20 -3 3 -14 -2 -24 -12 -10 -9 -18 -12 -18 -6 0 5 9 18 20 28 15 13 20
15 20 4 0 -9 7 -6 22 9 31 30 37 28 8 -3z m5717 -12 c-3 -10 -5 -4 -5 12 0 17
2 24 5 18 2 -7 2 -21 0 -30z m271 12 c-3 -3 -9 2 -12 12 -6 14 -5 15 5 6 7 -7
10 -15 7 -18z m1742 -17 c0 -10 3 -18 6 -18 4 0 13 8 20 18 20 27 40 1 28 -38
-11 -38 -23 -42 -38 -15 -6 11 -19 32 -29 47 -10 15 -15 33 -11 39 8 14 24 -8
24 -33z m-7945 -10 c-15 -18 -65 -85 -112 -148 -47 -63 -93 -122 -101 -130
-36 -35 120 179 186 258 48 56 71 73 27 20z m7495 12 c6 -11 8 -20 6 -20 -3 0
-10 9 -16 20 -6 11 -8 20 -6 20 3 0 10 -9 16 -20z m-1209 -27 c-10 -17 -10
-16 -11 3 0 23 13 41 18 25 2 -6 -1 -18 -7 -28z m-301 7 c0 -5 -5 -10 -11 -10
-5 0 -7 5 -4 10 3 6 8 10 11 10 2 0 4 -4 4 -10z m-6539 -85 c-7 -12 -19 66
-12 80 3 6 8 -8 12 -30 4 -22 4 -44 0 -50z m739 81 c0 -2 -8 -10 -17 -17 -16
-13 -17 -12 -4 4 13 16 21 21 21 13z m126 -18 c-9 -13 -66 -98 -128 -190 -61
-93 -115 -168 -120 -168 -12 0 -10 2 80 135 83 122 174 245 180 245 3 0 -3
-10 -12 -22z m5864 1 c0 -17 -20 -49 -30 -49 -5 0 -7 7 -5 15 3 8 7 22 10 30
5 17 25 21 25 4z m1887 -31 c6 -23 8 -51 4 -62 -7 -17 -9 -13 -15 19 -4 22
-10 50 -13 63 -10 41 13 23 24 -20z m-730 12 c-3 -11 0 -23 5 -27 7 -3 8 -1 4
5 -14 22 9 12 24 -10 25 -38 29 -55 15 -55 -8 0 -13 3 -12 7 1 3 -10 17 -26
31 -32 28 -44 69 -20 69 10 0 14 -6 10 -20z m-8543 -60 c3 -36 10 -110 15
-165 6 -55 12 -127 15 -160 5 -58 5 -58 -4 -15 -35 158 -40 197 -43 318 -2 74
0 98 9 89 2 -1 5 -32 8 -67z m1216 66 c0 -2 -8 -10 -17 -17 -16 -13 -17 -12
-4 4 13 16 21 21 21 13z m-581 -56 l-1 -25 -8 25 c-4 14 -8 32 -9 40 -1 13 0
13 9 0 5 -8 9 -26 9 -40z m8603 14 c-3 -17 -1 -25 5 -21 9 6 27 -72 19 -80 -1
-2 -12 15 -24 36 -18 31 -20 44 -12 65 12 34 19 33 12 0z m-1828 1 c-7 -16
-24 -21 -24 -6 0 8 7 13 27 20 1 1 0 -6 -3 -14z m-6224 1 c0 -2 -8 -10 -17
-17 -16 -13 -17 -12 -4 4 13 16 21 21 21 13z m6270 0 c0 -2 -8 -10 -17 -17
-16 -13 -17 -12 -4 4 13 16 21 21 21 13z m1094 -100 c36 -50 63 -92 61 -95 -3
-2 -6 -2 -8 0 -34 43 -127 179 -127 185 0 10 -1 11 74 -90z m522 23 c16 -32
17 -39 7 -39 -10 0 -53 66 -53 81 0 17 29 -9 46 -42z m-7916 37 c0 -2 -8 -10
-17 -17 -16 -13 -17 -12 -4 4 13 16 21 21 21 13z m-190 -10 c0 -2 -8 -10 -17
-17 -16 -13 -17 -12 -4 4 13 16 21 21 21 13z m-290 -38 c0 -36 -4 -35 -14 5
-4 16 -2 27 4 27 5 0 10 -14 10 -32z m7959 -12 c0 -7 -2 -6 -6 2 -2 6 -8 10
-12 8 -4 -3 -8 1 -8 9 0 11 4 12 14 4 7 -6 13 -17 12 -23z m-7509 20 c0 -2 -8
-10 -17 -17 -16 -13 -17 -12 -4 4 13 16 21 21 21 13z m-37 -124 c-38 -60 -76
-124 -86 -142 -10 -18 -20 -30 -24 -27 -3 3 7 28 22 54 49 85 147 234 152 230
2 -2 -27 -54 -64 -115z m8230 31 c4 -18 4 -33 2 -33 -11 0 -41 77 -37 95 4 18
5 17 17 -5 7 -14 15 -40 18 -57z m-195 1 c-4 -3 -12 5 -18 18 -12 22 -12 22 6
6 10 -10 15 -20 12 -24z m-8504 10 c3 -8 2 -12 -4 -9 -6 3 -10 10 -10 16 0 14
7 11 14 -7z m450 4 c-21 -36 -108 -164 -117 -173 -12 -12 9 24 71 118 25 37
47 67 49 67 2 0 1 -6 -3 -12z m166 -32 c0 -2 -8 -10 -17 -17 -16 -13 -17 -12
-4 4 13 16 21 21 21 13z m-276 -68 c-57 -97 -118 -182 -83 -115 18 33 81 127
86 127 2 0 1 -6 -3 -12z m-693 -25 c-8 -15 -10 -15 -11 -2 0 17 10 32 18 25 2
-3 -1 -13 -7 -23z m949 23 c0 -2 -8 -10 -17 -17 -16 -13 -17 -12 -4 4 13 16
21 21 21 13z m8190 -142 c34 -58 60 -108 57 -110 -3 -3 -19 21 -37 53 -18 32
-46 82 -62 111 -53 95 -21 54 42 -54z m-37 -11 c30 -51 51 -93 47 -93 -9 0
-29 32 -85 135 -52 95 -30 71 38 -42z m-8999 -44 c10 -22 -11 -35 -67 -43
l-48 -7 21 41 c11 22 27 43 35 46 8 3 17 20 21 37 l7 32 12 -45 c7 -25 16 -52
19 -61z m8881 -4 l16 -30 -23 27 c-13 15 -32 42 -42 60 l-18 33 25 -30 c14
-16 33 -43 42 -60z m60 15 c9 -16 13 -30 11 -30 -3 0 -12 14 -21 30 -9 17 -13
30 -11 30 3 0 12 -13 21 -30z m-9263 -65 c3 -14 1 -25 -3 -25 -5 0 -9 11 -9
25 0 14 2 25 4 25 2 0 6 -11 8 -25z"/>
<path d="M4389 11433 c-13 -16 -12 -17 4 -4 9 7 17 15 17 17 0 8 -8 3 -21 -13z"/>
<path d="M10943 7010 c0 -41 2 -58 4 -37 2 20 2 54 0 75 -2 20 -4 3 -4 -38z"/>
<path d="M1966 5985 c-9 -26 -7 -32 5 -12 6 10 9 21 6 23 -2 3 -7 -2 -11 -11z"/>
<path d="M1946 5935 c-9 -26 -7 -32 5 -12 6 10 9 21 6 23 -2 3 -7 -2 -11 -11z"/>
<path d="M1612 4370 c0 -14 2 -19 5 -12 2 6 2 18 0 25 -3 6 -5 1 -5 -13z"/>
<path d="M1591 4279 c-7 -33 -10 -63 -8 -65 2 -3 10 23 16 57 7 33 10 63 8 65
-2 3 -10 -23 -16 -57z"/>
<path d="M3135 3643 l-17 -28 23 22 c12 12 20 25 17 28 -3 3 -13 -7 -23 -22z"/>
<path d="M10492 3110 c0 -19 2 -27 5 -17 2 9 2 25 0 35 -3 9 -5 1 -5 -18z"/>
<path d="M3841 3584 c0 -11 3 -14 6 -6 3 7 2 16 -1 19 -3 4 -6 -2 -5 -13z"/>
<path d="M11013 1935 c-3 -9 -3 -18 -1 -21 3 -3 8 4 11 16 6 23 -1 27 -10 5z"/>
<path d="M2343 2745 c0 -38 2 -53 4 -32 2 20 2 52 0 70 -2 17 -4 1 -4 -38z"/>
<path d="M9775 2430 c10 -11 20 -20 23 -20 3 0 -3 9 -13 20 -10 11 -20 20 -23
20 -3 0 3 -9 13 -20z"/>
<path d="M1917 1235 c-9 -19 -15 -35 -12 -35 7 0 37 61 33 66 -3 2 -12 -12
-21 -31z"/>
<path d="M1892 1053 c-18 -32 -15 -51 4 -25 8 12 14 28 11 35 -2 7 -8 3 -15
-10z"/>
<path d="M1865 1049 c-4 -6 -5 -12 -2 -15 2 -3 7 2 10 11 7 17 1 20 -8 4z"/>
<path d="M1865 990 c-3 -5 -1 -10 4 -10 6 0 11 5 11 10 0 6 -2 10 -4 10 -3 0
-8 -4 -11 -10z"/>
<path d="M2438 2365 c-3 -11 -9 -29 -13 -40 -3 -11 1 -7 10 8 9 16 15 33 12
40 -2 6 -6 3 -9 -8z"/>
<path d="M2949 2053 l-24 -28 28 24 c25 23 32 31 24 31 -2 0 -14 -12 -28 -27z"/>
<path d="M10019 1303 c-13 -16 -12 -17 4 -4 16 13 21 21 13 21 -2 0 -10 -8
-17 -17z"/>
<path d="M2954 1438 l-19 -23 23 19 c21 18 27 26 19 26 -2 0 -12 -10 -23 -22z"/>
<path d="M2940 1386 c-24 -31 -41 -58 -38 -61 2 -2 23 21 47 51 24 30 41 58
38 60 -3 3 -24 -20 -47 -50z"/>
<path d="M2949 1873 c-13 -16 -12 -17 4 -4 16 13 21 21 13 21 -2 0 -10 -8 -17
-17z"/>
<path d="M2889 1803 c-13 -16 -12 -17 4 -4 9 7 17 15 17 17 0 8 -8 3 -21 -13z"/>
<path d="M10005 1781 c-3 -5 -2 -12 3 -15 5 -3 9 1 9 9 0 17 -3 19 -12 6z"/>
<path d="M10154 1602 c18 -21 29 -23 27 -5 -1 4 -4 8 -8 8 -5 0 -15 4 -23 9
-9 6 -7 1 4 -12z"/>
<path d="M10310 1635 c0 -9 60 -100 60 -92 0 5 -12 28 -26 53 -24 40 -34 52
-34 39z"/>
<path d="M6972 12044 c-155 -21 -531 -109 -518 -121 2 -2 82 14 177 36 206 47
372 77 489 90 l85 8 -65 1 c-36 0 -111 -6 -168 -14z"/>
<path d="M3048 10283 c-64 -83 -176 -253 -235 -358 -59 -105 -193 -371 -193
-382 0 -5 41 71 91 167 130 250 240 429 367 598 13 17 22 32 20 32 -3 0 -25
-26 -50 -57z"/>
<path d="M2136 8455 c-9 -26 -7 -32 5 -12 6 10 9 21 6 23 -2 3 -7 -2 -11 -11z"/>
<path d="M11592 3600 c0 -14 2 -19 5 -12 2 6 2 18 0 25 -3 6 -5 1 -5 -13z"/>
<path d="M1302 3215 c0 -16 2 -22 5 -12 2 9 2 23 0 30 -3 6 -5 -1 -5 -18z"/>
<path d="M1413 3140 c0 -25 2 -35 4 -22 2 12 2 32 0 45 -2 12 -4 2 -4 -23z"/>
<path d="M1425 3027 c6 -89 38 -326 42 -307 2 8 -8 96 -22 195 -13 99 -22 150
-20 112z"/>
<path d="M11491 2764 c0 -11 3 -14 6 -6 3 7 2 16 -1 19 -3 4 -6 -2 -5 -13z"/>
<path d="M1472 2660 c0 -19 2 -27 5 -17 2 9 2 25 0 35 -3 9 -5 1 -5 -18z"/>
<path d="M1482 2595 c0 -16 2 -22 5 -12 2 9 2 23 0 30 -3 6 -5 -1 -5 -18z"/>
<path d="M1492 2520 c0 -19 4 -48 8 -65 7 -27 8 -28 8 -5 1 14 -3 43 -7 65
l-9 40 0 -35z"/>
<path d="M1512 2400 c-1 -14 3 -43 7 -65 6 -26 9 -31 9 -15 1 14 -3 43 -7 65
-6 26 -9 31 -9 15z"/>
<path d="M1452 2360 c0 -19 2 -27 5 -17 2 9 2 25 0 35 -3 9 -5 1 -5 -18z"/>
<path d="M1462 2280 c0 -14 2 -19 5 -12 2 6 2 18 0 25 -3 6 -5 1 -5 -13z"/>
<path d="M1532 2260 c0 -19 2 -27 5 -17 2 9 2 25 0 35 -3 9 -5 1 -5 -18z"/>
<path d="M1471 2204 c0 -11 3 -14 6 -6 3 7 2 16 -1 19 -3 4 -6 -2 -5 -13z"/>
<path d="M1542 2200 c-1 -14 3 -43 7 -65 6 -26 9 -31 9 -15 1 14 -3 43 -7 65
-6 26 -9 31 -9 15z"/>
<path d="M1610 1980 c0 -19 3 -21 12 -12 9 9 9 15 0 24 -9 9 -12 7 -12 -12z"/>
<path d="M1482 1965 c0 -16 2 -22 5 -12 2 9 2 23 0 30 -3 6 -5 -1 -5 -18z"/>
<path d="M11226 1904 c-4 -14 -5 -28 -3 -31 3 -2 8 8 11 23 4 14 5 28 3 31 -3
2 -8 -8 -11 -23z"/>
<path d="M1492 1885 c0 -16 2 -22 5 -12 2 9 2 23 0 30 -3 6 -5 -1 -5 -18z"/>
<path d="M1543 1502 c1 -27 5 -48 9 -46 7 4 0 85 -7 93 -3 2 -3 -19 -2 -47z"/>
<path d="M11107 1521 c-4 -17 -3 -21 5 -13 5 5 8 16 6 23 -3 8 -7 3 -11 -10z"/>
<path d="M1490 1180 c-17 -33 -28 -60 -25 -60 2 0 18 27 35 60 17 33 28 60 25
60 -2 0 -18 -27 -35 -60z"/>
<path d="M1671 1024 c0 -11 3 -14 6 -6 3 7 2 16 -1 19 -3 4 -6 -2 -5 -13z"/>
<path d="M1661 984 c0 -11 3 -14 6 -6 3 7 2 16 -1 19 -3 4 -6 -2 -5 -13z"/>
</g>
</svg>
