<?xml version="1.0" encoding="utf-8"?>
<!-- Generator: Adobe Illustrator 22.0.0, SVG Export Plug-In . SVG Version: 6.00 Build 0)  -->
<svg version="1.1" id="Слой_1" xmlns="http://www.w3.org/2000/svg" xmlns:xlink="http://www.w3.org/1999/xlink" x="0px" y="0px"
	 viewBox="0 0 1200 600" style="enable-background:new 0 0 1200 600;" xml:space="preserve">
<style type="text/css">
	.st0{fill:#3F9C35;}
	.st1{fill:none;}
	.st2{fill:#FFFFFF;}
</style>
<rect x="0" class="st0" width="1200" height="600"/>
<rect id="_x3C_Фрагмент_x3E_" x="0" class="st1" width="1200" height="600"/>
<g>
	<path class="st2" d="M787.5,284.8C787,387.9,703.2,471.3,600,471.3s-187-83.4-187.5-186.5c-4.1,15.7-6.3,32.1-6.3,49
		c0,107,86.7,193.8,193.8,193.8s193.8-86.7,193.8-193.8C793.8,316.9,791.6,300.4,787.5,284.8L787.5,284.8z"/>
	<path id="s_37_" class="st2" d="M443.6,72.4l44.7,137.5l-117-85h144.6l-117,85L443.6,72.4z"/>
	<path id="s_42_" class="st2" d="M600,207.7l44.7,137.5l-117-85h144.6l-117,85L600,207.7z"/>
	<path id="s_46_" class="st2" d="M756.4,74.7l44.7,137.5l-117-87.2h144.6l-117,85L756.4,74.7z"/>
</g>
</svg>
